<svg width="16" height="12" viewBox="0 0 16 12" fill="none" xmlns="http://www.w3.org/2000/svg">
<path d="M15 5.3C15.3866 5.3 15.7 5.6134 15.7 6C15.7 6.3866 15.3866 6.7 15 6.7V5.3ZM0.505025 6.49497C0.231658 6.22161 0.231658 5.77839 0.505025 5.50503L4.9598 1.05025C5.23316 0.776886 5.67638 0.776886 5.94975 1.05025C6.22311 1.32362 6.22311 1.76684 5.94975 2.0402L1.98995 6L5.94975 9.9598C6.22311 10.2332 6.22311 10.6764 5.94975 10.9497C5.67638 11.2231 5.23316 11.2231 4.9598 10.9497L0.505025 6.49497ZM15 6.7H1V5.3H15V6.7Z" fill="#49596B" fill-opacity="0.8"/>
</svg>
