<svg width="113" height="40" viewBox="0 0 113 40" fill="none" xmlns="http://www.w3.org/2000/svg">
<g clip-path="url(#clip0_5667_5742)">
<path d="M47.7927 21.7473C47.7927 21.5944 47.8799 21.4524 48.0218 21.3869C48.3164 21.2558 48.611 21.1575 48.9275 21.1029C49.3312 21.0373 49.7676 20.9936 50.2368 20.9936H52.6701C52.8883 20.9936 53.0738 20.8189 53.0738 20.5895V19.4644C53.0738 19.246 52.8993 19.0603 52.6701 19.0603H50.2368C49.724 19.0603 49.2766 19.093 48.8947 19.1586C48.6983 19.1913 48.5128 19.246 48.3273 19.3115C48.0654 19.4098 47.7817 19.2241 47.7817 18.9401V16.0346C47.7817 15.8161 47.9563 15.6305 48.1855 15.6305H54.6124C54.8306 15.6305 55.0161 15.4557 55.0161 15.2263V14.1122C55.0161 13.8937 54.8415 13.708 54.6124 13.708H46.2978C46.0795 13.708 45.894 13.8828 45.894 14.1122V26.3022C45.894 26.5207 46.0686 26.7064 46.2978 26.7064H55.3762C55.5944 26.7064 55.7799 26.5316 55.7799 26.3022V25.2099C55.7799 24.9915 55.6053 24.8058 55.3762 24.8058H48.1855C47.9672 24.8058 47.7817 24.631 47.7817 24.4016V21.7473H47.7927V21.7473Z" fill="white"/>
<path d="M67.7497 22.7959L60.2534 13.8609C60.1771 13.7735 60.0679 13.7189 59.9479 13.7189H58.5403C58.2021 13.7189 58.0166 14.1122 58.2348 14.3743L59.1077 15.4338C59.1623 15.5103 59.195 15.5977 59.195 15.6851V26.3022C59.195 26.5207 59.3696 26.7064 59.5988 26.7064H60.6572C60.8754 26.7064 61.0609 26.5316 61.0609 26.3022V18.8746C61.0609 18.5032 61.5301 18.3284 61.7701 18.6124L68.3716 26.5534C68.448 26.6408 68.5571 26.6954 68.6772 26.6954H69.9647C70.183 26.6954 70.3684 26.5207 70.3684 26.2913V14.1122C70.3684 13.8937 70.1939 13.708 69.9647 13.708H68.8517C68.6335 13.708 68.448 13.8828 68.448 14.1122V22.5338C68.4589 22.9161 67.9897 23.0799 67.7497 22.7959Z" fill="white"/>
<path d="M85.0448 24.7837C84.7502 24.7837 84.5211 24.751 84.3465 24.6745C84.1719 24.5981 83.9864 24.467 83.8118 24.2704C83.6372 24.0737 83.4081 23.7679 83.1244 23.3528C83.1135 23.3419 83.1026 23.3201 83.0916 23.2982L82.306 21.6816C82.1969 21.4632 82.306 21.201 82.5352 21.1245C83.2771 20.8733 83.8664 20.4801 84.3028 19.9449C84.8266 19.3222 85.0885 18.5139 85.0885 17.5418C85.0885 16.7444 84.9139 16.0563 84.5647 15.4774C84.2155 14.8984 83.7354 14.4615 83.1244 14.1666C82.5133 13.8607 81.8041 13.7188 81.0075 13.7188H74.6025C74.3842 13.7188 74.1987 13.8935 74.1987 14.1229V26.313C74.1987 26.5314 74.3733 26.7171 74.6025 26.7171H75.6936C75.9118 26.7171 76.0973 26.5423 76.0973 26.313V22.0858C76.0973 21.9328 76.1846 21.7908 76.3265 21.7253C76.6211 21.5942 76.9157 21.4959 77.2321 21.4413C77.6359 21.3758 78.0723 21.3321 78.5415 21.3321H79.7964C79.9491 21.3321 80.091 21.4195 80.1564 21.5615L81.6295 24.6636C81.9459 25.2971 82.306 25.7668 82.7206 26.0617C83.1353 26.3567 83.5608 26.5423 83.9973 26.6079C84.3356 26.6625 84.7502 26.6953 85.2412 26.7062C85.4704 26.7062 85.6559 26.5314 85.6559 26.302V25.1988C85.6559 24.9694 85.4704 24.7837 85.2412 24.7947L85.0448 24.7837ZM80.9966 19.4206H78.5306C78.0178 19.4206 77.5704 19.4533 77.1885 19.5189C76.9921 19.5516 76.8066 19.6062 76.6211 19.6718C76.3592 19.7701 76.0755 19.5844 76.0755 19.3004V16.0126C76.0755 15.7941 76.2501 15.6084 76.4792 15.6084H80.9966C81.6731 15.6084 82.2078 15.7504 82.6006 16.0453C83.0044 16.3403 83.2008 16.799 83.2008 17.4435C83.2008 18.1207 83.0043 18.6123 82.6115 18.9399C82.2187 19.2567 81.6841 19.4206 80.9966 19.4206Z" fill="white"/>
<path d="M90.675 21.7473C90.675 21.5944 90.7623 21.4524 90.9041 21.3869C91.1987 21.2558 91.4933 21.1575 91.8098 21.1029C92.2135 21.0373 92.65 20.9936 93.1192 20.9936H95.5524C95.7707 20.9936 95.9562 20.8189 95.9562 20.5895V19.4644C95.9562 19.246 95.7816 19.0603 95.5524 19.0603H93.1192C92.6063 19.0603 92.1589 19.093 91.777 19.1586C91.5806 19.1913 91.3951 19.246 91.2096 19.3115C90.9478 19.4098 90.6641 19.2241 90.6641 18.9401V16.0346C90.6641 15.8161 90.8386 15.6305 91.0678 15.6305H97.4947C97.7129 15.6305 97.8984 15.4557 97.8984 15.2263V14.1122C97.8984 13.8937 97.7238 13.708 97.4947 13.708H89.1801C88.9619 13.708 88.7764 13.8828 88.7764 14.1122V26.3022C88.7764 26.5207 88.951 26.7064 89.1801 26.7064H98.2585C98.4767 26.7064 98.6622 26.5316 98.6622 26.3022V25.2099C98.6622 24.9915 98.4876 24.8058 98.2585 24.8058H91.0678C90.8496 24.8058 90.6641 24.631 90.6641 24.4016V21.7473H90.675V21.7473Z" fill="white"/>
<path d="M108.396 19.4098L112.138 14.3525C112.335 14.0903 112.149 13.708 111.822 13.708H110.469C110.338 13.708 110.229 13.7626 110.152 13.8719L107.348 17.6184C107.184 17.8369 106.868 17.8369 106.704 17.6184L103.944 13.8719C103.867 13.7735 103.747 13.708 103.627 13.708H102.318C101.991 13.708 101.805 14.0794 101.991 14.3415L105.635 19.3989C105.733 19.5409 105.733 19.7375 105.635 19.8795L100.987 26.051C100.79 26.3131 100.976 26.6954 101.303 26.6954H102.711C102.842 26.6954 102.951 26.6408 103.027 26.5316L106.693 21.6599C106.857 21.4415 107.174 21.4524 107.337 21.6599L110.873 26.5207C110.949 26.619 111.069 26.6845 111.2 26.6845H112.607C112.935 26.6845 113.12 26.3131 112.935 26.051L108.407 19.8795C108.287 19.7484 108.287 19.5518 108.396 19.4098Z" fill="white"/>
<path d="M19.8153 0.415039C11.6535 0.415039 4.63737 5.37408 1.62578 12.4413C4.97563 9.81974 9.1984 8.25775 13.7703 8.25775C24.1581 8.25775 32.7019 16.3189 33.4875 26.5319C34.1095 29.8525 31.8944 31.764 27.9881 30.202C27.3007 29.929 26.5914 29.6996 25.8822 29.492C24.2782 29.0333 22.5323 28.3888 21.0811 27.5914C18.9642 26.4336 17.6548 24.2053 17.7203 21.7804C17.753 20.5024 18.2877 19.3555 18.255 18.2195C18.1786 17.3894 18.004 16.6029 17.6876 15.9038C17.2511 14.9426 17.9495 13.8503 19.0079 13.8503C20.35 13.9159 21.6812 13.6319 22.8706 13.042C22.9469 12.9983 23.0015 12.9219 23.0015 12.8345C23.0015 12.7034 22.936 12.5833 22.8269 12.5177C20.1754 10.9666 17.0874 10.071 13.7922 10.071C8.5437 10.071 3.819 12.332 0.534626 15.9257C0.229103 17.302 0.0654297 18.7438 0.0654297 20.2075C0.0654297 31.1414 8.9147 40 19.8372 40C30.7596 40 39.5871 31.1414 39.5871 20.2075C39.5871 9.27359 30.7269 0.415039 19.8153 0.415039ZM16.52 20.3167C16.4764 20.4806 16.2691 20.5352 16.16 20.4041C13.9122 17.7389 12.3409 16.5483 10.4314 16.1769C10.3441 16.166 10.3005 16.2752 10.3768 16.3189C12.5264 17.5314 14.4469 18.7657 15.5271 21.0158C15.6362 21.2343 15.418 21.4746 15.1888 21.3872C12.9629 20.5898 10.4532 20.6117 8.81649 19.2572C7.08156 17.8263 6.80877 15.4997 6.32866 13.1403C6.28501 12.9328 6.47051 12.7362 6.68874 12.7908C8.43459 13.2059 10.1259 13.326 11.839 13.3916C15.2652 13.5445 17.3711 16.7231 16.52 20.3167Z" fill="white"/>
</g>
<defs>
<clipPath id="clip0_5667_5742">
<rect width="113" height="40" fill="white"/>
</clipPath>
</defs>
</svg>
