<svg width="235" height="229" viewBox="0 0 235 229" fill="none" xmlns="http://www.w3.org/2000/svg">
    <path opacity="0.3" d="M150.149 161.338C146.987 164.652 143.995 166.789 141.631 168.477C113.842 188.323 80.9612 182.538 73.9731 181.125C63.654 179.039 43.7069 175.006 29.2854 158.126C7.46721 132.588 10.8648 92.3528 27.7884 65.793C30.884 60.9346 47.236 33.9703 80.4714 29.6461C100.585 27.0293 124.031 32.3073 141.01 46.4662C176.65 76.1865 174.113 136.228 150.149 161.338Z" fill="url(#paint0_linear_6258_517)"/>
    <g opacity="0.88">
        <path opacity="0.88" d="M40.8381 33.9572C39.6894 32.1044 36.865 33.1489 37.1516 35.3194C38.6281 46.5091 40.3829 66.0414 36.9228 78.8068C31.8341 97.5765 22.6862 152.788 74.2797 166.765C74.2797 166.765 69.3655 79.9712 40.8381 33.9572Z" fill="url(#paint1_linear_6258_517)"/>
        <path opacity="0.88" d="M45.4174 57.0378C45.9976 58.1267 46.4316 59.2671 46.829 60.4255C47.2253 61.5839 47.546 62.7651 47.8456 63.9535C48.4164 66.3363 48.802 68.7623 49.0732 71.199L49.2442 73.0314C49.2997 73.643 49.3185 74.2546 49.3575 74.8673C49.4435 76.0929 49.4565 77.3185 49.4742 78.5453C49.4754 78.8522 49.4872 79.1592 49.4813 79.465L49.4589 80.3836L49.4152 82.2232C49.4117 82.8372 49.3527 83.4475 49.3221 84.0603L49.2112 85.8963C49.0402 88.3522 48.6994 90.7818 48.3645 93.1921L47.3243 100.391C46.6509 105.17 46.178 109.952 46.1698 114.727C46.1486 119.502 46.7064 124.254 47.8149 128.874C48.1322 130.018 48.4022 131.178 48.7949 132.299C48.9824 132.862 49.1499 133.433 49.3551 133.991L49.9919 135.655C50.1004 135.932 50.1995 136.213 50.3139 136.486L50.67 137.303L51.3835 138.939C51.6418 139.475 51.913 140.004 52.1784 140.537C52.452 141.066 52.6937 141.612 53.0003 142.123L53.8813 143.677C54.0299 143.935 54.1714 144.197 54.3259 144.453L54.8059 145.207L55.7599 146.722L55.9981 147.1L56.2541 147.467L56.767 148.201L57.7942 149.67C58.1398 150.157 58.5195 150.619 58.8815 151.095L59.9795 152.514C60.3521 152.981 60.746 153.431 61.1281 153.891C64.2014 157.565 67.5919 160.973 71.1287 164.236C71.1841 164.286 71.1888 164.374 71.1393 164.43C71.0921 164.484 71.0119 164.49 70.9565 164.448C67.1473 161.503 63.5351 158.27 60.2236 154.718C59.812 154.272 59.3839 153.84 58.9841 153.382L57.806 151.988C57.418 151.519 57.0112 151.066 56.6373 150.585L55.5252 149.132L54.9686 148.404L54.6915 148.039L54.4308 147.662L53.3919 146.149L52.8753 145.39C52.709 145.134 52.5546 144.869 52.3942 144.607L51.4378 143.035C48.9223 138.815 47.033 134.202 45.7334 129.426C44.461 124.637 43.8866 119.669 43.8713 114.732C43.8206 109.788 44.389 104.884 45.0931 100.057C45.8054 95.2284 46.763 90.4736 47.2654 85.7116L47.4375 83.9164C47.4883 83.318 47.5684 82.7196 47.5932 82.12L47.7005 80.3201L47.7548 79.4195C47.7713 79.1197 47.7713 78.8187 47.7807 78.5189C47.809 77.3173 47.8668 76.1145 47.8385 74.9129C47.8302 74.3121 47.8409 73.7101 47.8161 73.1093L47.7383 71.3082C47.605 68.9086 47.3845 66.5078 46.9812 64.1346C46.7771 62.9498 46.5519 61.765 46.2512 60.5994C45.9658 59.4326 45.6249 58.267 45.1792 57.1625L45.1756 57.1529C45.1473 57.0834 45.1803 57.003 45.2487 56.9743C45.3124 56.9491 45.3855 56.9767 45.4174 57.0378Z" fill="white"/>
    </g>
    <g opacity="0.8">
        <path opacity="0.8" d="M61.8657 169.732C61.8657 169.732 39.358 179.487 20.185 154.984C2.17462 131.967 9.68061 101.088 15.5576 83.3344C15.8639 82.41 17.1748 82.4854 17.3887 83.4407C20.6125 97.8158 34.8109 153.916 63.0975 169.602L61.8657 169.732Z" fill="url(#paint2_linear_6258_517)"/>
        <path opacity="0.8" d="M59.4584 170.482C56.4819 170.268 53.58 169.53 50.7443 168.599C47.9138 167.643 45.1807 166.375 42.584 164.857C39.9915 163.333 37.5511 161.531 35.3034 159.506C33.0644 157.469 31.0262 155.209 29.1891 152.788C27.3978 150.334 25.8303 147.722 24.4414 145.017L23.4806 142.95L23.0099 141.912L22.5989 140.85L21.7769 138.726C21.5332 138.007 21.308 137.282 21.0805 136.558C19.2781 130.763 18.3214 124.735 18.1602 118.719C18.1582 118.643 18.2174 118.58 18.2917 118.578C18.359 118.577 18.4171 118.626 18.4291 118.693L18.4293 118.696C18.694 120.177 18.9418 121.653 19.1719 123.129L19.6221 125.325C19.7721 126.057 19.8964 126.792 20.0684 127.517C20.252 128.24 20.4251 128.964 20.5983 129.689C20.776 130.411 20.9293 131.139 21.1581 131.848C21.5899 133.271 21.9407 134.716 22.4634 136.106L23.1835 138.21L24.0057 140.273L24.4156 141.305L24.8827 142.31L25.8078 144.325C27.143 146.961 28.6555 149.499 30.3736 151.893C32.1185 154.264 34.0604 156.487 36.2029 158.497C38.3333 160.519 40.6664 162.325 43.1507 163.89C45.631 165.463 48.2673 166.781 50.9945 167.876C53.7309 168.933 56.5748 169.782 59.4748 170.209L59.4832 170.211C59.5573 170.221 59.6086 170.291 59.5988 170.366C59.591 170.436 59.5285 170.486 59.4584 170.482Z" fill="white"/>
    </g>
    <g opacity="0.81">
        <path opacity="0.81" d="M171.114 89.8405C158.437 95.4479 124.761 114.851 110.221 167.154C110.221 167.154 129.834 167.481 144.55 136.103C157.134 109.267 164.372 98.4268 172.078 91.2887C172.808 90.6127 172.025 89.4375 171.114 89.8405Z" fill="url(#paint3_linear_6258_517)"/>
        <path opacity="0.81" d="M112.655 164.225C113.209 162.655 113.821 161.11 114.455 159.573C115.091 158.036 115.754 156.511 116.443 154.997C117.13 153.483 117.836 151.977 118.576 150.487C118.939 149.738 119.311 148.994 119.688 148.253C120.062 147.51 120.448 146.773 120.838 146.039C122.385 143.092 124.027 140.195 125.736 137.337C127.454 134.485 129.264 131.688 131.134 128.931C134.891 123.429 138.987 118.15 143.48 113.224L145.188 111.398C145.76 110.792 146.358 110.21 146.942 109.616L147.823 108.728L148.73 107.868C149.341 107.301 149.94 106.722 150.56 106.165C153.041 103.94 155.628 101.833 158.329 99.8888C158.38 99.8521 158.452 99.863 158.488 99.9146C158.524 99.9643 158.514 100.032 158.468 100.069L158.466 100.071C155.884 102.159 153.376 104.325 151 106.633C148.649 108.965 146.343 111.34 144.179 113.844C139.824 118.827 135.837 124.123 132.138 129.608C130.288 132.35 128.515 135.145 126.799 137.974C125.085 140.805 123.439 143.676 121.833 146.572C118.636 152.369 115.624 158.276 112.868 164.308L112.867 164.31C112.841 164.368 112.774 164.393 112.716 164.367C112.661 164.342 112.635 164.28 112.655 164.225Z" fill="#DCE5FE"/>
    </g>
    <g opacity="0.81">
        <path opacity="0.81" d="M108.343 173.239C108.343 173.239 115.191 151.849 145.966 150.894C166.502 150.256 173.279 145.723 175.312 143.666C175.549 143.427 175.957 143.642 175.886 143.971C175.014 148.036 170.838 160.503 151.865 166.72C128.997 174.216 118.203 166.471 108.343 173.239Z" fill="url(#paint4_linear_6258_517)"/>
        <path opacity="0.81" d="M110.207 169.146C112.198 167.431 114.383 165.96 116.643 164.61C117.776 163.94 118.929 163.298 120.114 162.716C121.295 162.126 122.496 161.57 123.723 161.067C124.946 160.559 126.197 160.115 127.457 159.692C128.722 159.286 130.006 158.928 131.306 158.633C131.632 158.56 131.955 158.48 132.282 158.414L133.265 158.223C133.918 158.082 134.584 158.006 135.244 157.904C135.908 157.822 136.574 157.751 137.241 157.69L138.245 157.623L138.746 157.59L139.249 157.577L140.255 157.553C140.59 157.54 140.926 157.563 141.262 157.566L142.27 157.591L143.275 157.665C143.947 157.703 144.613 157.805 145.28 157.888L146.258 158.019L147.22 158.152C147.863 158.226 148.506 158.296 149.15 158.352C149.794 158.392 150.438 158.454 151.083 158.472C152.372 158.538 153.661 158.519 154.945 158.436C157.512 158.281 160.057 157.792 162.439 156.854C163.028 156.608 163.616 156.353 164.176 156.045C164.74 155.744 165.289 155.415 165.81 155.044C166.334 154.678 166.83 154.271 167.295 153.832C167.756 153.393 168.199 152.912 168.54 152.385L168.545 152.378C168.579 152.326 168.65 152.31 168.703 152.344C168.753 152.376 168.769 152.441 168.743 152.491C168.434 153.092 168.035 153.615 167.602 154.119C167.168 154.621 166.682 155.077 166.172 155.503C165.154 156.363 163.997 157.052 162.796 157.637C161.588 158.215 160.316 158.653 159.02 158.99C157.724 159.329 156.401 159.567 155.068 159.697C153.736 159.833 152.397 159.902 151.061 159.883C149.723 159.888 148.39 159.781 147.062 159.658L146.068 159.543L145.089 159.434C144.45 159.371 143.814 159.286 143.172 159.265L142.211 159.208L141.249 159.191C140.927 159.19 140.607 159.171 140.286 159.186L139.323 159.215C136.756 159.307 134.204 159.695 131.689 160.239C129.176 160.796 126.699 161.536 124.276 162.435C123.67 162.657 123.068 162.892 122.465 163.126C121.866 163.371 121.265 163.611 120.674 163.875C119.49 164.396 118.307 164.928 117.149 165.511C115.991 166.094 114.834 166.686 113.703 167.327C112.567 167.959 111.444 168.62 110.35 169.324L110.347 169.325C110.294 169.36 110.223 169.344 110.189 169.292C110.155 169.244 110.165 169.181 110.207 169.146Z" fill="white"/>
    </g>
    <path d="M62 98.1141C62 96.946 61.3219 96 60.4847 96H48.5153C47.6781 96 47 96.946 47 98.1141V169.886C47 171.054 47.6781 172 48.5153 172H60.4847C61.3219 172 62 171.054 62 169.886V98.1141Z" fill="url(#paint5_linear_6258_517)"/>
    <path d="M97.2954 87H85.5101C84.6837 87 84 88.1226 84 89.4286V169.489C84 170.796 84.6837 172 85.5101 172H97.2954C98.1218 172 99 170.796 99 169.489V89.4286C99 88.1226 98.1218 87 97.2954 87Z" fill="url(#paint6_linear_6258_517)"/>
    <path d="M80 74.1209C80 72.949 79.3219 72 78.4847 72H66.5153C65.6781 72 65 72.949 65 74.1209V169.879C65 171.051 65.6781 172 66.5153 172H78.4847C79.3219 172 80 171.051 80 169.879V74.1209Z" fill="url(#paint7_linear_6258_517)"/>
    <path d="M118 59.1123C118 57.9452 117.322 57 116.485 57H104.515C103.678 57 103 57.9452 103 59.1123V169.888C103 171.055 103.678 172 104.515 172H116.485C117.322 172 118 171.055 118 169.888V59.1123Z" fill="url(#paint8_linear_6258_517)"/>
    <path d="M102.867 162.265L128.046 105.488H122.888C121.936 105.488 121.414 104.186 122.016 103.32L148.852 64.8224C150.015 63.1539 152.313 64.2117 152.204 66.3663L150.318 104.012C150.21 106.168 148.586 107.774 146.765 107.528L143.168 107.044L118.186 170.725C117.535 172.383 116.126 173.444 114.574 173.444H105.916L102.867 162.265Z" fill="url(#paint9_linear_6258_517)"/>
    <path d="M102.867 162.265L128.046 105.488H122.888C121.936 105.488 121.414 104.186 122.016 103.32L148.852 64.8224C150.015 63.1539 152.313 64.2117 152.204 66.3663L150.318 104.012C150.21 106.168 148.586 107.774 146.765 107.528L143.168 107.044L118.186 170.725C117.535 172.383 116.126 173.444 114.574 173.444H105.916L102.867 162.265Z" fill="url(#paint10_linear_6258_517)"/>
    <path d="M82.0498 122.445L99.8254 168.923C100.878 171.676 103.205 173.446 105.77 173.446H114.934C116.15 173.446 117.27 172.67 117.86 171.418L118.186 170.727C117.201 170.727 116.3 170.078 115.852 169.046L92.1684 114.425L82.0498 122.445Z" fill="url(#paint11_linear_6258_517)"/>
    <path d="M94.56 119.94C92.7774 118.284 90.173 118.771 88.9148 120.996L62.7796 167.213C60.6862 170.915 57.1587 173.139 53.3808 173.139H49.7034L46.7104 162.991C46.7104 162.991 71.0073 119.141 77.2695 112.507C77.2695 112.507 83.5058 105.891 89.655 110.893C91.2798 112.215 92.5129 114.101 93.2664 116.249L94.56 119.94Z" fill="url(#paint12_linear_6258_517)"/>
    <path d="M94.56 119.94C92.7774 118.284 90.173 118.771 88.9148 120.996L62.7796 167.213C60.6862 170.915 57.1587 173.139 53.3808 173.139H49.7034L46.7104 162.991C46.7104 162.991 71.0073 119.141 77.2695 112.507C77.2695 112.507 83.5058 105.891 89.655 110.893C91.2798 112.215 92.5129 114.101 93.2664 116.249L94.56 119.94Z" fill="url(#paint13_linear_6258_517)"/>
    <path d="M18.2847 135.7C18.2847 135.7 22.6599 129.263 31.1372 128.262C31.1372 128.262 35.1639 129.877 43.1851 146.796C51.2064 163.714 56.5314 171.43 62.7794 167.216L62.2622 168.227C60.5573 171.558 57.4945 173.595 54.1907 173.595H50.7354C46.9308 173.595 43.3594 171.443 41.1372 167.807C34.8931 157.591 22.1199 137.285 18.2847 135.7Z" fill="url(#paint14_linear_6258_517)"/>
    <path d="M149.176 78.2955C149.166 78.2955 149.155 78.2946 149.145 78.2937C148.997 78.2743 148.891 78.1163 148.907 77.9417L149.084 76.1031C149.101 75.9285 149.235 75.801 149.383 75.8232C149.531 75.8426 149.637 76.0006 149.621 76.1752L149.444 78.0138C149.429 78.1754 149.312 78.2955 149.176 78.2955Z" fill="#91B3FA"/>
    <path d="M126.775 101.498C126.718 101.498 126.66 101.477 126.61 101.433C126.492 101.326 126.47 101.126 126.561 100.987L148.72 67.0969C148.983 66.6941 149.429 66.5518 149.83 66.7421C150.23 66.9325 150.466 67.4 150.418 67.9044L150.027 71.9668C150.01 72.1414 149.876 72.2671 149.728 72.2467C149.579 72.2273 149.473 72.0694 149.49 71.8947L149.881 67.8323C149.907 67.5635 149.767 67.3972 149.627 67.3307C149.487 67.2641 149.289 67.2697 149.148 67.484L126.989 101.375C126.936 101.456 126.856 101.498 126.775 101.498Z" fill="#91B3FA"/>
    <path d="M76.5033 137.028C76.4515 137.028 76.3989 137.011 76.3526 136.974C76.2285 136.876 76.1964 136.678 76.2796 136.532L87.7396 116.537C88.1548 115.813 88.844 115.418 89.5858 115.486C90.3267 115.551 90.9586 116.063 91.2757 116.853C91.3393 117.012 91.282 117.201 91.147 117.276C91.012 117.352 90.8511 117.283 90.7875 117.125C90.5536 116.543 90.0889 116.167 89.5449 116.119C88.9994 116.07 88.4931 116.36 88.1878 116.893L76.7278 136.888C76.6752 136.979 76.5904 137.028 76.5033 137.028Z" fill="#91B3FA"/>
    <path d="M73.5248 142.224C73.4729 142.224 73.4204 142.206 73.374 142.169C73.25 142.071 73.2178 141.874 73.301 141.728L74.0357 140.445C74.1197 140.299 74.2869 140.261 74.4109 140.359C74.535 140.457 74.5671 140.655 74.4839 140.801L73.7492 142.083C73.6967 142.175 73.6119 142.224 73.5248 142.224Z" fill="#91B3FA"/>
    <path d="M124.075 89.2632C134.845 89.2632 143.575 80.5327 143.575 69.7632C143.575 58.9936 134.845 50.2632 124.075 50.2632C113.306 50.2632 104.575 58.9936 104.575 69.7632C104.575 80.5327 113.306 89.2632 124.075 89.2632Z" fill="url(#paint15_linear_6258_517)"/>
    <path d="M124.075 88.6159C134.487 88.6159 142.928 80.1753 142.928 69.7633C142.928 59.3513 134.487 50.9106 124.075 50.9106C113.663 50.9106 105.223 59.3513 105.223 69.7633C105.223 80.1753 113.663 88.6159 124.075 88.6159Z" fill="url(#paint16_linear_6258_517)"/>
    <path opacity="0.6" d="M108.53 62.2934C108.475 62.2934 108.42 62.2808 108.367 62.2539C108.189 62.1639 108.118 61.946 108.208 61.7676C111.251 55.7408 117.331 51.9971 124.076 51.9971C125.153 51.9971 126.232 52.0934 127.28 52.286C127.477 52.3223 127.607 52.5102 127.572 52.7076C127.536 52.905 127.348 53.0376 127.151 52.9981C126.143 52.815 125.109 52.7218 124.076 52.7218C117.606 52.7218 111.773 56.3139 108.854 62.0944C108.789 62.2208 108.661 62.2934 108.53 62.2934Z" fill="white"/>
    <g filter="url(#filter0_bd_6258_517)">
        <circle cx="125" cy="70" r="16" fill="#B9DDFF" fill-opacity="0.6" shape-rendering="crispEdges"/>
        <circle cx="125" cy="70" r="15.7" stroke="url(#paint17_linear_6258_517)" stroke-width="0.6" shape-rendering="crispEdges"/>
    </g>
    <g filter="url(#filter1_d_6258_517)">
        <path d="M131.723 74.32C131.767 74.3632 131.823 74.3926 131.884 74.4045C131.946 74.4164 132.01 74.4103 132.069 74.3869C132.128 74.3635 132.179 74.3239 132.215 74.273C132.252 74.2222 132.272 74.1624 132.274 74.1012C132.918 67.9329 128.983 63.0469 123.529 63.5243C120.783 63.8269 118.018 63.8482 115.281 63.5877C115.198 63.5841 115.115 63.6007 115.04 63.6361C114.964 63.6715 114.899 63.7245 114.849 63.7902C114.8 63.8559 114.768 63.9322 114.756 64.0121C114.745 64.092 114.754 64.173 114.784 64.2475C116 68.0839 116.889 71.9174 119.902 73.9478C122.753 75.8679 126.717 75.3004 130.381 76.1742C130.47 76.1876 130.561 76.1752 130.644 76.1387C130.726 76.1022 130.797 76.0433 130.846 75.9691C130.895 75.895 130.921 75.809 130.92 75.7218C130.919 75.6347 130.893 75.5502 130.842 75.479C128.69 71.9494 125.414 70.2891 121.79 68.7047C121.664 68.6482 121.707 68.4459 121.844 68.4549C124.945 68.6639 127.655 70.3323 131.723 74.32Z" fill="#26588C" fill-opacity="0.8" shape-rendering="crispEdges"/>
    </g>
    <path d="M132.016 73.8253C132.06 73.8685 132.116 73.898 132.177 73.9099C132.239 73.9218 132.303 73.9157 132.362 73.8923C132.421 73.8689 132.472 73.8292 132.508 73.7784C132.545 73.7276 132.565 73.6677 132.567 73.6066C133.211 67.4383 129.276 62.5523 123.822 63.0296C121.076 63.3323 118.311 63.3535 115.574 63.0931C115.491 63.0895 115.408 63.1061 115.333 63.1415C115.257 63.1769 115.191 63.2299 115.142 63.2956C115.092 63.3613 115.061 63.4376 115.049 63.5175C115.038 63.5974 115.047 63.6783 115.077 63.7528C116.293 67.5893 117.182 71.4228 120.195 73.4532C123.046 75.3733 127.01 74.8058 130.674 75.6796C130.763 75.6929 130.854 75.6806 130.937 75.6441C131.019 75.6076 131.09 75.5486 131.139 75.4745C131.188 75.4003 131.214 75.3143 131.213 75.2272C131.212 75.14 131.185 75.0556 131.135 74.9844C128.983 71.4548 125.707 69.7945 122.083 68.21C121.957 68.1536 122 67.9513 122.137 67.9602C125.238 68.1693 127.948 69.8376 132.016 73.8253Z" fill="white" fill-opacity="0.95"/>
    <path d="M162.073 101.404C170.323 101.404 177.011 94.716 177.011 86.4662C177.011 78.2164 170.323 71.5286 162.073 71.5286C153.824 71.5286 147.136 78.2164 147.136 86.4662C147.136 94.716 153.824 101.404 162.073 101.404Z" fill="url(#paint18_linear_6258_517)"/>
    <path d="M162.074 100.908C170.05 100.908 176.516 94.4421 176.516 86.466C176.516 78.49 170.05 72.0242 162.074 72.0242C154.098 72.0242 147.632 78.49 147.632 86.466C147.632 94.4421 154.098 100.908 162.074 100.908Z" fill="url(#paint19_linear_6258_517)"/>
    <path opacity="0.6" d="M150.166 80.8348C150.11 80.8348 150.054 80.822 150.001 80.7947C149.82 80.7033 149.747 80.4819 149.839 80.3006C152.184 75.653 156.874 72.7668 162.075 72.7668C162.904 72.7668 163.735 72.8422 164.546 72.9898C164.746 73.0267 164.878 73.2177 164.842 73.4182C164.805 73.6187 164.616 73.7535 164.414 73.715C163.647 73.5754 162.859 73.5048 162.075 73.5048C157.153 73.5048 152.715 76.2369 150.495 80.6343C150.431 80.761 150.301 80.8348 150.166 80.8348Z" fill="white"/>
    <path opacity="0.78" d="M168.067 97.6104C174.047 94.4774 176.355 87.0901 173.222 81.1104C170.089 75.1307 162.702 72.8229 156.722 75.9559C150.742 79.0889 148.434 86.4762 151.567 92.4559C154.7 98.4356 162.088 100.743 168.067 97.6104Z" fill="white"/>
    <g filter="url(#filter2_d_6258_517)">
        <path d="M167.591 90.9977C167.621 91.0326 167.662 91.0579 167.707 91.0704C167.752 91.0829 167.801 91.0821 167.846 91.0681C167.892 91.0541 167.932 91.0274 167.962 90.9916C167.992 90.9557 168.011 90.9122 168.016 90.8665C168.861 86.2925 166.206 82.4077 162.101 82.4435C160.029 82.508 157.961 82.3612 155.93 82.0053C155.868 81.9977 155.805 82.0053 155.746 82.0273C155.688 82.0493 155.636 82.085 155.595 82.1313C155.554 82.1775 155.526 82.2326 155.512 82.2917C155.499 82.3508 155.501 82.4119 155.519 82.4693C156.202 85.4093 156.641 88.3279 158.775 90.0234C160.794 91.627 163.79 91.436 166.479 92.3051C166.544 92.3203 166.613 92.3164 166.677 92.294C166.741 92.2716 166.797 92.2316 166.838 92.1791C166.879 92.1265 166.904 92.0637 166.908 91.9985C166.913 91.9333 166.898 91.8686 166.865 91.8124C165.463 89.0467 163.111 87.6124 160.495 86.2144C160.404 86.1647 160.448 86.016 160.55 86.0308C162.857 86.3697 164.784 87.7766 167.591 90.9977Z" fill="#26588C" fill-opacity="0.8" shape-rendering="crispEdges"/>
    </g>
    <path d="M167.839 90.6442C167.869 90.679 167.909 90.7043 167.955 90.7169C168 90.7294 168.048 90.7286 168.094 90.7146C168.139 90.7006 168.18 90.6739 168.21 90.638C168.24 90.6022 168.259 90.5587 168.264 90.513C169.108 85.939 166.454 82.0541 162.348 82.09C160.277 82.1545 158.208 82.0077 156.177 81.6518C156.115 81.6442 156.052 81.6517 155.994 81.6738C155.935 81.6958 155.883 81.7315 155.842 81.7777C155.802 81.8239 155.773 81.8791 155.76 81.9382C155.747 81.9973 155.749 82.0583 155.767 82.1158C156.45 85.0558 156.889 87.9744 159.022 89.6699C161.041 91.2735 164.038 91.0825 166.726 91.9516C166.792 91.9667 166.861 91.9629 166.925 91.9405C166.989 91.9181 167.045 91.8781 167.086 91.8256C167.127 91.773 167.151 91.7102 167.156 91.645C167.161 91.5798 167.146 91.5151 167.112 91.4589C165.711 88.6931 163.359 87.2589 160.743 85.8609C160.652 85.8112 160.696 85.6625 160.798 85.6773C163.104 86.0162 165.032 87.4231 167.839 90.6442Z" fill="white" fill-opacity="0.95"/>
    <path d="M132.938 130.857C143.95 130.857 152.877 121.935 152.877 110.929C152.877 99.9223 143.95 91 132.938 91C121.927 91 113 99.9223 113 110.929C113 121.935 121.927 130.857 132.938 130.857Z" fill="url(#paint20_linear_6258_517)"/>
    <path d="M132.938 130.195C143.585 130.195 152.215 121.569 152.215 110.929C152.215 100.288 143.585 91.6619 132.938 91.6619C122.292 91.6619 113.662 100.288 113.662 110.929C113.662 121.569 122.292 130.195 132.938 130.195Z" fill="url(#paint21_linear_6258_517)"/>
    <path opacity="0.6" d="M117.043 103.285C116.988 103.285 116.934 103.273 116.882 103.246C116.704 103.157 116.634 102.94 116.723 102.763C119.831 96.6079 126.046 92.7831 132.939 92.7831C134.038 92.7831 135.14 92.8819 136.213 93.0779C136.409 93.114 136.538 93.3006 136.503 93.4966C136.467 93.6926 136.282 93.8228 136.084 93.7852C135.054 93.597 133.996 93.5029 132.939 93.5029C126.318 93.5029 120.351 97.1756 117.365 103.088C117.301 103.213 117.175 103.285 117.043 103.285Z" fill="white"/>
    <g filter="url(#filter3_bd_6258_517)">
        <circle cx="133" cy="111" r="16" fill="#B9DDFF" fill-opacity="0.6" shape-rendering="crispEdges"/>
        <circle cx="133" cy="111" r="15.7" stroke="url(#paint22_linear_6258_517)" stroke-width="0.6" shape-rendering="crispEdges"/>
    </g>
    <g filter="url(#filter4_d_6258_517)">
        <path d="M143.005 116.763C143.062 116.816 143.133 116.851 143.21 116.863C143.287 116.876 143.366 116.866 143.437 116.833C143.508 116.801 143.568 116.748 143.609 116.682C143.65 116.616 143.671 116.539 143.669 116.461C144.012 108.576 138.795 102.515 132.094 103.352C128.724 103.853 125.311 103.995 121.911 103.778C121.809 103.777 121.708 103.802 121.617 103.85C121.526 103.898 121.449 103.968 121.393 104.054C121.337 104.14 121.303 104.239 121.295 104.341C121.286 104.443 121.304 104.546 121.346 104.64C123.129 109.476 124.508 114.323 128.378 116.783C132.04 119.11 136.894 118.221 141.483 119.181C141.594 119.194 141.706 119.175 141.805 119.125C141.904 119.075 141.987 118.997 142.042 118.9C142.097 118.804 142.123 118.693 142.116 118.582C142.109 118.471 142.069 118.365 142.002 118.276C139.085 113.869 134.917 111.891 130.326 110.025C130.166 109.958 130.204 109.698 130.374 109.704C134.219 109.841 137.688 111.853 143.005 116.763Z" fill="#26588C" fill-opacity="0.8" shape-rendering="crispEdges"/>
    </g>
    <path d="M143.329 116.116C143.386 116.169 143.458 116.204 143.535 116.217C143.612 116.229 143.691 116.219 143.762 116.187C143.833 116.154 143.893 116.102 143.934 116.035C143.975 115.969 143.996 115.892 143.993 115.814C144.337 107.929 139.119 101.869 132.418 102.705C129.049 103.206 125.636 103.349 122.236 103.132C122.134 103.13 122.032 103.155 121.942 103.203C121.851 103.252 121.774 103.322 121.718 103.408C121.661 103.493 121.628 103.592 121.619 103.694C121.611 103.796 121.629 103.899 121.671 103.993C123.454 108.83 124.832 113.676 128.703 116.137C132.365 118.464 137.218 117.575 141.808 118.534C141.918 118.548 142.03 118.528 142.13 118.478C142.229 118.428 142.312 118.35 142.367 118.254C142.422 118.157 142.448 118.046 142.44 117.935C142.433 117.824 142.394 117.718 142.327 117.629C139.41 113.223 135.242 111.245 130.65 109.378C130.49 109.311 130.529 109.052 130.699 109.057C134.544 109.194 138.013 111.206 143.329 116.116Z" fill="white" fill-opacity="0.95"/>
    <defs>
        <filter id="filter0_bd_6258_517" x="39.2289" y="0.329937" width="187.643" height="187.643" filterUnits="userSpaceOnUse" color-interpolation-filters="sRGB">
            <feFlood flood-opacity="0" result="BackgroundImageFix"/>
            <feGaussianBlur in="BackgroundImage" stdDeviation="7"/>
            <feComposite in2="SourceAlpha" operator="in" result="effect1_backgroundBlur_6258_517"/>
            <feColorMatrix in="SourceAlpha" type="matrix" values="0 0 0 0 0 0 0 0 0 0 0 0 0 0 0 0 0 0 127 0" result="hardAlpha"/>
            <feMorphology radius="11.6285" operator="erode" in="SourceAlpha" result="effect2_dropShadow_6258_517"/>
            <feOffset dx="8.05051" dy="24.1515"/>
            <feGaussianBlur stdDeviation="44.7251"/>
            <feComposite in2="hardAlpha" operator="out"/>
            <feColorMatrix type="matrix" values="0 0 0 0 0.0846354 0 0 0 0 0.203125 0 0 0 0 0.3125 0 0 0 0.1 0"/>
            <feBlend mode="normal" in2="effect1_backgroundBlur_6258_517" result="effect2_dropShadow_6258_517"/>
            <feBlend mode="normal" in="SourceGraphic" in2="effect2_dropShadow_6258_517" result="shape"/>
        </filter>
        <filter id="filter1_d_6258_517" x="110.751" y="63.4921" width="25.5913" height="20.6874" filterUnits="userSpaceOnUse" color-interpolation-filters="sRGB">
            <feFlood flood-opacity="0" result="BackgroundImageFix"/>
            <feColorMatrix in="SourceAlpha" type="matrix" values="0 0 0 0 0 0 0 0 0 0 0 0 0 0 0 0 0 0 127 0" result="hardAlpha"/>
            <feOffset dy="4"/>
            <feGaussianBlur stdDeviation="2"/>
            <feComposite in2="hardAlpha" operator="out"/>
            <feColorMatrix type="matrix" values="0 0 0 0 0 0 0 0 0 0 0 0 0 0 0 0 0 0 0.25 0"/>
            <feBlend mode="normal" in2="BackgroundImageFix" result="effect1_dropShadow_6258_517"/>
            <feBlend mode="normal" in="SourceGraphic" in2="effect1_dropShadow_6258_517" result="shape"/>
        </filter>
        <filter id="filter2_d_6258_517" x="151.504" y="82.0024" width="20.6689" height="18.3118" filterUnits="userSpaceOnUse" color-interpolation-filters="sRGB">
            <feFlood flood-opacity="0" result="BackgroundImageFix"/>
            <feColorMatrix in="SourceAlpha" type="matrix" values="0 0 0 0 0 0 0 0 0 0 0 0 0 0 0 0 0 0 127 0" result="hardAlpha"/>
            <feOffset dy="4"/>
            <feGaussianBlur stdDeviation="2"/>
            <feComposite in2="hardAlpha" operator="out"/>
            <feColorMatrix type="matrix" values="0 0 0 0 0 0 0 0 0 0 0 0 0 0 0 0 0 0 0.25 0"/>
            <feBlend mode="normal" in2="BackgroundImageFix" result="effect1_dropShadow_6258_517"/>
            <feBlend mode="normal" in="SourceGraphic" in2="effect1_dropShadow_6258_517" result="shape"/>
        </filter>
        <filter id="filter3_bd_6258_517" x="47.2289" y="41.3299" width="187.643" height="187.643" filterUnits="userSpaceOnUse" color-interpolation-filters="sRGB">
            <feFlood flood-opacity="0" result="BackgroundImageFix"/>
            <feGaussianBlur in="BackgroundImage" stdDeviation="7"/>
            <feComposite in2="SourceAlpha" operator="in" result="effect1_backgroundBlur_6258_517"/>
            <feColorMatrix in="SourceAlpha" type="matrix" values="0 0 0 0 0 0 0 0 0 0 0 0 0 0 0 0 0 0 127 0" result="hardAlpha"/>
            <feMorphology radius="11.6285" operator="erode" in="SourceAlpha" result="effect2_dropShadow_6258_517"/>
            <feOffset dx="8.05051" dy="24.1515"/>
            <feGaussianBlur stdDeviation="44.7251"/>
            <feComposite in2="hardAlpha" operator="out"/>
            <feColorMatrix type="matrix" values="0 0 0 0 0.0846354 0 0 0 0 0.203125 0 0 0 0 0.3125 0 0 0 0.1 0"/>
            <feBlend mode="normal" in2="effect1_backgroundBlur_6258_517" result="effect2_dropShadow_6258_517"/>
            <feBlend mode="normal" in="SourceGraphic" in2="effect2_dropShadow_6258_517" result="shape"/>
        </filter>
        <filter id="filter4_d_6258_517" x="117.293" y="103.275" width="30.3916" height="23.9104" filterUnits="userSpaceOnUse" color-interpolation-filters="sRGB">
            <feFlood flood-opacity="0" result="BackgroundImageFix"/>
            <feColorMatrix in="SourceAlpha" type="matrix" values="0 0 0 0 0 0 0 0 0 0 0 0 0 0 0 0 0 0 127 0" result="hardAlpha"/>
            <feOffset dy="4"/>
            <feGaussianBlur stdDeviation="2"/>
            <feComposite in2="hardAlpha" operator="out"/>
            <feColorMatrix type="matrix" values="0 0 0 0 0 0 0 0 0 0 0 0 0 0 0 0 0 0 0.25 0"/>
            <feBlend mode="normal" in2="BackgroundImageFix" result="effect1_dropShadow_6258_517"/>
            <feBlend mode="normal" in="SourceGraphic" in2="effect1_dropShadow_6258_517" result="shape"/>
        </filter>
        <linearGradient id="paint0_linear_6258_517" x1="188.024" y1="228.453" x2="51.1303" y2="57.6446" gradientUnits="userSpaceOnUse">
            <stop stop-color="#D8EBFF" stop-opacity="0.86"/>
            <stop offset="1" stop-color="#D8EBFF"/>
        </linearGradient>
        <linearGradient id="paint1_linear_6258_517" x1="24.592" y1="88.3907" x2="84.8092" y2="97.5517" gradientUnits="userSpaceOnUse">
            <stop stop-color="#A5EEEC" stop-opacity="0.8"/>
            <stop offset="1" stop-color="#9CD6E9"/>
        </linearGradient>
        <linearGradient id="paint2_linear_6258_517" x1="-1.27976" y1="121.792" x2="70.0395" y2="135.667" gradientUnits="userSpaceOnUse">
            <stop stop-color="#A5EEEC" stop-opacity="0.8"/>
            <stop offset="1" stop-color="#9CD6E9"/>
        </linearGradient>
        <linearGradient id="paint3_linear_6258_517" x1="97.8051" y1="121.807" x2="177.803" y2="153.371" gradientUnits="userSpaceOnUse">
            <stop stop-color="#A5EEEC" stop-opacity="0.8"/>
            <stop offset="1" stop-color="#9CD6E9"/>
        </linearGradient>
        <linearGradient id="paint4_linear_6258_517" x1="143.103" y1="141.475" x2="140.923" y2="175.336" gradientUnits="userSpaceOnUse">
            <stop stop-color="#91B3FA"/>
            <stop offset="1" stop-color="#BDD0FB" stop-opacity="0"/>
        </linearGradient>
        <linearGradient id="paint5_linear_6258_517" x1="54.5" y1="96" x2="54.5" y2="172" gradientUnits="userSpaceOnUse">
            <stop stop-color="#6B9ED4" stop-opacity="0.83"/>
            <stop offset="1" stop-color="#8891DD"/>
        </linearGradient>
        <linearGradient id="paint6_linear_6258_517" x1="91.5" y1="87" x2="91.5" y2="172" gradientUnits="userSpaceOnUse">
            <stop stop-color="#6B9ED4" stop-opacity="0.83"/>
            <stop offset="1" stop-color="#8891DD"/>
        </linearGradient>
        <linearGradient id="paint7_linear_6258_517" x1="72.5" y1="72" x2="72.5" y2="172" gradientUnits="userSpaceOnUse">
            <stop stop-color="#6B9ED4" stop-opacity="0.83"/>
            <stop offset="1" stop-color="#8891DD"/>
        </linearGradient>
        <linearGradient id="paint8_linear_6258_517" x1="110.5" y1="57" x2="110.5" y2="172" gradientUnits="userSpaceOnUse">
            <stop stop-color="#6B9ED4" stop-opacity="0.83"/>
            <stop offset="1" stop-color="#8891DD"/>
        </linearGradient>
        <linearGradient id="paint9_linear_6258_517" x1="127.506" y1="112.302" x2="128.772" y2="166.816" gradientUnits="userSpaceOnUse">
            <stop stop-color="#3F93FF"/>
            <stop offset="1" stop-color="#4F52FF"/>
        </linearGradient>
        <linearGradient id="paint10_linear_6258_517" x1="126.298" y1="84.2235" x2="135.829" y2="202.817" gradientUnits="userSpaceOnUse">
            <stop stop-color="#37CCC8"/>
            <stop offset="0.854167" stop-color="#00FFBD" stop-opacity="0.58"/>
            <stop offset="1" stop-color="#2A5A69"/>
        </linearGradient>
        <linearGradient id="paint11_linear_6258_517" x1="99.2097" y1="125.33" x2="103.006" y2="189.475" gradientUnits="userSpaceOnUse">
            <stop stop-color="#37CCC8"/>
            <stop offset="0.807292" stop-color="#00FFBD" stop-opacity="0.73"/>
            <stop offset="1" stop-color="#3790AC"/>
        </linearGradient>
        <linearGradient id="paint12_linear_6258_517" x1="65.2293" y1="178.507" x2="76.9218" y2="120.678" gradientUnits="userSpaceOnUse">
            <stop stop-color="#3F93FF"/>
            <stop offset="1" stop-color="#4F52FF"/>
        </linearGradient>
        <linearGradient id="paint13_linear_6258_517" x1="69.4327" y1="120.87" x2="72.8197" y2="190.631" gradientUnits="userSpaceOnUse">
            <stop stop-color="#37CCC8"/>
            <stop offset="0.229167" stop-color="#3CC2A0" stop-opacity="0.73"/>
            <stop offset="1" stop-color="#317388"/>
        </linearGradient>
        <linearGradient id="paint14_linear_6258_517" x1="39.4138" y1="136.639" x2="41.2365" y2="186.012" gradientUnits="userSpaceOnUse">
            <stop stop-color="#37CCC8"/>
            <stop offset="0.854167" stop-color="#00FFBD" stop-opacity="0.79"/>
            <stop offset="1" stop-color="#3790AC"/>
        </linearGradient>
        <linearGradient id="paint15_linear_6258_517" x1="97.3907" y1="100.736" x2="123.547" y2="70.376" gradientUnits="userSpaceOnUse">
            <stop stop-color="#0000FF"/>
            <stop offset="1" stop-color="#42E8E0"/>
        </linearGradient>
        <linearGradient id="paint16_linear_6258_517" x1="138.327" y1="48.2324" x2="60.9819" y2="165.079" gradientUnits="userSpaceOnUse">
            <stop stop-color="#42E8E0"/>
            <stop offset="1" stop-color="#FEB3B1"/>
        </linearGradient>
        <linearGradient id="paint17_linear_6258_517" x1="106.714" y1="56.9091" x2="151.933" y2="80.2566" gradientUnits="userSpaceOnUse">
            <stop stop-color="white"/>
            <stop offset="1" stop-color="white" stop-opacity="0"/>
        </linearGradient>
        <linearGradient id="paint18_linear_6258_517" x1="141.632" y1="110.192" x2="161.669" y2="86.9354" gradientUnits="userSpaceOnUse">
            <stop stop-color="#5940E7"/>
            <stop offset="1" stop-color="#3F93FF"/>
        </linearGradient>
        <linearGradient id="paint19_linear_6258_517" x1="172.991" y1="69.9725" x2="113.742" y2="159.481" gradientUnits="userSpaceOnUse">
            <stop stop-color="#707AC5"/>
            <stop offset="1" stop-color="#7F8ADF"/>
        </linearGradient>
        <linearGradient id="paint20_linear_6258_517" x1="105.653" y1="142.583" x2="132.383" y2="111.542" gradientUnits="userSpaceOnUse">
            <stop stop-color="#6674EF"/>
            <stop offset="1" stop-color="#2D41E3"/>
        </linearGradient>
        <linearGradient id="paint21_linear_6258_517" x1="147.51" y1="88.9251" x2="68.4808" y2="208.376" gradientUnits="userSpaceOnUse">
            <stop stop-color="#6B9ED4"/>
            <stop offset="1" stop-color="#93D4EB"/>
        </linearGradient>
        <linearGradient id="paint22_linear_6258_517" x1="114.714" y1="97.9091" x2="159.933" y2="121.257" gradientUnits="userSpaceOnUse">
            <stop stop-color="white"/>
            <stop offset="1" stop-color="white" stop-opacity="0"/>
        </linearGradient>
    </defs>
</svg>
