<svg width="167" height="183" viewBox="0 0 167 183" fill="none" xmlns="http://www.w3.org/2000/svg">
    <g clip-path="url(#clip0_5688_5680)">
        <path opacity="0.3" d="M142.828 146.774C139.677 150.087 136.695 152.224 134.339 153.912C106.647 173.758 73.8794 167.973 66.9155 166.56C56.632 164.474 36.754 160.442 22.3824 143.561C0.639715 118.023 4.02554 77.788 20.8905 51.2281C23.9755 46.3698 40.2709 19.4055 73.3913 15.0813C93.4352 12.4645 116.8 17.7424 133.72 31.9014C169.238 61.6217 166.709 121.663 142.828 146.774Z" fill="url(#paint0_linear_5688_5680)"/>
        <path d="M4.20857 24.6987C3.91713 24.2029 4.39616 23.5867 4.89968 23.8053C10.0138 26.0245 23.1006 33.6186 27.9083 54.5799C33.9401 80.879 42.0089 87.9771 50 91.0002C50 91.0002 40.8066 91.8925 32.3252 84.8151C11.5015 67.4385 9.38889 33.5139 4.20857 24.6987Z" fill="url(#paint1_linear_5688_5680)"/>
        <path d="M9.84102 31.3167C11.2983 33.9099 12.7077 36.5335 14.0258 39.21C15.3569 41.8787 16.6121 44.5906 17.7875 47.3421C18.9532 50.0985 20.0705 52.8783 21.0771 55.7072C22.0954 58.5309 23.0003 61.3999 23.8992 64.2843C24.8126 67.1611 25.7181 70.0653 26.9007 72.8746C28.0788 75.6791 29.5857 78.3725 31.5039 80.6821C31.9829 81.2575 32.4731 81.8254 32.9898 82.3557C33.4975 82.8969 34.0278 83.4136 34.5665 83.9201C35.6487 84.9266 36.7951 85.8562 38.0005 86.6888C40.416 88.3472 43.0664 89.6022 45.799 90.456C46.0866 90.5459 46.3894 90.3649 46.4752 90.0518C46.5594 89.7443 46.4032 89.4238 46.1252 89.3273L46.1233 89.3264C45.4641 89.0982 44.8083 88.8621 44.165 88.595C43.841 88.4671 43.5233 88.3236 43.2031 88.1868C42.8882 88.0369 42.5677 87.9003 42.2574 87.7401C41.007 87.1223 39.7987 86.4089 38.6459 85.6019C36.3355 84.0019 34.2373 82.0163 32.401 79.8138C31.4941 78.7006 30.6651 77.5163 29.9238 76.2655C29.183 75.014 28.5306 73.698 27.9467 72.3395C26.7787 69.6213 25.8608 66.7552 24.9282 63.8857C23.9918 61.017 23.0327 58.1414 21.9659 55.3142C21.436 53.8992 20.8826 52.4951 20.3064 51.1026C20.0217 50.4045 19.7249 49.7126 19.4294 49.0205C19.1274 48.3315 18.8222 47.6441 18.5117 46.9601C17.2651 44.2255 15.9416 41.5343 14.5416 38.8931C13.1296 36.2595 11.6534 33.6682 10.0871 31.1437C10.0422 31.0717 9.95167 31.053 9.88465 31.1023C9.8196 31.1506 9.80097 31.2454 9.84102 31.3167Z" fill="white"/>
        <path d="M50.1374 90.1076C49.7411 91.2527 48.2815 91.6328 47.3526 90.8423C42.227 86.4793 28.8773 72.8548 29.6909 49.8566C30.378 30.4357 28.8679 19.8467 27.8421 15.0876C27.6254 14.081 28.8461 13.3839 29.6308 14.0653C38.2891 21.583 64.5003 48.6131 50.1374 90.1076Z" fill="url(#paint2_linear_5688_5680)"/>
        <path d="M48.4698 90.1561C48.4447 90.1733 48.4178 90.1881 48.3887 90.201C48.1452 90.3065 47.8614 90.1989 47.7546 89.9607C47.6339 89.6909 35.6589 62.6477 35.37 35.606C35.3676 35.346 35.5805 35.1316 35.8464 35.1278C36.1123 35.1245 36.3297 35.3325 36.3327 35.593C36.6198 62.4381 48.5166 89.3109 48.6366 89.5792C48.7298 89.7883 48.6551 90.0295 48.4698 90.1561Z" fill="white"/>
        <path d="M135.047 27.565L45.7908 27.0184C42.8577 27.0003 40.5116 29.4505 40.6568 32.3803L46.5209 153.482C46.6757 156.679 49.313 159.192 52.5139 159.192H140.408C143.608 159.192 146.245 156.68 146.401 153.483L151.638 45.8925L135.047 27.565Z" fill="url(#paint3_linear_5688_5680)"/>
        <path d="M138.758 45.3493C135.851 45.2471 133.616 42.7412 133.845 39.8407L134.802 27.7316L151.655 45.8181L138.758 45.3493Z" fill="url(#paint4_linear_5688_5680)" fill-opacity="0.6"/>
        <path d="M135.157 121.882H57.7298C55.2439 121.882 53.2376 119.935 53.1619 117.451L51.5442 64.3457C51.5061 63.0991 51.9636 61.92 52.8319 61.0249C53.7001 60.1297 54.8651 59.6365 56.1121 59.6365H135.157C137.677 59.6365 139.727 61.6868 139.727 64.2064V117.311C139.728 119.831 137.677 121.882 135.157 121.882ZM56.1121 60.1312C55 60.1312 53.9611 60.5707 53.1873 61.369C52.4129 62.1673 52.0052 63.2189 52.0394 64.3306L53.6571 117.435C53.7245 119.651 55.5138 121.386 57.7303 121.386H135.158C137.404 121.386 139.233 119.558 139.233 117.311V64.2064C139.233 61.9596 137.404 60.1312 135.158 60.1312H56.1121Z" fill="white"/>
        <path opacity="0.55" d="M128.933 44.6099H90.0398C89.9303 44.6099 89.8418 44.5215 89.8418 44.412V41.5633C89.8418 41.4538 89.9303 41.3654 90.0398 41.3654H128.933C129.042 41.3654 129.131 41.4538 129.131 41.5633V44.412C129.131 44.5215 129.042 44.6099 128.933 44.6099Z" fill="white"/>
        <path d="M90.5277 137.225C91.0012 138.223 90.5761 139.415 89.5782 139.889L40.4908 163.182C39.4928 163.656 38.3 163.23 37.8265 162.233L27.8809 141.274C27.4074 140.276 27.8325 139.083 28.8304 138.609L77.9179 115.316C78.9158 114.843 80.1086 115.268 80.5821 116.266L90.5277 137.225Z" fill="url(#paint5_linear_5688_5680)" fill-opacity="0.7"/>
        <path opacity="0.5" d="M77.3381 121.003C78.3363 121.476 79.6571 121.828 80.1307 122.826L85.0877 133.272C85.5612 134.27 85.0119 135.53 84.7571 136.604C84.625 137.161 84.6765 137.783 84.9481 138.355C84.9672 138.395 85.014 138.489 85.0158 138.488L42.477 158.674C42.4788 158.672 42.4359 158.576 42.417 158.537C41.8226 157.284 40.418 156.694 39.2675 157.24C39.2442 157.251 39.2186 157.235 39.2075 157.211L33.5616 145.313C33.0881 144.315 33.7787 143.195 34.0638 142.128C34.2482 141.438 33.9613 140.679 33.6201 139.959C33.6009 139.92 33.5805 139.92 33.5787 139.921L76.1175 119.736C76.1157 119.737 76.1177 119.745 76.1364 119.785C76.4044 120.35 76.8384 120.766 77.3381 121.003Z" fill="white"/>
        <path d="M63.7139 146.439C67.7282 143.945 68.961 138.67 66.4675 134.655C63.9739 130.641 58.6983 129.408 54.684 131.902C50.6697 134.395 49.4369 139.671 51.9305 143.685C54.424 147.7 59.6997 148.932 63.7139 146.439Z" fill="url(#paint6_linear_5688_5680)" fill-opacity="0.7"/>
        <path d="M60.8916 144.756C60.6749 144.299 60.1372 144.101 59.6522 144.243C59.0532 144.418 58.464 144.515 57.9741 144.53C57.7158 144.537 57.493 144.349 57.4479 144.095L57.2944 143.235C57.2382 142.919 57.4732 142.631 57.7931 142.616C58.505 142.583 59.3318 142.432 60.1226 142.057C60.9433 141.667 61.4233 141.099 61.1525 140.528C60.9083 140.014 60.2904 139.932 59.0042 140.167C57.1652 140.494 55.6603 140.339 54.9802 138.906C54.4728 137.837 54.7106 136.671 55.664 135.709C56.031 135.339 56.1955 134.786 55.9719 134.315C55.847 134.052 55.9592 133.738 56.2225 133.613L56.7029 133.385C56.9662 133.26 57.2802 133.372 57.4051 133.636C57.5996 134.046 58.0816 134.223 58.5149 134.088C58.9765 133.943 59.3745 133.871 59.7261 133.834C59.9985 133.805 60.2449 133.996 60.2938 134.265L60.4372 135.06C60.4924 135.366 60.2728 135.653 59.9625 135.678C59.4679 135.719 58.7965 135.835 58.0259 136.2C57.0522 136.663 56.9652 137.198 57.1371 137.56C57.3482 138.005 58.0777 138.034 59.5283 137.822C61.5941 137.507 62.7017 137.902 63.3421 139.251C63.823 140.264 63.6489 141.485 62.6663 142.511C62.263 142.932 62.0754 143.549 62.3254 144.075C62.4501 144.338 62.3381 144.652 62.0748 144.777L61.5945 145.005C61.331 145.131 61.0166 145.019 60.8916 144.756Z" fill="white"/>
        <path d="M31.2328 145.042C31.2227 145.033 31.214 145.021 31.2078 145.008L29.0214 140.401C29.0084 140.373 29.0066 140.341 29.0172 140.312C29.0279 140.283 29.0492 140.259 29.0772 140.246L42.0911 134.07C42.1492 134.042 42.2186 134.068 42.2462 134.125C42.2737 134.184 42.2487 134.253 42.1911 134.28L31.0895 139.548C30.0915 140.022 29.6664 141.215 30.14 142.212L31.4189 144.907C31.4464 144.966 31.4214 145.035 31.3638 145.062C31.318 145.084 31.2665 145.074 31.2328 145.042Z" fill="white"/>
        <path d="M76.2657 144.569C76.2556 144.56 76.2468 144.548 76.2407 144.535C76.2131 144.476 76.2381 144.407 76.2957 144.38L87.2357 139.189C88.2336 138.715 88.6588 137.522 88.1852 136.524L86.7527 133.506C86.7252 133.448 86.7502 133.378 86.8078 133.351C86.8659 133.323 86.9354 133.348 86.9629 133.406L89.3028 138.337C89.3159 138.365 89.3177 138.397 89.307 138.426C89.2964 138.455 89.2751 138.478 89.247 138.492L76.3953 144.59C76.3509 144.611 76.2993 144.601 76.2657 144.569Z" fill="white"/>
        <path d="M92.3932 141.965C92.7361 143.586 91.6999 145.178 90.0789 145.521L38.8777 156.35C37.2568 156.693 35.6648 155.657 35.3219 154.036L30.8981 133.121C30.5552 131.5 31.5914 129.908 33.2124 129.565L84.4139 118.736C86.0349 118.393 87.6269 119.43 87.9698 121.051L92.3932 141.965Z" fill="url(#paint7_linear_5688_5680)"/>
        <path opacity="0.5" d="M82.8907 123.198C83.6744 124.657 85.6726 125.758 86.0154 127.378L87.9941 136.735C88.337 138.356 87.0071 140.205 86.8556 141.856C86.8307 142.127 86.8451 142.406 86.9038 142.684C86.9283 142.799 86.8654 142.909 86.751 142.933L41.1003 152.588C40.9864 152.613 40.8782 152.538 40.8538 152.424C40.5666 151.067 39.3243 150.139 38.0783 150.402C38.037 150.411 38.0169 150.351 38.0082 150.31L35.4944 138.425C35.1515 136.804 36.7058 135.153 36.7424 133.497C36.7515 133.085 36.6802 132.65 36.5903 132.225C36.5811 132.182 36.5629 132.15 36.5606 132.15L82.6263 122.407C82.6242 122.408 82.6226 122.444 82.6318 122.487C82.686 122.743 82.7745 122.981 82.8907 123.198Z" fill="white"/>
        <path d="M66.1802 144.696C70.1945 142.202 71.4273 136.927 68.9338 132.912C66.4402 128.898 61.1646 127.665 57.1503 130.159C53.1361 132.652 51.9033 137.928 54.3968 141.942C56.8903 145.957 62.166 147.189 66.1802 144.696Z" fill="url(#paint8_linear_5688_5680)"/>
        <path d="M62.0135 143.253C61.909 142.758 61.4322 142.44 60.9273 142.466C60.3038 142.497 59.7087 142.454 59.2288 142.355C58.9757 142.302 58.803 142.068 58.8179 141.81L58.8683 140.938C58.887 140.618 59.1828 140.391 59.4974 140.452C60.1974 140.585 61.0364 140.63 61.8929 140.449C62.7819 140.261 63.3809 139.82 63.2503 139.202C63.1322 138.645 62.55 138.422 61.2449 138.351C59.3802 138.242 57.9525 137.742 57.6243 136.19C57.3794 135.032 57.8818 133.953 59.0322 133.239C59.4753 132.965 59.7639 132.465 59.6561 131.955C59.5958 131.67 59.7779 131.391 60.0627 131.331L60.5827 131.221C60.8675 131.16 61.1475 131.342 61.2074 131.627C61.3014 132.071 61.7291 132.355 62.1819 132.324C62.6646 132.292 63.0687 132.313 63.4194 132.359C63.6906 132.394 63.8864 132.637 63.8713 132.911L63.8255 133.717C63.8079 134.028 63.5275 134.256 63.2199 134.208C62.7293 134.133 62.0494 134.089 61.2147 134.266C60.1604 134.489 59.9516 134.989 60.0342 135.381C60.136 135.863 60.8391 136.061 62.299 136.193C64.3817 136.366 65.367 137.007 65.6764 138.469C65.9087 139.566 65.4554 140.713 64.2607 141.483C63.7708 141.798 63.4451 142.354 63.5657 142.925C63.626 143.209 63.4441 143.489 63.1591 143.549L62.6391 143.659C62.3537 143.72 62.0737 143.538 62.0135 143.253Z" fill="white"/>
        <path d="M33.2874 136.725C33.2797 136.714 33.2744 136.7 33.2712 136.686L32.1791 131.522C32.1661 131.459 32.2059 131.397 32.269 131.384L46.1868 128.44C46.2495 128.427 46.3117 128.467 46.3247 128.53C46.3376 128.593 46.2979 128.654 46.2347 128.668L35.3661 130.966C33.7451 131.309 32.7089 132.901 33.0518 134.522L33.4993 136.638C33.5122 136.701 33.4725 136.762 33.4093 136.776C33.3605 136.786 33.3129 136.764 33.2874 136.725Z" fill="white"/>
        <path d="M76.984 146.596C76.9762 146.585 76.971 146.571 76.9677 146.557C76.9548 146.494 76.9945 146.432 77.0577 146.419L87.9268 144.12C89.5478 143.777 90.5839 142.185 90.2411 140.564L89.7936 138.448C89.7807 138.385 89.8204 138.324 89.8836 138.31C89.9463 138.297 90.0085 138.337 90.0214 138.4L91.1138 143.564C91.1201 143.595 91.1143 143.626 91.0971 143.652C91.0803 143.678 91.0539 143.696 91.0238 143.703L77.106 146.646C77.0574 146.657 77.0094 146.635 76.984 146.596Z" fill="white"/>
        <path d="M93.0308 149.597C92.8689 151.246 91.4009 152.451 89.752 152.289L37.6687 147.175C36.0197 147.014 34.8143 145.546 34.9761 143.897L37.0648 122.622C37.2267 120.973 38.6947 119.767 40.3436 119.929L92.427 125.043C94.0759 125.205 95.2813 126.673 95.1195 128.321L93.0308 149.597Z" fill="url(#paint9_linear_5688_5680)" fill-opacity="0.7"/>
        <path opacity="0.5" d="M89.6198 128.865C89.9395 130.491 91.508 132.144 91.3461 133.793L90.412 143.309C90.2501 144.958 88.4201 146.31 87.7718 147.835C87.6654 148.085 87.5943 148.355 87.5666 148.638C87.5554 148.747 87.4563 148.827 87.3476 148.816L40.8833 144.255C40.7744 144.244 40.6981 144.147 40.7093 144.038C40.8446 142.657 39.9528 141.405 38.6856 141.281C38.6525 141.277 38.6547 141.227 38.658 141.194L39.8463 129.09C40.0083 127.441 41.9869 126.328 42.513 124.757C42.6442 124.366 42.7064 123.927 42.7488 123.495C42.7533 123.451 42.7336 123.4 42.731 123.4L89.5906 128C89.5884 128 89.5877 128.049 89.5832 128.093C89.5572 128.358 89.5712 128.618 89.6198 128.865Z" fill="white"/>
        <path d="M69.5875 143.297C73.6018 140.804 74.8346 135.528 72.341 131.514C69.8475 127.499 64.5718 126.267 60.5576 128.76C56.5433 131.254 55.3105 136.529 57.804 140.544C60.2976 144.558 65.5732 145.791 69.5875 143.297Z" fill="url(#paint10_linear_5688_5680)" fill-opacity="0.7"/>
        <path d="M38.0919 126.793C38.0781 126.772 38.0711 126.746 38.0736 126.719L38.5896 121.465C38.5925 121.435 38.6077 121.406 38.6318 121.387C38.6557 121.367 38.6862 121.358 38.7171 121.361L53.0529 122.768C53.1167 122.775 53.1633 122.832 53.1573 122.895C53.1509 122.959 53.0941 123.006 53.0303 123L41.7964 121.897C40.1474 121.735 38.6795 122.94 38.5176 124.589L38.3063 126.741C38.2999 126.805 38.2431 126.852 38.1793 126.846C38.1416 126.842 38.111 126.822 38.0919 126.793Z" fill="white"/>
        <path d="M76.9562 149.398C76.9424 149.377 76.9354 149.351 76.9379 149.323C76.9444 149.26 77.0011 149.212 77.065 149.219L88.1211 150.305C89.77 150.466 91.238 149.261 91.3999 147.612L91.6111 145.46C91.6176 145.396 91.6743 145.349 91.7382 145.356C91.802 145.362 91.8487 145.419 91.8427 145.483L91.3266 150.736C91.3238 150.766 91.3086 150.795 91.2845 150.815C91.2606 150.834 91.2301 150.843 91.1991 150.841L77.0424 149.45C77.0059 149.447 76.975 149.426 76.9562 149.398Z" fill="white"/>
        <path d="M50.0145 135.346C49.8835 136.678 48.6979 137.652 47.3653 137.521C46.0332 137.39 45.0593 136.205 45.19 134.872C45.321 133.54 46.5066 132.566 47.8392 132.697C49.1714 132.828 50.1451 134.014 50.0145 135.346Z" fill="url(#paint11_linear_5688_5680)"/>
        <path d="M85.1735 140.731C86.3105 140.025 86.6597 138.53 85.9534 137.393C85.2471 136.256 83.7529 135.907 82.6159 136.613C81.4789 137.32 81.1297 138.814 81.8359 139.951C82.5422 141.088 84.0365 141.437 85.1735 140.731Z" fill="url(#paint12_linear_5688_5680)"/>
        <g filter="url(#filter0_f_5688_5680)">
            <path d="M121.902 105.771C139.52 105.771 153.803 91.4957 153.803 73.8857C153.803 56.2757 139.52 42 121.902 42C104.283 42 90 56.2757 90 73.8857C90 91.4957 104.283 105.771 121.902 105.771Z" fill="url(#paint13_linear_5688_5680)" fill-opacity="0.6"/>
        </g>
        <g filter="url(#filter1_b_5688_5680)">
            <path d="M121.902 104.713C138.936 104.713 152.744 90.9112 152.744 73.886C152.744 56.8607 138.936 43.0591 121.902 43.0591C104.868 43.0591 91.0596 56.8607 91.0596 73.886C91.0596 90.9112 104.868 104.713 121.902 104.713Z" fill="url(#paint14_linear_5688_5680)"/>
            <path d="M152.244 73.886C152.244 90.6348 138.66 104.213 121.902 104.213C105.144 104.213 91.5596 90.6348 91.5596 73.886C91.5596 57.1371 105.144 43.5591 121.902 43.5591C138.66 43.5591 152.244 57.1371 152.244 73.886Z" stroke="url(#paint15_linear_5688_5680)"/>
        </g>
        <g filter="url(#filter2_bd_5688_5680)">
            <circle cx="122" cy="74" r="25" fill="#B9DDFF" fill-opacity="0.5" shape-rendering="crispEdges"/>
            <circle cx="122" cy="74" r="24.7" stroke="url(#paint16_linear_5688_5680)" stroke-width="0.6" shape-rendering="crispEdges"/>
        </g>
        <g filter="url(#filter3_d_5688_5680)">
            <path d="M137.752 83.4922C137.841 83.5789 137.955 83.6371 138.078 83.6593C138.2 83.6815 138.327 83.6669 138.442 83.6171C138.556 83.5674 138.653 83.4849 138.721 83.38C138.789 83.2751 138.824 83.1524 138.822 83.0275C139.586 70.4222 131.404 60.5855 120.662 61.7413C115.258 62.4503 109.794 62.5859 104.361 62.1458C104.197 62.1412 104.034 62.178 103.888 62.2526C103.742 62.3273 103.616 62.4376 103.524 62.5733C103.432 62.709 103.375 62.8658 103.359 63.0292C103.343 63.1926 103.368 63.3574 103.433 63.5084C106.154 71.2945 108.227 79.0855 114.352 83.1272C120.147 86.9494 127.936 85.6594 135.252 87.3198C135.428 87.344 135.608 87.3157 135.768 87.2386C135.929 87.1614 136.063 87.0387 136.154 86.8858C136.245 86.7329 136.289 86.5566 136.28 86.3788C136.272 86.2011 136.211 86.0296 136.106 85.8861C131.56 78.7572 124.946 75.4794 117.652 72.3677C117.397 72.2567 117.466 71.8426 117.738 71.8563C123.885 72.1795 129.38 75.4926 137.752 83.4922Z" fill="#26588C" fill-opacity="0.8" shape-rendering="crispEdges"/>
        </g>
        <path d="M138.289 82.4664C138.378 82.5531 138.492 82.6113 138.615 82.6335C138.738 82.6558 138.864 82.6411 138.979 82.5914C139.093 82.5417 139.191 82.4592 139.258 82.3542C139.326 82.2493 139.361 82.1266 139.359 82.0018C140.123 69.3965 131.941 59.5597 121.199 60.7155C115.795 61.4245 110.331 61.5601 104.898 61.1201C104.734 61.1154 104.571 61.1522 104.425 61.2269C104.279 61.3016 104.154 61.4119 104.061 61.5476C103.969 61.6833 103.912 61.84 103.896 62.0034C103.88 62.1668 103.905 62.3316 103.97 62.4826C106.691 70.2687 108.764 78.0598 114.889 82.1014C120.684 85.9236 128.473 84.6336 135.789 86.2941C135.965 86.3183 136.145 86.29 136.305 86.2128C136.466 86.1356 136.6 86.013 136.691 85.8601C136.782 85.7072 136.826 85.5309 136.817 85.3531C136.809 85.1753 136.749 85.0039 136.643 84.8604C132.097 77.7314 125.483 74.4536 118.189 71.342C117.935 71.231 118.003 70.8169 118.275 70.8306C124.422 71.1537 129.917 74.4669 138.289 82.4664Z" fill="white" fill-opacity="0.95"/>
    </g>
    <defs>
        <filter id="filter0_f_5688_5680" x="89.9" y="41.9" width="64.0032" height="63.9715" filterUnits="userSpaceOnUse" color-interpolation-filters="sRGB">
            <feFlood flood-opacity="0" result="BackgroundImageFix"/>
            <feBlend mode="normal" in="SourceGraphic" in2="BackgroundImageFix" result="shape"/>
            <feGaussianBlur stdDeviation="0.05" result="effect1_foregroundBlur_5688_5680"/>
        </filter>
        <filter id="filter1_b_5688_5680" x="90.0596" y="42.0591" width="63.6846" height="63.6538" filterUnits="userSpaceOnUse" color-interpolation-filters="sRGB">
            <feFlood flood-opacity="0" result="BackgroundImageFix"/>
            <feGaussianBlur in="BackgroundImage" stdDeviation="0.5"/>
            <feComposite in2="SourceAlpha" operator="in" result="effect1_backgroundBlur_5688_5680"/>
            <feBlend mode="normal" in="SourceGraphic" in2="effect1_backgroundBlur_5688_5680" result="shape"/>
        </filter>
        <filter id="filter2_bd_5688_5680" x="27.2289" y="-4.67006" width="205.643" height="205.643" filterUnits="userSpaceOnUse" color-interpolation-filters="sRGB">
            <feFlood flood-opacity="0" result="BackgroundImageFix"/>
            <feGaussianBlur in="BackgroundImage" stdDeviation="7"/>
            <feComposite in2="SourceAlpha" operator="in" result="effect1_backgroundBlur_5688_5680"/>
            <feColorMatrix in="SourceAlpha" type="matrix" values="0 0 0 0 0 0 0 0 0 0 0 0 0 0 0 0 0 0 127 0" result="hardAlpha"/>
            <feMorphology radius="11.6285" operator="erode" in="SourceAlpha" result="effect2_dropShadow_5688_5680"/>
            <feOffset dx="8.05051" dy="24.1515"/>
            <feGaussianBlur stdDeviation="44.7251"/>
            <feComposite in2="hardAlpha" operator="out"/>
            <feColorMatrix type="matrix" values="0 0 0 0 0.0846354 0 0 0 0 0.203125 0 0 0 0 0.3125 0 0 0 0.1 0"/>
            <feBlend mode="normal" in2="effect1_backgroundBlur_5688_5680" result="effect2_dropShadow_5688_5680"/>
            <feBlend mode="normal" in="SourceGraphic" in2="effect2_dropShadow_5688_5680" result="shape"/>
        </filter>
        <filter id="filter3_d_5688_5680" x="99.354" y="61.6489" width="43.5176" height="33.6793" filterUnits="userSpaceOnUse" color-interpolation-filters="sRGB">
            <feFlood flood-opacity="0" result="BackgroundImageFix"/>
            <feColorMatrix in="SourceAlpha" type="matrix" values="0 0 0 0 0 0 0 0 0 0 0 0 0 0 0 0 0 0 127 0" result="hardAlpha"/>
            <feOffset dy="4"/>
            <feGaussianBlur stdDeviation="2"/>
            <feComposite in2="hardAlpha" operator="out"/>
            <feColorMatrix type="matrix" values="0 0 0 0 0 0 0 0 0 0 0 0 0 0 0 0 0 0 0.25 0"/>
            <feBlend mode="normal" in2="BackgroundImageFix" result="effect1_dropShadow_5688_5680"/>
            <feBlend mode="normal" in="SourceGraphic" in2="effect1_dropShadow_5688_5680" result="shape"/>
        </filter>
        <linearGradient id="paint0_linear_5688_5680" x1="180.571" y1="213.888" x2="43.5754" y2="43.5432" gradientUnits="userSpaceOnUse">
            <stop stop-color="#D8EBFF" stop-opacity="0.86"/>
            <stop offset="1" stop-color="#D8EBFF"/>
        </linearGradient>
        <linearGradient id="paint1_linear_5688_5680" x1="4.74033" y1="55.7063" x2="49.2834" y2="54.824" gradientUnits="userSpaceOnUse">
            <stop stop-color="#A5EEEC" stop-opacity="0.8"/>
            <stop offset="1" stop-color="#9CD6E9"/>
        </linearGradient>
        <linearGradient id="paint2_linear_5688_5680" x1="24.2619" y1="46.9555" x2="59.2667" y2="49.1546" gradientUnits="userSpaceOnUse">
            <stop stop-color="#A5EEEC" stop-opacity="0.8"/>
            <stop offset="1" stop-color="#9CD6E9"/>
        </linearGradient>
        <linearGradient id="paint3_linear_5688_5680" x1="40.6504" y1="35.5545" x2="148.278" y2="135.431" gradientUnits="userSpaceOnUse">
            <stop stop-color="#37CCC8"/>
            <stop offset="1" stop-color="#54B1CE"/>
        </linearGradient>
        <linearGradient id="paint4_linear_5688_5680" x1="150.523" y1="26.6322" x2="185.161" y2="-21.5317" gradientUnits="userSpaceOnUse">
            <stop stop-color="#53D8FF"/>
            <stop offset="0.2057" stop-color="#42E8E0"/>
            <stop offset="1" stop-color="#323992"/>
        </linearGradient>
        <linearGradient id="paint5_linear_5688_5680" x1="36.5482" y1="111.473" x2="70.1019" y2="152.609" gradientUnits="userSpaceOnUse">
            <stop stop-color="#3F93FF"/>
            <stop offset="0.9964" stop-color="#323992"/>
        </linearGradient>
        <linearGradient id="paint6_linear_5688_5680" x1="57.0344" y1="133.514" x2="84.0799" y2="204.197" gradientUnits="userSpaceOnUse">
            <stop stop-color="#00FFBD"/>
            <stop offset="0.9964" stop-color="#323992"/>
        </linearGradient>
        <linearGradient id="paint7_linear_5688_5680" x1="36.1842" y1="94.5822" x2="88.6517" y2="183.11" gradientUnits="userSpaceOnUse">
            <stop stop-color="#00FFBD"/>
            <stop offset="0.9964" stop-color="#323992"/>
        </linearGradient>
        <linearGradient id="paint8_linear_5688_5680" x1="60.8752" y1="131.423" x2="70.7495" y2="206.457" gradientUnits="userSpaceOnUse">
            <stop stop-color="#00FFBD"/>
            <stop offset="0.9964" stop-color="#323992"/>
        </linearGradient>
        <linearGradient id="paint9_linear_5688_5680" x1="64.5335" y1="144.753" x2="62.2314" y2="183.45" gradientUnits="userSpaceOnUse">
            <stop stop-color="#00FFBD"/>
            <stop offset="0.9964" stop-color="#323992"/>
        </linearGradient>
        <linearGradient id="paint10_linear_5688_5680" x1="66.1295" y1="130.065" x2="52.921" y2="204.584" gradientUnits="userSpaceOnUse">
            <stop stop-color="#00FFBD"/>
            <stop offset="0.9964" stop-color="#323992"/>
        </linearGradient>
        <linearGradient id="paint11_linear_5688_5680" x1="46.6482" y1="142.223" x2="48.7142" y2="126.817" gradientUnits="userSpaceOnUse">
            <stop stop-color="#00FFBD"/>
            <stop offset="0.9964" stop-color="#323992"/>
        </linearGradient>
        <linearGradient id="paint12_linear_5688_5680" x1="82.7686" y1="147.067" x2="84.8346" y2="131.661" gradientUnits="userSpaceOnUse">
            <stop stop-color="#00FFBD"/>
            <stop offset="0.9964" stop-color="#323992"/>
        </linearGradient>
        <linearGradient id="paint13_linear_5688_5680" x1="78.2453" y1="124.532" x2="121.012" y2="74.8674" gradientUnits="userSpaceOnUse">
            <stop stop-color="#6674EF"/>
            <stop offset="1" stop-color="#2D41E3"/>
        </linearGradient>
        <linearGradient id="paint14_linear_5688_5680" x1="145.217" y1="38.6802" x2="18.7692" y2="229.802" gradientUnits="userSpaceOnUse">
            <stop stop-color="#6B9ED4" stop-opacity="0.97"/>
            <stop offset="1" stop-color="#93D4EB" stop-opacity="0.29"/>
        </linearGradient>
        <linearGradient id="paint15_linear_5688_5680" x1="86.6535" y1="48.664" x2="173.8" y2="93.6827" gradientUnits="userSpaceOnUse">
            <stop stop-color="white"/>
            <stop offset="1" stop-color="white" stop-opacity="0"/>
        </linearGradient>
        <linearGradient id="paint16_linear_5688_5680" x1="93.4286" y1="53.5455" x2="164.083" y2="90.026" gradientUnits="userSpaceOnUse">
            <stop stop-color="white"/>
            <stop offset="1" stop-color="white" stop-opacity="0"/>
        </linearGradient>
        <clipPath id="clip0_5688_5680">
            <rect width="167" height="181.898" fill="white" transform="translate(0 0.915649)"/>
        </clipPath>
    </defs>
</svg>
