<svg width="24" height="24" viewBox="0 0 24 24" fill="none" xmlns="http://www.w3.org/2000/svg">
<circle cx="12" cy="12" r="12" fill="white"/>
<path d="M12.25 8.66204C11.6393 8.66204 11.0422 8.84314 10.5344 9.18245C10.0266 9.52176 9.63081 10.004 9.39709 10.5683C9.16337 11.1325 9.10222 11.7534 9.22137 12.3524C9.34052 12.9514 9.63462 13.5017 10.0665 13.9335C10.4983 14.3654 11.0486 14.6595 11.6476 14.7786C12.2466 14.8978 12.8675 14.8366 13.4317 14.6029C13.996 14.3692 14.4782 13.9734 14.8175 13.4656C15.1569 12.9578 15.338 12.3607 15.338 11.75C15.338 10.931 15.0126 10.1456 14.4335 9.56648C13.8544 8.98738 13.069 8.66204 12.25 8.66204ZM12.25 13.2269C11.9579 13.2269 11.6724 13.1402 11.4295 12.978C11.1866 12.8157 10.9973 12.585 10.8856 12.3152C10.7738 12.0453 10.7445 11.7484 10.8015 11.4619C10.8585 11.1754 10.9992 10.9122 11.2057 10.7057C11.4122 10.4992 11.6754 10.3585 11.9619 10.3015C12.2484 10.2445 12.5453 10.2738 12.8152 10.3856C13.085 10.4973 13.3157 10.6866 13.478 10.9295C13.6402 11.1724 13.7269 11.4579 13.7269 11.75C13.7251 12.1411 13.5689 12.5158 13.2923 12.7923C13.0158 13.0689 12.6411 13.2251 12.25 13.2269ZM15.4722 4.5H9.02778C7.95954 4.5 6.93506 4.92435 6.17971 5.67971C5.42435 6.43506 5 7.45954 5 8.52778V14.9722C5 16.0405 5.42435 17.0649 6.17971 17.8203C6.93506 18.5756 7.95954 19 9.02778 19H15.4722C16.5405 19 17.5649 18.5756 18.3203 17.8203C19.0756 17.0649 19.5 16.0405 19.5 14.9722V8.52778C19.5 7.45954 19.0756 6.43506 18.3203 5.67971C17.5649 4.92435 16.5405 4.5 15.4722 4.5ZM17.8889 14.9722C17.8889 15.6132 17.6343 16.2279 17.1811 16.6811C16.7279 17.1343 16.1132 17.3889 15.4722 17.3889H9.02778C8.38684 17.3889 7.77215 17.1343 7.31894 16.6811C6.86572 16.2279 6.61111 15.6132 6.61111 14.9722V8.52778C6.61111 7.88684 6.86572 7.27215 7.31894 6.81894C7.77215 6.36572 8.38684 6.11111 9.02778 6.11111H15.4722C16.1132 6.11111 16.7279 6.36572 17.1811 6.81894C17.6343 7.27215 17.8889 7.88684 17.8889 8.52778V14.9722ZM16.8148 8.25926C16.8148 8.47169 16.7518 8.67935 16.6338 8.85598C16.5158 9.03261 16.348 9.17028 16.1518 9.25157C15.9555 9.33287 15.7395 9.35414 15.5312 9.3127C15.3228 9.27125 15.1315 9.16896 14.9813 9.01874C14.831 8.86853 14.7287 8.67715 14.6873 8.4688C14.6459 8.26045 14.6671 8.04449 14.7484 7.84823C14.8297 7.65197 14.9674 7.48422 15.144 7.3662C15.3206 7.24818 15.5283 7.18518 15.7407 7.18518C16.0256 7.18518 16.2988 7.29835 16.5002 7.49977C16.7017 7.7012 16.8148 7.9744 16.8148 8.25926Z" fill="#42C6CC"/>
</svg>
