<svg width="447" height="314" viewBox="0 0 447 314" fill="none" xmlns="http://www.w3.org/2000/svg">
    <path d="M353.822 157.308C353.822 157.308 346.228 145.376 354.285 138.736C354.285 138.736 360.112 135.117 364.676 135.791C364.676 135.791 357.503 148.222 359.544 149.644C361.584 151.092 366.674 135.117 366.674 135.117C366.674 135.117 379.527 134.592 383.503 137.238C383.503 137.238 372.017 147.023 374.289 147.822C376.561 148.621 388.887 139.086 388.887 139.086C388.887 139.086 400.646 142.356 399.552 150.917C398.458 159.479 394.23 161.826 392.442 161.476C390.654 161.102 380.368 155.56 380.053 157.308C379.737 159.03 385.774 165.22 390.192 165.819C390.192 165.819 381.231 176.154 375.825 172.584C370.419 169.015 370.208 163.947 366.843 161.826C363.477 159.679 360.511 159.479 361.836 161.501C363.162 163.523 369.346 165.869 371.113 170.163C372.88 174.456 374.521 177.427 368.799 175.954C363.098 174.506 353.99 168.79 353.885 163.049C353.822 157.308 353.822 157.308 353.822 157.308Z" fill="#91B3FA"/>
    <path d="M353.822 157.308C353.822 157.308 346.228 145.376 354.285 138.736C354.285 138.736 360.112 135.117 364.676 135.791C364.676 135.791 357.503 148.222 359.544 149.644C361.584 151.092 366.674 135.117 366.674 135.117C366.674 135.117 379.527 134.592 383.503 137.238C383.503 137.238 372.017 147.023 374.289 147.822C376.561 148.621 388.887 139.086 388.887 139.086C388.887 139.086 400.646 142.356 399.552 150.917C398.458 159.479 394.23 161.826 392.442 161.476C390.654 161.102 380.368 155.56 380.053 157.308C379.737 159.03 385.774 165.22 390.192 165.819C390.192 165.819 381.231 176.154 375.825 172.584C370.419 169.015 370.208 163.947 366.843 161.826C363.477 159.679 360.511 159.479 361.836 161.501C363.162 163.523 369.346 165.869 371.113 170.163C372.88 174.456 374.521 177.427 368.799 175.954C363.098 174.506 353.99 168.79 353.885 163.049C353.822 157.308 353.822 157.308 353.822 157.308Z" fill="url(#paint0_linear_5713_8361)"/>
    <path d="M393.726 150.743C393.726 150.743 361.521 146.874 353.822 157.308C353.822 157.308 351.95 162.799 346.839 167.542L345.955 169.938C345.955 169.938 351.908 163.348 353.948 163.074C353.927 163.074 351.508 149.27 393.726 150.743Z" fill="white"/>
    <path d="M346.818 167.542C346.818 167.542 339.561 173.108 338.509 183.941L339.75 184.166C339.75 184.166 342.548 173.083 346.776 168.989C351.046 164.896 346.818 167.542 346.818 167.542Z" fill="white"/>
    <path d="M316.569 128.751C316.569 128.751 299.741 117.569 307.587 102.392C307.587 102.392 313.876 93.0813 320.607 90.685C320.607 90.685 317.01 113.325 320.607 113.849C324.204 114.374 323.069 88.2887 323.069 88.2887C323.069 88.2887 340.801 78.1793 347.764 78.978C347.764 78.978 336.762 101.094 340.359 100.545C343.956 100.021 356.304 77.6301 356.304 77.6301C356.304 77.6301 374.478 73.6363 377.402 86.4166C380.326 99.1969 375.614 105.587 372.922 106.386C370.229 107.185 352.938 106.91 353.401 109.581C353.843 112.252 365.517 116.495 372.038 114.099C372.038 114.099 364.865 135.142 355.421 134.068C345.997 132.995 343.073 126.081 337.246 125.556C331.419 125.032 327.149 126.879 330.073 128.751C332.997 130.624 342.863 129.35 347.574 134.118C352.286 138.861 356.094 141.806 347.343 143.928C338.592 146.05 322.879 144.727 319.745 136.739C316.569 128.751 316.569 128.751 316.569 128.751Z" fill="#BDD0FB"/>
    <path d="M316.569 128.751C316.569 128.751 299.741 117.569 307.587 102.392C307.587 102.392 313.876 93.0813 320.607 90.685C320.607 90.685 317.01 113.325 320.607 113.849C324.204 114.374 323.069 88.2887 323.069 88.2887C323.069 88.2887 340.801 78.1793 347.764 78.978C347.764 78.978 336.762 101.094 340.359 100.545C343.956 100.021 356.304 77.6301 356.304 77.6301C356.304 77.6301 374.478 73.6363 377.402 86.4166C380.326 99.1969 375.614 105.587 372.922 106.386C370.229 107.185 352.938 106.91 353.401 109.581C353.843 112.252 365.517 116.495 372.038 114.099C372.038 114.099 364.865 135.142 355.421 134.068C345.997 132.995 343.073 126.081 337.246 125.556C331.419 125.032 327.149 126.879 330.073 128.751C332.997 130.624 342.863 129.35 347.574 134.118C352.286 138.861 356.094 141.806 347.343 143.928C338.592 146.05 322.879 144.727 319.745 136.739C316.569 128.751 316.569 128.751 316.569 128.751Z" fill="url(#paint1_linear_5713_8361)"/>
    <path d="M369.094 90.4104C369.094 90.4104 321.954 108.532 316.569 128.751C316.569 128.751 316.801 137.812 312.089 148.196V152.19C312.089 152.19 317.032 138.611 319.725 136.739C319.704 136.739 309.165 119.166 369.094 90.4104Z" fill="white"/>
    <path d="M227.803 134.492C227.803 134.492 247.386 124.657 240.339 106.885C240.339 106.885 234.408 95.7768 227.277 92.1823C227.277 92.1823 228.896 117.493 224.921 117.568C220.924 117.643 224.837 89.1869 224.837 89.1869C224.837 89.1869 206.431 75.5579 198.732 75.4331C198.732 75.4331 208.534 101.243 204.643 100.145C200.772 99.0467 189.519 72.7622 189.519 72.7622C189.519 72.7622 169.998 65.7729 165.497 79.352C160.995 92.9311 165.497 100.619 168.378 101.892C171.239 103.165 190.213 105.337 189.456 108.208C188.698 111.053 175.467 114.049 168.589 110.479C168.589 110.479 174.31 134.567 184.744 134.767C195.177 134.966 199.09 127.778 205.526 128.052C211.963 128.327 216.465 130.973 213.078 132.595C209.691 134.218 199.006 131.422 193.347 135.965C187.689 140.508 183.208 143.154 192.59 146.748C201.971 150.343 219.325 151.142 223.575 142.829C227.803 134.492 227.803 134.492 227.803 134.492Z" fill="#BDD0FB"/>
    <path d="M227.803 134.492C227.803 134.492 247.386 124.657 240.339 106.885C240.339 106.885 234.408 95.7768 227.277 92.1823C227.277 92.1823 228.896 117.493 224.921 117.568C220.924 117.643 224.837 89.1869 224.837 89.1869C224.837 89.1869 206.431 75.5579 198.732 75.4331C198.732 75.4331 208.534 101.243 204.643 100.145C200.772 99.0467 189.519 72.7622 189.519 72.7622C189.519 72.7622 169.998 65.7729 165.497 79.352C160.995 92.9311 165.497 100.619 168.378 101.892C171.239 103.165 190.213 105.337 189.456 108.208C188.698 111.053 175.467 114.049 168.589 110.479C168.589 110.479 174.31 134.567 184.744 134.767C195.177 134.966 199.09 127.778 205.526 128.052C211.963 128.327 216.465 130.973 213.078 132.595C209.691 134.218 199.006 131.422 193.347 135.965C187.689 140.508 183.208 143.154 192.59 146.748C201.971 150.343 219.325 151.142 223.575 142.829C227.803 134.492 227.803 134.492 227.803 134.492Z" fill="url(#paint2_linear_5713_8361)"/>
    <path d="M174.184 84.9185C174.184 84.9185 223.974 111.552 227.823 134.492C227.823 134.492 226.645 144.377 230.747 156.433L230.347 160.802C230.347 160.802 226.33 145.201 223.553 142.779C223.553 142.779 236.91 125.057 174.184 84.9185Z" fill="white" fill-opacity="0.9104"/>
    <path d="M187.624 191.579C184.153 185.663 183.775 180.147 183.775 180.147C183.775 180.147 193.346 171.985 187.708 163.398C187.708 163.398 183.354 158.256 179.126 157.332C179.126 157.332 182.618 170.786 180.472 171.41C178.327 172.034 177.506 156.084 177.506 156.084C177.506 156.084 166.147 151.366 161.982 152.44C161.982 152.44 169.934 164.97 167.725 164.945C165.516 164.92 156.724 152.34 156.724 152.34C156.724 152.34 145.449 151.391 144.418 159.379C143.387 167.392 146.606 170.886 148.289 171.136C149.971 171.41 160.447 169.838 160.342 171.485C160.215 173.133 153.379 176.677 149.298 175.754C149.298 175.754 154.873 187.96 160.531 186.537C166.189 185.114 167.557 180.671 171.091 179.872C174.603 179.074 177.296 179.872 175.634 181.22C173.972 182.593 167.893 182.618 165.306 185.913C162.719 189.183 160.573 191.28 166 191.854C171.427 192.428 180.914 190.356 182.344 185.239C182.407 185.014 182.471 184.815 182.534 184.59C182.45 185.014 182.344 185.239 182.344 185.239C183.396 185.788 185.163 188.834 186.425 191.18C186.614 191.579 186.888 192.129 187.309 192.877C187.477 193.227 187.624 193.501 187.708 193.701C190.106 199.018 190.022 208.753 190.022 208.753L191.2 208.953C192.799 198.943 187.624 191.579 187.624 191.579Z" fill="#91B3FA"/>
    <path d="M187.624 191.579C184.153 185.663 183.775 180.147 183.775 180.147C183.775 180.147 193.346 171.985 187.708 163.398C187.708 163.398 183.354 158.256 179.126 157.332C179.126 157.332 182.618 170.786 180.472 171.41C178.327 172.034 177.506 156.084 177.506 156.084C177.506 156.084 166.147 151.366 161.982 152.44C161.982 152.44 169.934 164.97 167.725 164.945C165.516 164.92 156.724 152.34 156.724 152.34C156.724 152.34 145.449 151.391 144.418 159.379C143.387 167.392 146.606 170.886 148.289 171.136C149.971 171.41 160.447 169.838 160.342 171.485C160.215 173.133 153.379 176.677 149.298 175.754C149.298 175.754 154.873 187.96 160.531 186.537C166.189 185.114 167.557 180.671 171.091 179.872C174.603 179.074 177.296 179.872 175.634 181.22C173.972 182.593 167.893 182.618 165.306 185.913C162.719 189.183 160.573 191.28 166 191.854C171.427 192.428 180.914 190.356 182.344 185.239C182.407 185.014 182.471 184.815 182.534 184.59C182.45 185.014 182.344 185.239 182.344 185.239C183.396 185.788 185.163 188.834 186.425 191.18C186.614 191.579 186.888 192.129 187.309 192.877C187.477 193.227 187.624 193.501 187.708 193.701C190.106 199.018 190.022 208.753 190.022 208.753L191.2 208.953C192.799 198.943 187.624 191.579 187.624 191.579Z" fill="url(#paint3_linear_5713_8361)"/>
    <path d="M169.156 163.023L262.994 96.3758C268.168 92.7064 274.626 92.7064 279.801 96.3758L373.638 163.048V271.706L169.156 259.55V163.023Z" fill="#54B1CE" fill-opacity="0.8"/>
    <g filter="url(#filter0_b_5713_8361)">
        <path d="M352.053 114.898H190.763C188.554 114.898 186.763 116.689 186.763 118.898V284.505C186.763 286.715 188.554 288.505 190.763 288.505H352.053C354.262 288.505 356.053 286.715 356.053 284.505V118.898C356.053 116.689 354.262 114.898 352.053 114.898Z" fill="#ECF3F9" fill-opacity="0.8"/>
        <path d="M190.763 115.398H352.053C353.986 115.398 355.553 116.965 355.553 118.898V284.505C355.553 286.438 353.986 288.005 352.053 288.005H190.763C188.83 288.005 187.263 286.438 187.263 284.505V118.898C187.263 116.965 188.83 115.398 190.763 115.398Z" stroke="url(#paint4_linear_5713_8361)"/>
    </g>
    <path d="M280.923 240.821C294.688 240.821 305.846 229.668 305.846 215.911C305.846 202.153 294.688 191 280.923 191C267.158 191 256 202.153 256 215.911C256 229.668 267.158 240.821 280.923 240.821Z" fill="url(#paint5_linear_5713_8361)"/>
    <path d="M280.923 239.994C294.231 239.994 305.019 229.212 305.019 215.911C305.019 202.61 294.231 191.827 280.923 191.827C267.616 191.827 256.828 202.61 256.828 215.911C256.828 229.212 267.616 239.994 280.923 239.994Z" fill="url(#paint6_linear_5713_8361)"/>
    <path opacity="0.6" d="M261.054 206.357C260.985 206.357 260.917 206.341 260.852 206.308C260.63 206.196 260.542 205.925 260.654 205.704C264.539 198.01 272.307 193.229 280.923 193.229C282.298 193.229 283.675 193.352 285.016 193.598C285.261 193.643 285.422 193.876 285.379 194.121C285.334 194.366 285.102 194.529 284.855 194.482C283.567 194.246 282.245 194.129 280.923 194.129C272.647 194.129 265.188 198.72 261.456 206.11C261.376 206.267 261.219 206.357 261.054 206.357Z" fill="white"/>
    <path opacity="0.78" d="M301.262 221.176C303.879 210.227 297.12 199.232 286.166 196.617C275.212 194.002 264.211 200.758 261.595 211.706C258.978 222.655 265.737 233.65 276.691 236.265C287.645 238.88 298.646 232.124 301.262 221.176Z" fill="#89E0FE"/>
    <g filter="url(#filter1_d_5713_8361)">
        <path d="M293.306 223.416C293.376 223.484 293.465 223.529 293.561 223.546C293.657 223.564 293.756 223.552 293.845 223.513C293.935 223.475 294.01 223.41 294.063 223.328C294.116 223.246 294.144 223.15 294.142 223.053C294.739 213.205 288.347 205.52 279.955 206.423C275.732 206.977 271.464 207.083 267.219 206.739C267.091 206.735 266.964 206.764 266.85 206.822C266.736 206.881 266.638 206.967 266.566 207.073C266.493 207.179 266.449 207.301 266.437 207.429C266.424 207.557 266.444 207.686 266.494 207.803C268.62 213.886 270.24 219.973 275.025 223.131C279.552 226.117 285.637 225.109 291.353 226.406C291.491 226.425 291.631 226.403 291.756 226.343C291.882 226.282 291.986 226.187 292.057 226.067C292.129 225.948 292.163 225.81 292.156 225.671C292.15 225.532 292.103 225.398 292.02 225.286C288.468 219.717 283.302 217.156 277.603 214.725C277.404 214.638 277.458 214.315 277.67 214.325C282.473 214.578 286.766 217.166 293.306 223.416Z" fill="#26588C" fill-opacity="0.8" shape-rendering="crispEdges"/>
    </g>
    <path d="M293.725 222.614C293.795 222.682 293.884 222.728 293.98 222.745C294.076 222.762 294.175 222.751 294.265 222.712C294.354 222.673 294.43 222.609 294.483 222.527C294.536 222.445 294.563 222.349 294.562 222.251C295.158 212.404 288.766 204.719 280.374 205.622C276.152 206.176 271.883 206.281 267.639 205.938C267.511 205.934 267.384 205.963 267.269 206.021C267.155 206.08 267.057 206.166 266.985 206.272C266.913 206.378 266.869 206.5 266.856 206.628C266.844 206.755 266.863 206.884 266.914 207.002C269.039 213.085 270.659 219.172 275.444 222.329C279.972 225.315 286.057 224.308 291.772 225.605C291.91 225.624 292.051 225.602 292.176 225.541C292.301 225.481 292.406 225.385 292.477 225.266C292.548 225.146 292.582 225.009 292.576 224.87C292.569 224.731 292.522 224.597 292.44 224.485C288.888 218.915 283.721 216.355 278.022 213.924C277.824 213.837 277.877 213.513 278.09 213.524C282.892 213.776 287.185 216.365 293.725 222.614Z" fill="white" fill-opacity="0.95"/>
    <path d="M240.874 230.707C263.448 230.707 281.748 212.416 281.748 189.853C281.748 167.291 263.448 149 240.874 149C218.3 149 200 167.291 200 189.853C200 212.416 218.3 230.707 240.874 230.707Z" fill="url(#paint7_linear_5713_8361)"/>
    <path d="M240.874 229.351C262.698 229.351 280.391 211.667 280.391 189.854C280.391 168.04 262.698 150.357 240.874 150.357C219.05 150.357 201.357 168.04 201.357 189.854C201.357 211.667 219.05 229.351 240.874 229.351Z" fill="url(#paint8_linear_5713_8361)"/>
    <path opacity="0.6" d="M208.288 174.185C208.176 174.185 208.063 174.159 207.957 174.105C207.594 173.921 207.449 173.478 207.632 173.114C214.004 160.496 226.744 152.656 240.874 152.656C243.128 152.656 245.386 152.858 247.586 153.26C247.988 153.334 248.252 153.716 248.181 154.118C248.107 154.52 247.728 154.787 247.322 154.71C245.209 154.324 243.041 154.131 240.874 154.131C227.3 154.131 215.068 161.66 208.948 173.78C208.816 174.037 208.558 174.185 208.288 174.185Z" fill="white"/>
    <path opacity="0.78" d="M274.231 198.488C278.521 180.533 267.436 162.5 249.472 158.212C231.507 153.923 213.466 165.003 209.175 182.958C204.885 200.914 215.969 218.946 233.934 223.235C251.898 227.523 269.94 216.444 274.231 198.488Z" fill="#89E0FE"/>
    <g filter="url(#filter2_d_5713_8361)">
        <path d="M261.182 202.162C261.297 202.273 261.442 202.347 261.599 202.376C261.757 202.404 261.919 202.386 262.066 202.322C262.213 202.258 262.337 202.153 262.424 202.018C262.511 201.884 262.556 201.726 262.553 201.567C263.532 185.416 253.049 172.813 239.285 174.294C232.361 175.202 225.361 175.376 218.4 174.812C218.19 174.806 217.981 174.853 217.794 174.949C217.607 175.045 217.446 175.186 217.328 175.36C217.209 175.534 217.137 175.734 217.116 175.944C217.096 176.153 217.128 176.364 217.21 176.558C220.697 186.534 223.354 196.516 231.201 201.694C238.626 206.591 248.605 204.939 257.979 207.066C258.205 207.097 258.435 207.061 258.64 206.962C258.846 206.863 259.017 206.706 259.134 206.51C259.251 206.314 259.307 206.088 259.296 205.86C259.285 205.633 259.208 205.413 259.073 205.229C253.248 196.095 244.775 191.895 235.429 187.909C235.103 187.767 235.19 187.236 235.539 187.254C243.415 187.668 250.456 191.912 261.182 202.162Z" fill="#26588C" fill-opacity="0.8" shape-rendering="crispEdges"/>
    </g>
    <path d="M261.87 200.848C261.985 200.959 262.13 201.033 262.287 201.062C262.445 201.09 262.607 201.071 262.754 201.008C262.901 200.944 263.025 200.838 263.112 200.704C263.199 200.569 263.244 200.412 263.241 200.252C264.22 184.102 253.737 171.499 239.973 172.979C233.049 173.888 226.049 174.062 219.088 173.498C218.878 173.492 218.669 173.539 218.482 173.635C218.295 173.73 218.134 173.872 218.016 174.045C217.897 174.219 217.825 174.42 217.804 174.63C217.784 174.839 217.816 175.05 217.898 175.244C221.385 185.219 224.042 195.202 231.889 200.38C239.314 205.277 249.293 203.624 258.667 205.752C258.893 205.783 259.123 205.747 259.328 205.648C259.534 205.549 259.705 205.392 259.822 205.196C259.939 205 259.995 204.774 259.984 204.546C259.973 204.318 259.896 204.099 259.761 203.915C253.936 194.781 245.463 190.581 236.117 186.595C235.791 186.452 235.878 185.922 236.227 185.939C244.103 186.353 251.144 190.598 261.87 200.848Z" fill="white" fill-opacity="0.95"/>
    <path d="M373.638 162.724V308H169.156V162.724L271.386 235.362L373.638 162.724Z" fill="url(#paint9_linear_5713_8361)"/>
    <path d="M373.638 162.724V308H169.156V162.724L271.386 235.362L373.638 162.724Z" fill="url(#paint10_linear_5713_8361)"/>
    <path d="M169.156 308L262.804 228.323C267.936 223.954 274.836 223.954 279.969 228.323L373.617 308H169.156Z" fill="url(#paint11_linear_5713_8361)" fill-opacity="0.52"/>
    <g filter="url(#filter3_b_5713_8361)">
        <path d="M169 313.954L262.648 234.276C267.781 229.908 274.68 229.908 279.813 234.276L373.461 313.954H169Z" fill="#B9DDFF" fill-opacity="0.6"/>
        <path d="M279.489 234.657L372.102 313.454H170.359L262.972 234.657L262.972 234.657C267.918 230.448 274.543 230.448 279.489 234.657L279.489 234.657Z" stroke="url(#paint12_linear_5713_8361)"/>
    </g>
    <g opacity="0.5">
        <path d="M264.12 32.7678L273.639 57.6782L238.539 76.5496L229.02 51.6393L251.329 54.6587L264.12 32.7678Z" fill="url(#paint13_linear_5713_8361)" fill-opacity="0.6"/>
        <path d="M229.02 51.6393L264.097 32.7678L253.601 53.7421C252.783 55.3866 251.17 56.2763 249.58 55.9258L229.02 51.6393Z" fill="url(#paint14_linear_5713_8361)"/>
    </g>
    <g opacity="0.5">
        <path d="M115.505 176L123.007 199.807L89.4681 214.631L82 190.824L102.503 195.336L115.505 176Z" fill="#00FFBD" fill-opacity="0.8"/>
        <path d="M82 190.824L115.505 176L104.676 194.651C103.827 196.141 102.3 196.826 100.84 196.383L82 190.824Z" fill="#43B698"/>
    </g>
    <g opacity="0.5">
        <path d="M446.999 104.907L440.478 133.888L399.691 120.983L406.212 92.0022L423.335 112.945L446.999 104.907Z" fill="url(#paint15_linear_5713_8361)" fill-opacity="0.8"/>
        <path d="M406.213 92.0022L447 104.907L425.839 114.043C424.177 114.767 422.305 114.193 421.148 112.595L406.213 92.0022Z" fill="url(#paint16_linear_5713_8361)"/>
    </g>
    <path d="M24.9995 272.206C23.6661 272.206 22.3894 272.173 21.1695 272.139C21.0277 272.139 20.9142 272.004 20.9142 271.836C20.9142 271.668 21.0277 271.533 21.1695 271.533C22.3894 271.567 23.6661 271.601 24.9995 271.601C25.1413 271.601 25.2548 271.735 25.2548 271.904C25.2548 272.072 25.1413 272.206 24.9995 272.206ZM28.8295 272.173C28.6876 272.173 28.5741 272.038 28.5741 271.87C28.5741 271.701 28.6876 271.567 28.8295 271.567C30.0494 271.533 31.3544 271.5 32.6594 271.466C32.8013 271.466 32.9147 271.601 32.9147 271.769C32.9147 271.937 32.8013 272.072 32.6594 272.072C31.3544 272.106 30.0494 272.139 28.8295 272.173ZM17.3396 271.937C15.9778 271.836 14.6728 271.702 13.5096 271.567C13.3678 271.533 13.2543 271.399 13.2826 271.23C13.311 271.062 13.4245 270.927 13.5663 270.961C14.7579 271.096 16.0345 271.23 17.3679 271.331C17.5098 271.331 17.6232 271.5 17.5949 271.668C17.5949 271.802 17.4814 271.937 17.3396 271.937ZM36.4894 271.87C36.3475 271.87 36.234 271.735 36.234 271.567C36.234 271.399 36.3475 271.264 36.4894 271.264C37.7093 271.197 39.0143 271.129 40.3193 271.028C40.4612 271.028 40.5746 271.163 40.5746 271.298C40.5746 271.466 40.4612 271.601 40.3477 271.634C39.0143 271.735 37.7377 271.802 36.4894 271.87ZM44.1493 271.365C44.0074 271.365 43.8939 271.23 43.8939 271.096C43.8939 270.927 43.979 270.793 44.1209 270.759C45.3692 270.658 46.6458 270.557 47.9508 270.422C48.0927 270.422 48.2062 270.523 48.2345 270.692C48.2345 270.86 48.1495 270.995 48.0076 271.028C46.7026 271.129 45.4259 271.264 44.1493 271.365ZM9.73638 270.927C9.70801 270.927 9.70803 270.927 9.67966 270.927C8.26115 270.624 7.01285 270.254 5.93479 269.85C5.79294 269.783 5.7362 269.614 5.76457 269.48C5.82131 269.311 5.96316 269.244 6.07664 269.278C7.12633 269.682 8.37461 270.018 9.76474 270.321C9.9066 270.355 9.99173 270.523 9.96336 270.658C9.96336 270.826 9.84986 270.927 9.73638 270.927ZM51.7808 270.658C51.639 270.658 51.5255 270.523 51.5255 270.389C51.5255 270.22 51.6106 270.086 51.7524 270.052C53.0007 269.917 54.2774 269.783 55.5824 269.648C55.7243 269.648 55.8377 269.749 55.8661 269.917C55.8661 270.086 55.781 270.22 55.6392 270.254C54.3341 270.389 53.0858 270.523 51.7808 270.658C51.8092 270.658 51.8092 270.658 51.7808 270.658ZM59.4124 269.85C59.2705 269.85 59.1854 269.749 59.157 269.581C59.157 269.412 59.2421 269.278 59.384 269.244C60.6323 269.109 61.9089 268.941 63.1856 268.806C63.3274 268.806 63.4409 268.907 63.4693 269.076C63.4977 269.244 63.3842 269.379 63.2423 269.412C61.994 269.547 60.7174 269.682 59.4124 269.85C59.4407 269.85 59.4407 269.85 59.4124 269.85ZM67.0439 268.907C66.9021 268.907 66.8169 268.806 66.7886 268.638C66.7602 268.47 66.8737 268.335 67.0156 268.301C68.2638 268.133 69.5405 267.965 70.8171 267.796C70.959 267.763 71.0725 267.897 71.1009 268.066C71.1292 268.234 71.0157 268.369 70.8739 268.402C69.5972 268.571 68.3489 268.739 67.0439 268.907C67.0723 268.907 67.0723 268.907 67.0439 268.907ZM2.55874 267.965C2.502 267.965 2.44526 267.931 2.41689 267.897C1.67927 267.258 1.14024 266.551 0.828174 265.743C0.601213 265.17 0.402623 264.598 0.260772 264.026C0.232402 263.857 0.289135 263.689 0.430986 263.655C0.572836 263.622 0.714714 263.689 0.743084 263.857C0.884935 264.396 1.05513 264.935 1.28209 265.507C1.56579 266.214 2.04808 266.854 2.70059 267.426C2.81407 267.527 2.84246 267.729 2.75735 267.864C2.72898 267.931 2.64385 267.965 2.55874 267.965ZM74.6755 267.897C74.562 267.897 74.4485 267.796 74.4201 267.628C74.3918 267.46 74.5053 267.325 74.6471 267.291C75.9238 267.123 77.172 266.921 78.4487 266.753C78.5905 266.719 78.704 266.854 78.7324 267.022C78.7607 267.19 78.6473 267.325 78.5054 267.359C77.2288 267.527 75.9521 267.729 74.7038 267.897C74.6755 267.897 74.6755 267.897 74.6755 267.897ZM82.2786 266.786C82.1652 266.786 82.0517 266.685 82.0233 266.517C81.995 266.349 82.1084 266.214 82.2503 266.18C83.4986 265.978 84.7752 265.81 86.0519 265.608C86.1937 265.574 86.3072 265.709 86.3356 265.877C86.3639 266.046 86.2504 266.18 86.1086 266.214C84.8319 266.416 83.5837 266.584 82.307 266.786H82.2786ZM89.8535 265.642C89.74 265.642 89.6265 265.541 89.5981 265.372C89.5698 265.204 89.6833 265.069 89.8251 265.036C91.1018 264.834 92.35 264.632 93.6267 264.43C93.7685 264.396 93.882 264.531 93.9104 264.699C93.9387 264.867 93.8253 265.002 93.6834 265.036C92.4068 265.238 91.1585 265.44 89.8818 265.642C89.8818 265.642 89.8818 265.642 89.8535 265.642ZM97.4566 264.43C97.3431 264.43 97.2297 264.329 97.2013 264.16C97.1729 263.992 97.2864 263.857 97.4283 263.824C98.7049 263.622 99.9532 263.42 101.23 263.184C101.372 263.15 101.485 263.285 101.514 263.453C101.542 263.622 101.428 263.756 101.287 263.79C100.01 263.992 98.7617 264.228 97.485 264.43C97.485 264.43 97.485 264.43 97.4566 264.43ZM105.06 263.15C104.946 263.15 104.833 263.049 104.804 262.881C104.776 262.713 104.89 262.578 105.031 262.544C106.308 262.342 107.556 262.107 108.833 261.905C108.975 261.871 109.088 262.006 109.117 262.174C109.145 262.342 109.032 262.477 108.89 262.511C107.641 262.746 106.365 262.948 105.088 263.15H105.06ZM112.635 261.837C112.521 261.837 112.408 261.736 112.379 261.568C112.351 261.4 112.464 261.265 112.606 261.231C113.883 260.996 115.131 260.794 116.408 260.558C116.55 260.524 116.663 260.659 116.692 260.827C116.72 260.996 116.606 261.13 116.465 261.164C115.216 261.4 113.94 261.602 112.663 261.837C112.663 261.837 112.663 261.837 112.635 261.837ZM120.209 260.457C120.096 260.457 119.982 260.356 119.954 260.188C119.926 260.019 120.039 259.851 120.181 259.851C121.458 259.616 122.706 259.38 123.954 259.144C124.096 259.111 124.238 259.245 124.238 259.413C124.266 259.582 124.153 259.75 124.011 259.75C122.763 259.986 121.486 260.222 120.209 260.457C120.238 260.457 120.238 260.457 120.209 260.457ZM0.260772 259.784C0.232402 259.784 0.232416 259.784 0.204046 259.784C0.0621957 259.75 -0.0229353 259.582 0.0054348 259.413C0.260765 257.966 0.828167 256.586 1.70764 255.273C1.79275 255.138 1.96298 255.138 2.07646 255.239C2.18994 255.34 2.18994 255.542 2.10483 255.677C1.25372 256.889 0.714707 258.202 0.487747 259.548C0.487747 259.683 0.374253 259.784 0.260772 259.784ZM127.784 259.077C127.671 259.077 127.557 258.976 127.529 258.808C127.501 258.639 127.614 258.471 127.727 258.471C129.004 258.235 130.252 258 131.501 257.764C131.643 257.73 131.784 257.865 131.784 258C131.813 258.168 131.699 258.336 131.586 258.336C130.338 258.572 129.061 258.808 127.813 259.043C127.813 259.077 127.813 259.077 127.784 259.077ZM135.359 257.629C135.246 257.629 135.132 257.528 135.104 257.36C135.075 257.192 135.189 257.023 135.302 257.023C136.579 256.788 137.827 256.518 139.076 256.283C139.217 256.249 139.359 256.384 139.359 256.518C139.388 256.687 139.274 256.855 139.161 256.855C137.912 257.091 136.664 257.326 135.387 257.596C135.387 257.629 135.359 257.629 135.359 257.629ZM142.934 256.148C142.82 256.148 142.707 256.047 142.679 255.879C142.65 255.71 142.735 255.542 142.877 255.542C144.154 255.306 145.402 255.037 146.65 254.801C146.792 254.768 146.934 254.869 146.934 255.037C146.962 255.205 146.877 255.374 146.735 255.374C145.487 255.609 144.239 255.879 142.962 256.114C142.962 256.148 142.934 256.148 142.934 256.148ZM150.48 254.633C150.367 254.633 150.253 254.532 150.225 254.364C150.197 254.195 150.282 254.027 150.424 254.027C151.7 253.758 152.977 253.522 154.197 253.253C154.339 253.219 154.48 253.32 154.48 253.488C154.509 253.657 154.424 253.825 154.282 253.825C153.034 254.061 151.785 254.33 150.509 254.599C150.509 254.633 150.509 254.633 150.48 254.633ZM158.055 253.118C157.942 253.118 157.828 253.017 157.8 252.882C157.771 252.714 157.857 252.546 157.998 252.546C159.275 252.276 160.552 252.007 161.772 251.771C161.913 251.738 162.055 251.839 162.055 252.007C162.084 252.175 161.999 252.344 161.857 252.344C160.637 252.613 159.36 252.849 158.083 253.118H158.055ZM4.74326 252.748C4.65815 252.748 4.57302 252.714 4.54465 252.613C4.45954 252.478 4.48793 252.276 4.60141 252.175C5.56599 251.367 6.70077 250.593 7.94905 249.886C8.06253 249.819 8.23278 249.886 8.28952 250.021C8.34626 250.155 8.28951 250.357 8.17603 250.425C6.95612 251.132 5.84969 251.906 4.88511 252.68C4.82837 252.714 4.8 252.748 4.74326 252.748ZM165.602 251.536C165.488 251.536 165.375 251.435 165.346 251.3C165.318 251.132 165.403 250.963 165.545 250.963C166.85 250.694 168.098 250.425 169.318 250.155C169.46 250.122 169.602 250.223 169.602 250.391C169.63 250.559 169.545 250.728 169.403 250.728C168.183 250.997 166.935 251.266 165.63 251.536H165.602ZM173.148 249.92C173.035 249.92 172.921 249.819 172.893 249.684C172.864 249.516 172.949 249.347 173.091 249.347C174.425 249.078 175.673 248.775 176.864 248.539C177.006 248.506 177.148 248.607 177.148 248.775C177.177 248.943 177.091 249.112 176.95 249.112C175.758 249.381 174.51 249.65 173.176 249.92C173.176 249.92 173.176 249.92 173.148 249.92ZM11.5804 248.674C11.467 248.674 11.3818 248.607 11.3535 248.472C11.2967 248.304 11.3818 248.135 11.4953 248.068C12.6301 247.563 13.85 247.092 15.1551 246.621C15.2969 246.587 15.4388 246.654 15.4671 246.823C15.4955 246.991 15.4388 247.159 15.2969 247.193C14.0203 247.664 12.8004 248.135 11.6656 248.64C11.6372 248.674 11.6088 248.674 11.5804 248.674ZM180.694 248.304C180.581 248.304 180.467 248.203 180.439 248.068C180.411 247.9 180.496 247.732 180.638 247.732C182.085 247.429 183.333 247.126 184.411 246.89C184.553 246.856 184.695 246.957 184.695 247.126C184.723 247.294 184.638 247.462 184.496 247.462C183.418 247.698 182.141 247.967 180.723 248.304C180.751 248.304 180.723 248.304 180.694 248.304ZM188.269 246.621C188.156 246.621 188.042 246.52 188.014 246.385C187.985 246.217 188.071 246.048 188.213 246.015C188.468 245.947 188.61 245.914 188.638 245.914C188.78 245.88 188.95 246.015 188.95 246.217C188.95 246.452 188.922 246.486 188.298 246.621C188.298 246.621 188.298 246.621 188.269 246.621ZM18.9283 246.048C18.8148 246.048 18.7013 245.947 18.673 245.813C18.6446 245.644 18.7297 245.476 18.8715 245.442C20.0631 245.106 21.3397 244.769 22.6164 244.432C22.7582 244.399 22.9001 244.5 22.9285 244.668C22.9568 244.836 22.8717 245.005 22.7299 245.038C21.4249 245.341 20.1766 245.678 18.985 246.048C18.9566 246.048 18.9567 246.048 18.9283 246.048ZM26.4464 244.23C26.3329 244.23 26.2194 244.129 26.191 243.995C26.1627 243.826 26.2477 243.658 26.3896 243.658C27.6095 243.422 28.8862 243.153 30.1912 242.951C30.333 242.917 30.4465 243.052 30.4749 243.22C30.5033 243.389 30.3898 243.523 30.248 243.557C28.9429 243.793 27.6946 244.028 26.4747 244.264C26.4747 244.23 26.4464 244.23 26.4464 244.23ZM34.0495 242.917C33.936 242.917 33.8226 242.816 33.7942 242.648C33.7658 242.48 33.8793 242.345 34.0212 242.311C35.2694 242.143 36.5745 241.975 37.8511 241.806C37.993 241.806 38.1064 241.907 38.1348 242.076C38.1348 242.244 38.0497 242.379 37.9079 242.412C36.6312 242.547 35.3546 242.715 34.1063 242.917C34.0495 242.917 34.0495 242.917 34.0495 242.917ZM41.6811 242.008C41.5392 242.008 41.4257 241.874 41.4257 241.739C41.4257 241.571 41.5109 241.436 41.6527 241.402C44.0358 241.2 45.511 241.099 45.511 241.099C45.6529 241.099 45.7664 241.234 45.7664 241.402C45.7664 241.571 45.6529 241.705 45.511 241.705C45.5394 241.705 44.0642 241.806 41.6811 242.008Z" fill="#00FFBD"/>
    <path d="M196.809 262.545L228.243 241.403L199.561 243.423L201.774 249.179L195.845 256.956L196.809 262.545Z" fill="#00FFBD"/>
    <path d="M228.242 241.403L195.305 248.573L171.304 268.369L228.242 241.403Z" fill="white"/>
    <path d="M199.562 243.423L228.244 241.403L198.257 231L199.562 243.423Z" fill="white"/>
    <path d="M313.414 23.3387L349.776 29.9085L325.843 10.6614L324.542 16.6699L315.669 18.3536L313.414 23.3387Z" fill="#00FFBD" fill-opacity="0.8"/>
    <path d="M349.775 29.9078L319.685 11.519L290 9.30713L349.775 29.9078Z" fill="#89E0FE"/>
    <path d="M325.842 10.661L349.775 29.9081L331.449 0.162598L325.842 10.661Z" fill="#89E0FE"/>
    <defs>
        <filter id="filter0_b_5713_8361" x="174.763" y="102.898" width="193.291" height="197.608" filterUnits="userSpaceOnUse" color-interpolation-filters="sRGB">
            <feFlood flood-opacity="0" result="BackgroundImageFix"/>
            <feGaussianBlur in="BackgroundImage" stdDeviation="6"/>
            <feComposite in2="SourceAlpha" operator="in" result="effect1_backgroundBlur_5713_8361"/>
            <feBlend mode="normal" in="SourceGraphic" in2="effect1_backgroundBlur_5713_8361" result="shape"/>
        </filter>
        <filter id="filter1_d_5713_8361" x="262.433" y="206.351" width="35.748" height="28.0618" filterUnits="userSpaceOnUse" color-interpolation-filters="sRGB">
            <feFlood flood-opacity="0" result="BackgroundImageFix"/>
            <feColorMatrix in="SourceAlpha" type="matrix" values="0 0 0 0 0 0 0 0 0 0 0 0 0 0 0 0 0 0 127 0" result="hardAlpha"/>
            <feOffset dy="4"/>
            <feGaussianBlur stdDeviation="2"/>
            <feComposite in2="hardAlpha" operator="out"/>
            <feColorMatrix type="matrix" values="0 0 0 0 0 0 0 0 0 0 0 0 0 0 0 0 0 0 0.25 0"/>
            <feBlend mode="normal" in2="BackgroundImageFix" result="effect1_dropShadow_5713_8361"/>
            <feBlend mode="normal" in="SourceGraphic" in2="effect1_dropShadow_5713_8361" result="shape"/>
        </filter>
        <filter id="filter2_d_5713_8361" x="213.11" y="174.175" width="53.5063" height="40.9016" filterUnits="userSpaceOnUse" color-interpolation-filters="sRGB">
            <feFlood flood-opacity="0" result="BackgroundImageFix"/>
            <feColorMatrix in="SourceAlpha" type="matrix" values="0 0 0 0 0 0 0 0 0 0 0 0 0 0 0 0 0 0 127 0" result="hardAlpha"/>
            <feOffset dy="4"/>
            <feGaussianBlur stdDeviation="2"/>
            <feComposite in2="hardAlpha" operator="out"/>
            <feColorMatrix type="matrix" values="0 0 0 0 0 0 0 0 0 0 0 0 0 0 0 0 0 0 0.25 0"/>
            <feBlend mode="normal" in2="BackgroundImageFix" result="effect1_dropShadow_5713_8361"/>
            <feBlend mode="normal" in="SourceGraphic" in2="effect1_dropShadow_5713_8361" result="shape"/>
        </filter>
        <filter id="filter3_b_5713_8361" x="159" y="221" width="224.461" height="102.954" filterUnits="userSpaceOnUse" color-interpolation-filters="sRGB">
            <feFlood flood-opacity="0" result="BackgroundImageFix"/>
            <feGaussianBlur in="BackgroundImage" stdDeviation="5"/>
            <feComposite in2="SourceAlpha" operator="in" result="effect1_backgroundBlur_5713_8361"/>
            <feBlend mode="normal" in="SourceGraphic" in2="effect1_backgroundBlur_5713_8361" result="shape"/>
        </filter>
        <linearGradient id="paint0_linear_5713_8361" x1="340.781" y1="152.16" x2="395.185" y2="183.936" gradientUnits="userSpaceOnUse">
            <stop stop-color="#A5EEEC" stop-opacity="0.8"/>
            <stop offset="1" stop-color="#9CD6E9"/>
        </linearGradient>
        <linearGradient id="paint1_linear_5713_8361" x1="290.952" y1="105.111" x2="375.683" y2="149.838" gradientUnits="userSpaceOnUse">
            <stop stop-color="#A5EEEC" stop-opacity="0.8"/>
            <stop offset="1" stop-color="#9CD6E9"/>
        </linearGradient>
        <linearGradient id="paint2_linear_5713_8361" x1="147.949" y1="103.415" x2="241.797" y2="149.479" gradientUnits="userSpaceOnUse">
            <stop stop-color="#A5EEEC" stop-opacity="0.8"/>
            <stop offset="1" stop-color="#9CD6E9"/>
        </linearGradient>
        <linearGradient id="paint3_linear_5713_8361" x1="134.771" y1="175.748" x2="194.996" y2="200.442" gradientUnits="userSpaceOnUse">
            <stop stop-color="#A5EEEC" stop-opacity="0.8"/>
            <stop offset="1" stop-color="#9CD6E9"/>
        </linearGradient>
        <linearGradient id="paint4_linear_5713_8361" x1="174.671" y1="130.68" x2="416.39" y2="252.383" gradientUnits="userSpaceOnUse">
            <stop stop-color="white"/>
            <stop offset="1" stop-color="white" stop-opacity="0"/>
        </linearGradient>
        <linearGradient id="paint5_linear_5713_8361" x1="246.817" y1="255.478" x2="280.228" y2="216.678" gradientUnits="userSpaceOnUse">
            <stop stop-color="#6674EF"/>
            <stop offset="1" stop-color="#2D41E3"/>
        </linearGradient>
        <linearGradient id="paint6_linear_5713_8361" x1="299.138" y1="188.406" x2="200.351" y2="337.72" gradientUnits="userSpaceOnUse">
            <stop stop-color="#6B9ED4"/>
            <stop offset="1" stop-color="#93D4EB"/>
        </linearGradient>
        <linearGradient id="paint7_linear_5713_8361" x1="184.939" y1="254.744" x2="239.734" y2="191.111" gradientUnits="userSpaceOnUse">
            <stop stop-color="#6674EF"/>
            <stop offset="1" stop-color="#2D41E3"/>
        </linearGradient>
        <linearGradient id="paint8_linear_5713_8361" x1="270.746" y1="144.747" x2="108.736" y2="389.621" gradientUnits="userSpaceOnUse">
            <stop stop-color="#6B9ED4"/>
            <stop offset="1" stop-color="#93D4EB"/>
        </linearGradient>
        <linearGradient id="paint9_linear_5713_8361" x1="66.9147" y1="235.362" x2="204.097" y2="428.452" gradientUnits="userSpaceOnUse">
            <stop stop-color="#37CCC8" stop-opacity="0.37"/>
            <stop offset="0.223958" stop-color="#37CCC8" stop-opacity="0.47"/>
            <stop offset="0.494792" stop-color="#37CCC8" stop-opacity="0.92"/>
            <stop offset="0.9375" stop-color="#37CCC8"/>
        </linearGradient>
        <linearGradient id="paint10_linear_5713_8361" x1="66.9147" y1="235.362" x2="204.097" y2="428.452" gradientUnits="userSpaceOnUse">
            <stop offset="0.202078" stop-color="#37CCC8"/>
            <stop offset="0.432858" stop-color="#37CCC8" stop-opacity="0.92"/>
            <stop offset="0.697917" stop-color="#37CCC8" stop-opacity="0.47"/>
            <stop offset="1" stop-color="#37CCC8" stop-opacity="0.37"/>
        </linearGradient>
        <linearGradient id="paint11_linear_5713_8361" x1="169.156" y1="230.404" x2="212.984" y2="349.787" gradientUnits="userSpaceOnUse">
            <stop stop-color="#37CCC8"/>
            <stop offset="1" stop-color="#54B1CE"/>
        </linearGradient>
        <linearGradient id="paint12_linear_5713_8361" x1="154.396" y1="238.541" x2="294.092" y2="416.322" gradientUnits="userSpaceOnUse">
            <stop stop-color="white"/>
            <stop offset="1" stop-color="white" stop-opacity="0"/>
        </linearGradient>
        <linearGradient id="paint13_linear_5713_8361" x1="229.02" y1="35.5954" x2="264.519" y2="75.577" gradientUnits="userSpaceOnUse">
            <stop stop-color="#37CCC8"/>
            <stop offset="1" stop-color="#54B1CE"/>
        </linearGradient>
        <linearGradient id="paint14_linear_5713_8361" x1="247.764" y1="40.5186" x2="258.803" y2="59.7905" gradientUnits="userSpaceOnUse">
            <stop stop-color="#3FB3AE"/>
            <stop offset="1" stop-color="#00D4BB" stop-opacity="0.5"/>
        </linearGradient>
        <linearGradient id="paint15_linear_5713_8361" x1="399.691" y1="94.7073" x2="433.07" y2="136.37" gradientUnits="userSpaceOnUse">
            <stop stop-color="#37CCC8"/>
            <stop offset="1" stop-color="#54B1CE"/>
        </linearGradient>
        <linearGradient id="paint16_linear_5713_8361" x1="406.213" y1="93.4456" x2="420.74" y2="122.743" gradientUnits="userSpaceOnUse">
            <stop stop-color="#37CCC8"/>
            <stop offset="1" stop-color="#54B1CE"/>
        </linearGradient>
    </defs>
</svg>
