<svg width="420" height="306" viewBox="0 0 420 306" fill="none" xmlns="http://www.w3.org/2000/svg">
<path d="M238.276 42.9118C237.904 43.1373 237.531 43.3627 237.159 43.5881C231.576 46.9588 225.888 50.4238 221.611 54.6804C226.126 53.5586 233.472 50.9375 241.492 47.483C243.431 46.6495 245.278 45.816 247.04 44.9982C248.908 42.634 250.545 40.165 251.928 37.6226C247.995 38.9488 243.269 40.7678 238.276 42.9118Z" fill="#C8E8E2"/>
<path d="M237.159 43.5883C237.531 43.3629 237.903 43.1375 238.276 42.9121C238.198 42.9488 238.114 42.9803 238.037 43.0117C225.501 48.4111 216.112 53.7947 217.067 55.0266C217.411 55.4722 219.068 55.3097 221.611 54.6754C225.88 50.4241 231.576 46.9538 237.159 43.5883Z" fill="#EEFFFF"/>
<path d="M262.455 35.4683C261.886 34.7344 257.785 35.6412 251.928 37.6228C250.544 40.1652 248.908 42.6342 247.04 44.9984C256.668 40.5164 263.263 36.5114 262.455 35.4683Z" fill="#A5DBD5"/>
<path d="M259.632 0C258.087 0 256.781 5.74011 256.338 13.6609C257.673 9.78178 259.302 5.95504 261.233 2.21741C260.749 0.802041 260.208 0 259.632 0Z" fill="#EEFFFF"/>
<path d="M256.338 13.6559C256.233 15.5169 256.177 17.4984 256.177 19.5586C256.177 23.4167 256.373 27.0128 256.718 30.048C259.183 27.2487 261.31 24.2869 263.073 21.2098C263.08 20.6646 263.087 20.1142 263.087 19.5586C263.087 12.0152 262.336 5.47824 261.226 2.2124C259.295 5.95003 257.673 9.77677 256.338 13.6559Z" fill="#C8E8E2"/>
<path d="M259.632 39.1218C261.444 39.1218 262.925 31.2429 263.073 21.2095C261.31 24.2866 259.175 27.2484 256.717 30.0477C257.328 35.4995 258.403 39.1218 259.632 39.1218Z" fill="#A5DBD5"/>
<path d="M256.802 35.4684C255.994 36.5115 262.602 40.527 272.238 45.0038C269.674 42.7182 267.659 40.0919 266.331 37.2821C261.008 35.5365 257.342 34.7764 256.802 35.4684Z" fill="#A5DBD5"/>
<path d="M299.753 52.4264C295.757 52.374 291.768 52.07 287.835 51.5195C295.687 54.4237 301.516 55.9177 302.197 55.0317C302.527 54.6019 301.593 53.674 299.753 52.4264Z" fill="#EEFFFF"/>
<path d="M281.227 43.0167C275.714 40.6421 270.517 38.6605 266.338 37.2871C267.666 40.0969 269.681 42.7232 272.245 45.0087C274 45.8265 275.84 46.6548 277.771 47.4883C281.318 49.019 284.731 50.3767 287.835 51.5247C291.768 52.0751 295.75 52.3792 299.753 52.4316C296.255 50.0621 289.429 46.5499 281.227 43.0167Z" fill="#C8E8E2"/>
<path d="M260.573 48.1385C259.288 46.6393 257.932 45.1715 256.5 43.7456L252.567 96.1615C252.567 97.1103 255.727 97.8809 259.625 97.8809C259.976 97.8809 260.32 97.8704 260.657 97.8599C262.097 82.5215 261.345 61.6894 260.573 48.1385Z" fill="#70BEF2"/>
<path d="M259.716 35.3633H257.138L256.506 43.7454C257.939 45.1713 259.294 46.6391 260.58 48.1383C260.221 41.9631 259.87 37.3029 259.716 35.3633Z" fill="#00D4BB"/>
<path d="M263.34 51.5562L262.125 35.3633H259.709C259.863 37.3029 260.222 41.9683 260.573 48.1383C261.535 49.2601 262.469 50.3977 263.34 51.5562Z" fill="url(#paint0_linear_5718_9225)"/>
<path d="M260.573 48.1382C261.345 61.689 262.097 82.5212 260.657 97.8596C264.063 97.7391 266.683 97.0261 266.683 96.1612L263.34 51.556C262.469 50.3975 261.535 49.26 260.573 48.1382Z" fill="#0088DB"/>
<path d="M260.573 48.1382C261.345 61.689 262.097 82.5212 260.657 97.8596C264.063 97.7391 266.683 97.0261 266.683 96.1612L263.34 51.556C262.469 50.3975 261.535 49.26 260.573 48.1382Z" fill="url(#paint1_linear_5718_9225)"/>
<path d="M264.239 36.6839C264.239 38.5816 262.174 40.1228 259.632 40.1228C257.09 40.1228 255.025 38.5816 255.025 36.6839C255.025 34.7863 257.09 33.2451 259.632 33.2451C262.174 33.2451 264.239 34.7863 264.239 36.6839Z" fill="#EEFFFF"/>
<path d="M262.82 36.889C262.82 38.0109 261.605 38.9178 260.103 38.9178C258.6 38.9178 257.385 38.0109 257.385 36.889C257.385 35.7672 258.6 34.8604 260.103 34.8604C261.605 34.8604 262.82 35.7672 262.82 36.889Z" fill="#A5DBD5"/>
<path d="M262.35 36.6845C262.35 37.8063 261.135 38.7132 259.632 38.7132C258.129 38.7132 256.914 37.8063 256.914 36.6845C256.914 35.5626 258.129 34.6558 259.632 34.6558C261.135 34.6558 262.35 35.5626 262.35 36.6845Z" fill="#C8E8E2"/>
<path d="M280.904 48.031C280.532 48.2564 280.16 48.4818 279.788 48.7072C274.205 52.0779 268.516 55.5429 264.239 59.7995C268.755 58.6777 276.101 56.0567 284.121 52.6021C286.059 51.7686 287.906 50.9351 289.669 50.1173C291.537 47.7532 293.173 45.2841 294.557 42.7417C290.624 44.068 285.905 45.887 280.904 48.031Z" fill="#C8E8E2"/>
<path d="M279.787 48.708C280.16 48.4826 280.532 48.2571 280.904 48.0317C280.827 48.0684 280.743 48.0999 280.665 48.1313C268.13 53.5307 258.74 58.9144 259.695 60.1463C260.039 60.5918 261.697 60.4293 264.239 59.795C268.516 55.5437 274.204 52.0734 279.787 48.708Z" fill="#EEFFFF"/>
<path d="M305.09 40.5879C304.521 39.854 300.42 40.7609 294.563 42.7424C293.18 45.2848 291.543 47.7539 289.675 50.118C299.297 45.636 305.898 41.6311 305.09 40.5879Z" fill="#A5DBD5"/>
<path d="M302.26 5.11914C300.715 5.11914 299.409 10.8593 298.967 18.7801C300.301 14.9009 301.93 11.0742 303.862 7.33655C303.384 5.92118 302.836 5.11914 302.26 5.11914Z" fill="#EEFFFF"/>
<path d="M298.967 18.7751C298.861 20.636 298.805 22.6175 298.805 24.6777C298.805 28.5359 299.002 32.132 299.346 35.1672C301.811 32.3679 303.939 29.4061 305.702 26.329C305.709 25.7838 305.716 25.2334 305.716 24.6777C305.716 17.1343 304.964 10.5974 303.855 7.33154C301.93 11.0692 300.301 14.8959 298.967 18.7751Z" fill="#C8E8E2"/>
<path d="M302.26 44.2409C304.072 44.2409 305.554 36.362 305.701 26.3286C303.939 29.4057 301.804 32.3675 299.346 35.1668C299.957 40.6186 301.038 44.2409 302.26 44.2409Z" fill="#A5DBD5"/>
<path d="M299.437 40.5875C298.63 41.6307 305.238 45.6461 314.873 50.1229C312.31 47.8374 310.295 45.211 308.967 42.4013C303.644 40.6557 299.971 39.8955 299.437 40.5875Z" fill="#A5DBD5"/>
<path d="M342.382 57.5456C338.386 57.4931 334.397 57.1891 330.464 56.6387C338.315 59.5428 344.144 61.0368 344.825 60.1509C345.156 59.721 344.229 58.7932 342.382 57.5456Z" fill="#EEFFFF"/>
<path d="M323.856 48.1364C318.343 45.7617 313.146 43.7802 308.967 42.4067C310.295 45.2165 312.31 47.8428 314.873 50.1284C316.629 50.9461 318.469 51.7744 320.4 52.6079C323.947 54.1386 327.36 55.4963 330.464 56.6443C334.397 57.1947 338.386 57.4988 342.382 57.5512C338.891 55.1818 332.058 51.6695 323.856 48.1364Z" fill="#C8E8E2"/>
<path d="M303.209 53.2576C301.923 51.7584 300.568 50.2906 299.135 48.8647L295.203 101.281C295.203 102.229 298.363 103 302.261 103C302.612 103 302.956 102.99 303.293 102.979C304.733 87.6407 303.981 66.8085 303.209 53.2576Z" fill="#70BEF2"/>
<path d="M302.345 40.4824H299.767L299.135 48.8646C300.568 50.2904 301.923 51.7582 303.208 53.2575C302.857 47.0822 302.499 42.422 302.345 40.4824Z" fill="#00D4BB"/>
<path d="M305.975 56.6753L304.761 40.4824H302.345C302.499 42.422 302.857 47.0875 303.209 53.2575C304.171 54.3793 305.098 55.5168 305.975 56.6753Z" fill="url(#paint2_linear_5718_9225)"/>
<path d="M303.208 53.2573C303.981 66.8082 304.732 87.6403 303.293 102.979C306.699 102.858 309.318 102.145 309.318 101.28L305.975 56.6752C305.098 55.5167 304.171 54.3791 303.208 53.2573Z" fill="#0088DB"/>
<path d="M303.208 53.2573C303.981 66.8082 304.732 87.6403 303.293 102.979C306.699 102.858 309.318 102.145 309.318 101.28L305.975 56.6752C305.098 55.5167 304.171 54.3791 303.208 53.2573Z" fill="url(#paint3_linear_5718_9225)"/>
<path d="M306.867 41.8036C306.867 43.7012 304.803 45.2424 302.26 45.2424C299.718 45.2424 297.653 43.7012 297.653 41.8036C297.653 39.9059 299.718 38.3647 302.26 38.3647C304.81 38.3647 306.867 39.9059 306.867 41.8036Z" fill="#EEFFFF"/>
<path d="M305.449 42.0082C305.449 43.13 304.234 44.0369 302.731 44.0369C301.228 44.0369 300.013 43.13 300.013 42.0082C300.013 40.8864 301.228 39.9795 302.731 39.9795C304.234 39.9743 305.449 40.8864 305.449 42.0082Z" fill="#A5DBD5"/>
<path d="M304.985 41.8036C304.985 42.9254 303.77 43.8323 302.268 43.8323C300.765 43.8323 299.55 42.9254 299.55 41.8036C299.55 40.6818 300.765 39.7749 302.268 39.7749C303.77 39.7749 304.985 40.6818 304.985 41.8036Z" fill="#C8E8E2"/>
<g opacity="0.8">
<path opacity="0.8" d="M339.838 145.311C341.292 145.311 342.69 145.546 344 145.972C343.306 144.485 342.915 142.83 342.915 141.08C342.915 134.681 348.114 129.493 354.526 129.493C356.941 129.493 359.187 130.231 361.045 131.49C363.51 125.342 369.53 121 376.571 121C384.698 121 391.468 126.787 392.974 134.457C395.057 133.696 397.306 133.279 399.653 133.279C410.381 133.279 419.078 141.958 419.078 152.663C419.078 163.368 410.381 172.046 399.653 172.046H339.838C332.438 172.046 326.44 166.061 326.44 158.677C326.44 151.297 332.438 145.311 339.838 145.311Z" fill="url(#paint4_linear_5718_9225)"/>
<path opacity="0.8" d="M385.956 167.785C396.684 167.785 405.38 159.107 405.38 148.402C405.38 144.902 404.445 141.623 402.822 138.787C408.669 142.127 412.61 148.408 412.61 155.617C412.61 166.322 403.914 175 393.186 175H333.374C327.796 175 323.018 171.601 321 166.764C322.584 167.421 324.322 167.785 326.144 167.785H385.956Z" fill="url(#paint5_linear_5718_9225)"/>
</g>
<g filter="url(#filter0_b_5718_9225)">
<path d="M223.758 299.125C293.602 296.073 347.916 241.431 345.072 177.079C342.229 112.728 283.305 63.035 213.461 66.0874C143.618 69.1398 89.3041 123.782 92.1475 188.133C94.9909 252.485 153.915 302.178 223.758 299.125Z" fill="url(#paint6_linear_5718_9225)"/>
<path d="M223.758 299.125C293.602 296.073 347.916 241.431 345.072 177.079C342.229 112.728 283.305 63.035 213.461 66.0874C143.618 69.1398 89.3041 123.782 92.1475 188.133C94.9909 252.485 153.915 302.178 223.758 299.125Z" fill="url(#paint7_linear_5718_9225)"/>
<path d="M344.573 177.101C347.402 241.139 293.343 295.584 223.736 298.626C154.13 301.668 95.4765 252.149 92.647 188.111C89.8174 124.073 143.877 69.6289 213.484 66.5869C283.09 63.5448 341.743 113.063 344.573 177.101Z" stroke="url(#paint8_linear_5718_9225)"/>
</g>
<path d="M121.416 172.586L121.416 172.586C121.739 173.238 122.039 174.006 122.096 174.776C122.155 175.565 121.958 176.373 121.275 177.027C120.534 177.735 119.625 177.994 118.665 178.014C117.72 178.034 116.692 177.823 115.669 177.564C115.295 177.47 114.923 177.37 114.553 177.27C113.885 177.09 113.22 176.911 112.543 176.766C111.503 176.543 110.508 176.419 109.585 176.519C106.471 176.855 105.054 179.638 104.422 182.2C102.041 191.848 101.871 201.803 103.92 211.494C105.039 216.783 106.94 222.116 111.506 226.081L111.178 226.459L111.506 226.081C112.229 226.709 113.007 227.263 113.967 227.437L113.877 227.929L113.967 227.437C115.419 227.702 116.573 227.099 117.373 226.106C118.187 225.097 118.605 223.714 118.54 222.543C118.53 222.367 118.518 222.185 118.506 221.998C118.434 220.86 118.352 219.562 118.57 218.385C118.833 216.972 119.537 215.671 121.187 214.918C121.187 214.918 121.187 214.918 121.187 214.918L121.395 215.372C123.883 214.236 126.701 215.342 129.453 216.422C130.285 216.748 131.11 217.072 131.918 217.331L132.071 216.855C135.665 218.007 139.687 217.644 143.193 216.289C146.704 214.933 149.632 212.606 151.078 209.907C153.979 204.492 152.15 198.11 148.183 192.882C146.205 190.276 143.09 187.341 140.099 184.761C137.829 182.802 135.652 181.066 134.121 179.845C133.638 179.459 133.218 179.125 132.881 178.851C132.428 178.484 132.194 178.016 132.227 177.481C132.257 176.985 132.511 176.509 132.842 176.075C133.506 175.207 134.666 174.272 135.919 173.345C136.459 172.945 137.015 172.549 137.569 172.153C138.336 171.605 139.101 171.058 139.821 170.508C141.058 169.561 142.048 168.685 142.538 167.922C143.04 167.141 143.35 166.511 143.512 166.006C143.675 165.5 143.68 165.152 143.615 164.912C143.498 164.478 143.068 164.157 142.121 163.962C141.196 163.77 139.986 163.743 138.651 163.72L138.554 163.718C137.271 163.695 135.892 163.671 134.665 163.477L134.665 163.477C133.878 163.353 133.014 163.259 132.12 163.163C131.914 163.14 131.705 163.118 131.496 163.095C130.39 162.972 129.261 162.834 128.244 162.617C127.233 162.401 126.285 162.099 125.567 161.624C124.83 161.137 124.31 160.45 124.241 159.502L124.241 159.501C124.182 158.691 124.541 157.981 125.001 157.385C125.46 156.791 126.07 156.246 126.608 155.768L126.608 155.768C131.062 151.805 135.29 145.666 137.975 139.99C139.316 137.153 140.261 134.455 140.66 132.224C140.86 131.109 140.92 130.127 140.835 129.311C140.749 128.494 140.52 127.876 140.172 127.45C139.778 126.967 139.42 126.707 139.109 126.588C138.809 126.472 138.524 126.475 138.235 126.573C137.619 126.783 136.964 127.441 136.328 128.439C135.076 130.406 134.14 133.303 133.798 134.867C133.798 134.867 133.798 134.867 133.798 134.867L133.309 134.76C133.167 135.408 133.043 136.077 132.918 136.754C132.209 140.579 131.455 144.651 127.19 146.492C124.813 147.518 122.179 146.833 119.557 146.152C116.645 145.395 113.749 144.642 111.235 146.244L121.416 172.586ZM121.416 172.586C119.726 169.184 117.09 166.067 113.739 163.494L121.416 172.586Z" fill="url(#paint9_linear_5718_9225)" stroke="url(#paint10_linear_5718_9225)"/>
<path d="M274.136 218.949L274.136 218.949C275.84 216.799 278.068 215.275 280.413 213.96C281.462 213.371 282.543 212.82 283.614 212.273C283.74 212.209 283.865 212.145 283.99 212.081C285.187 211.47 286.367 210.859 287.496 210.195C289.519 209.003 291.405 206.719 293.144 203.955C294.875 201.203 296.424 198.037 297.796 195.14C297.994 194.721 298.189 194.307 298.381 193.901C299.505 191.516 300.51 189.384 301.381 187.986C301.638 187.573 301.892 187.211 302.141 186.92C302.386 186.634 302.65 186.388 302.934 186.238C303.231 186.082 303.579 186.018 303.93 186.159C304.259 186.29 304.501 186.567 304.686 186.888C305.367 188.07 305.74 189.675 305.994 191.258C306.122 192.056 306.222 192.865 306.314 193.63C306.325 193.72 306.335 193.81 306.346 193.899C306.426 194.567 306.501 195.194 306.585 195.756C306.682 196.396 306.787 196.926 306.916 197.317C307.056 197.74 307.183 197.871 307.229 197.896C307.229 197.896 307.23 197.896 307.23 197.897C307.231 197.898 307.236 197.902 307.266 197.895C307.312 197.885 307.404 197.848 307.548 197.735C307.839 197.507 308.232 197.056 308.746 196.291C309.276 195.501 309.901 194.616 310.584 193.648C312.622 190.76 315.177 187.14 317.255 183.164C320.031 177.855 321.883 172.038 320.54 166.653L321.025 166.532L320.54 166.653C319.549 162.679 317.676 158.933 315.786 155.152C315.339 154.257 314.891 153.36 314.453 152.457C312.181 147.775 310.207 142.968 310.344 137.709C310.424 134.611 311.251 131.627 312.095 128.709C312.14 128.554 312.185 128.399 312.23 128.244C313.035 125.468 313.823 122.747 314.04 119.948C314.43 114.896 312.353 110.014 309.595 105.61C308.393 103.69 306.818 102.166 305.536 101.119C304.896 100.597 304.333 100.196 303.931 99.9269C303.73 99.7924 303.569 99.6909 303.46 99.6236C303.407 99.5903 303.365 99.5654 303.338 99.5491C303.315 99.5416 303.285 99.5315 303.247 99.5191C303.155 99.4893 303.019 99.4459 302.844 99.3929C302.493 99.2869 301.985 99.1424 301.364 98.9899C300.119 98.6844 298.426 98.3491 296.62 98.224C292.953 97.9701 289.077 98.5948 287.307 101.74C287.307 101.74 287.307 101.74 287.307 101.741L286.871 101.495C286.733 101.741 286.6 101.997 286.467 102.254C285.908 103.332 285.338 104.432 284.267 104.948L274.136 218.949ZM274.136 218.949C271.649 222.089 270.767 225.874 270.587 229.799C270.437 233.082 270.777 236.511 271.102 239.781C271.164 240.409 271.226 241.031 271.283 241.645C271.64 245.447 271.547 249.635 270.522 253.277C269.498 256.915 267.559 259.96 264.254 261.582L264.475 262.031M274.136 218.949L264.475 262.031M264.475 262.031L264.254 261.582C262.506 262.44 260.545 262.789 258.512 263.152C258.257 263.197 258.001 263.242 257.744 263.289C255.474 263.703 253.147 264.214 251.2 265.62C247.765 268.1 246.907 272.028 246.549 276.124C246.459 277.154 246.4 278.204 246.342 279.252L246.335 279.369C246.279 280.38 246.224 281.389 246.142 282.388C245.971 284.465 245.687 286.47 245.064 288.299C243.708 292.284 241.715 294.249 239.046 295.458C236.914 296.424 234.36 296.908 231.282 297.492C230.409 297.658 229.494 297.831 228.535 298.026C227.532 298.23 226.893 298.114 226.48 297.851C226.069 297.59 225.778 297.119 225.612 296.384C225.446 295.647 225.421 294.704 225.496 293.595C225.571 292.491 225.743 291.253 225.952 289.936C226.051 289.313 226.159 288.671 226.268 288.02C226.618 285.935 226.986 283.744 227.145 281.706C227.352 279.047 227.219 276.506 226.125 274.723C225.218 273.244 224.109 271.891 223.027 270.572C222.823 270.324 222.621 270.078 222.422 269.832C221.147 268.261 219.962 266.701 219.158 264.927C218.601 263.697 218.217 262.353 217.886 260.956C217.743 260.354 217.606 259.722 217.468 259.086C217.296 258.289 217.122 257.486 216.934 256.729C216.243 253.948 215.252 251.253 212.867 249.455L212.566 249.854M264.475 262.031L212.566 249.854M212.566 249.854L212.867 249.455C211.079 248.106 208.961 247.632 206.803 247.479M212.566 249.854L206.803 247.479M191.01 241.897C190.821 240.247 191.55 238.732 192.806 237.5C194.065 236.266 195.819 235.356 197.558 234.947C199.179 234.566 200.85 234.442 202.566 234.314C202.726 234.302 202.887 234.29 203.048 234.278C204.917 234.136 206.829 233.962 208.675 233.397C213.508 231.917 217.146 228.031 220.622 224.319C220.931 223.988 221.24 223.658 221.548 223.332C225.366 219.286 229.099 215.724 234.21 215.405C238.411 215.144 242.304 217.251 246.325 219.427C246.504 219.524 246.682 219.62 246.861 219.717C251.005 221.955 255.313 224.16 259.996 223.23C262.614 222.711 264.795 221.303 266.768 219.619C267.755 218.776 268.698 217.858 269.619 216.94C269.82 216.74 270.02 216.54 270.219 216.341C270.936 215.622 271.644 214.914 272.364 214.239C274.046 212.664 275.863 211.236 277.698 209.794C278.443 209.209 279.191 208.621 279.934 208.02C282.489 205.954 284.955 203.754 286.887 201.041C288.838 198.302 289.979 194.748 289.939 191.39C289.898 188.028 288.669 184.803 285.809 182.834C281.571 179.916 275.652 181.138 271.611 184.024L271.611 184.024C268.226 186.442 265.744 189.847 263.337 193.149C262.878 193.778 262.422 194.403 261.964 195.017C261.058 196.228 260.132 197.334 258.874 197.724L258.874 197.724C257.247 198.231 255.784 197.382 254.78 195.798C253.775 194.213 253.335 192.023 253.762 190.21C254.134 188.636 254.813 187.144 255.514 185.607C255.658 185.291 255.802 184.974 255.945 184.653C256.774 182.797 257.539 180.856 257.607 178.743C257.729 174.996 255.755 171.97 252.959 169.614C250.166 167.26 246.506 165.529 243.115 164.353C239.744 163.184 236.133 161.921 233.116 160.115C230.106 158.313 227.747 156.004 226.807 152.77C226.53 151.817 226.398 150.829 226.261 149.8C226.231 149.579 226.201 149.356 226.17 149.132C225.994 147.882 225.766 146.59 225.199 145.384C224.257 143.381 222.337 141.676 220.144 140.188C218.138 138.827 215.843 137.607 213.74 136.49C213.535 136.381 213.332 136.273 213.131 136.166C210.84 134.946 208.884 133.865 207.765 132.837C207.205 132.322 206.928 131.884 206.866 131.514C206.81 131.188 206.908 130.809 207.385 130.342C208.424 129.326 210.064 128.48 212.056 127.643C212.999 127.247 214.004 126.859 215.046 126.458L215.2 126.398C216.294 125.976 217.423 125.539 218.54 125.066C222.974 123.19 227.406 120.687 228.857 116.065M191.01 241.897L261.08 124.376M191.01 241.897C191.224 243.757 192.474 245.133 194.252 246.066M191.01 241.897L194.252 246.066M228.857 116.065C228.857 116.065 228.857 116.065 228.857 116.065L228.38 115.915L228.857 116.065ZM228.857 116.065C228.933 115.822 229.009 115.575 229.086 115.326C229.512 113.938 229.957 112.491 230.602 111.292C231.355 109.889 232.315 108.95 233.719 108.82L233.719 108.82C236.171 108.594 238.131 109.979 240.131 111.71C240.421 111.962 240.714 112.222 241.009 112.484C241.705 113.103 242.412 113.731 243.128 114.281C244.154 115.069 245.253 115.741 246.473 116.048L246.595 115.564M246.595 115.564L246.473 116.048C247.238 116.241 247.765 117 248.067 118.492C248.362 119.955 248.395 121.915 248.353 124.137L248.353 124.137C248.287 127.636 251.085 130.521 254.597 130.586C258.108 130.652 261.014 127.875 261.08 124.376M246.595 115.564C248.731 116.102 248.937 119.709 248.853 124.146L233.673 108.322C236.759 108.038 239.082 110.103 241.356 112.124C243.034 113.615 244.685 115.082 246.595 115.564ZM261.08 124.376C261.08 124.376 261.08 124.376 261.08 124.376L260.58 124.367L261.08 124.376ZM206.803 247.479C205.442 247.382 204.009 247.413 202.618 247.443M206.803 247.479L202.618 247.443M202.618 247.443C201.836 247.46 201.066 247.477 200.331 247.471M202.618 247.443L200.331 247.471M200.331 247.471C198.285 247.452 196.034 247 194.252 246.066M200.331 247.471L194.252 246.066" fill="url(#paint11_linear_5718_9225)" stroke="url(#paint12_linear_5718_9225)"/>
<path d="M240.006 72.8584L240.005 72.8584C236.927 72.2892 234.056 74.476 232.495 76.9323C231.712 78.1647 231.143 79.4958 230.616 80.8094C230.525 81.0361 230.435 81.2619 230.346 81.4867C229.914 82.5766 229.491 83.642 228.97 84.6617C226.176 90.1333 220.396 93.9918 214.244 94.4907L214.244 94.4908C212.882 94.6014 211.555 94.4917 210.685 93.7294L210.685 93.7293C210.055 93.1767 209.804 92.512 209.772 91.7279C209.738 90.9181 209.939 89.9987 210.218 88.9778C210.288 88.7205 210.364 88.456 210.441 88.1868C210.662 87.4157 210.894 86.6056 211.045 85.8129C211.251 84.7347 211.324 83.6174 211.013 82.5512C210.295 80.0902 208.144 79.0998 205.833 78.5107C204.935 78.2819 203.976 78.105 203.032 77.9309C202.757 77.88 202.482 77.8293 202.21 77.7776C200.996 77.5464 199.832 77.2935 198.803 76.9085L198.803 76.9085C198.536 76.8086 197.911 76.6205 197.117 76.3816C196.971 76.3379 196.821 76.2926 196.665 76.2457C195.645 75.938 194.399 75.5576 193.187 75.1528C191.971 74.7469 190.805 74.3212 189.938 73.9242C189.503 73.7246 189.163 73.5411 188.935 73.3807C188.82 73.3004 188.75 73.2368 188.711 73.1924C188.706 73.1862 188.702 73.1809 188.698 73.1766C188.669 72.8227 188.803 72.4716 189.154 72.0976C189.526 71.7004 190.113 71.3112 190.896 70.933C192.458 70.1776 194.648 69.5338 197.008 68.9301C200.951 67.9217 206.422 67.4329 211.788 67.2761C217.147 67.1195 222.363 67.2951 225.779 67.6024C227.453 67.753 229.332 67.8543 231.31 67.9608C232.047 68.0006 232.798 68.041 233.557 68.085C236.362 68.2477 239.292 68.4596 242.116 68.8624C247.776 69.6696 252.871 71.2273 255.699 74.5463C256.084 75.2815 256.042 75.7403 255.869 76.0929C255.664 76.5101 255.229 76.8834 254.608 77.3426C254.51 77.4156 254.407 77.4901 254.301 77.5669C253.238 78.3376 251.879 79.3227 251.467 81.0717C250.521 81.0886 249.687 80.7629 248.889 80.2106C247.975 79.5787 247.134 78.6677 246.255 77.6642C246.136 77.5281 246.017 77.3902 245.896 77.2514C245.141 76.3836 244.353 75.4769 243.496 74.718C242.496 73.8321 241.362 73.1097 240.006 72.8584ZM188.688 73.161C188.688 73.161 188.688 73.1615 188.688 73.1625L188.688 73.161Z" fill="url(#paint13_linear_5718_9225)" stroke="url(#paint14_linear_5718_9225)"/>
<g opacity="0.68">
<path opacity="0.68" d="M245.925 154.322C245.387 145.973 244.599 137.635 243.463 129.342L245.426 154.354M245.925 154.322L245.426 154.354M245.925 154.322C245.925 154.322 245.925 154.322 245.925 154.322L245.426 154.354M245.925 154.322C246.59 164.569 246.831 174.84 246.814 185.102M245.426 154.354C246.09 164.588 246.331 174.848 246.314 185.102M246.814 185.102C246.814 185.101 246.814 185.101 246.814 185.101L246.314 185.102M246.814 185.102C246.835 195.367 246.483 205.635 245.71 215.873L245.71 215.873C244.93 226.109 243.739 236.324 241.959 246.44L241.959 246.44C241.28 250.284 240.516 254.116 239.64 257.921M246.814 185.102C246.814 185.102 246.814 185.102 246.814 185.103L246.314 185.102M246.314 185.102L239.64 257.921M239.64 257.921C239.356 259.119 239.061 260.314 238.754 261.506C238.754 261.507 238.754 261.507 238.753 261.508C238.753 261.508 238.753 261.508 238.753 261.509C237.471 266.482 235.989 271.406 234.172 276.21C234.171 276.211 234.171 276.212 234.17 276.213C234.17 276.213 234.17 276.213 234.17 276.213C233.262 278.613 232.265 280.98 231.147 283.29C231.146 283.292 231.146 283.293 231.145 283.294C231.145 283.295 231.145 283.295 231.145 283.295C230.021 285.603 228.783 287.854 227.339 289.973L239.64 257.921ZM239.64 257.921C239.364 259.121 239.076 260.318 238.778 261.512L239.238 261.631M239.64 257.921C240.541 254.12 241.331 250.294 242.034 246.451M242.034 246.451C242.034 246.451 242.034 246.452 242.034 246.452L242.526 246.541M242.034 246.451L242.526 246.541M242.034 246.451C243.881 236.343 245.139 226.134 245.986 215.894M242.526 246.541C241.599 251.604 240.522 256.641 239.238 261.631M242.526 246.541C244.376 236.414 245.636 226.188 246.484 215.935M239.238 261.631L238.778 261.512C238.777 261.513 238.777 261.513 238.777 261.514L238.777 261.514C237.527 266.495 236.076 271.434 234.288 276.254C234.288 276.255 234.288 276.256 234.287 276.257L234.287 276.257C233.393 278.665 232.411 281.045 231.304 283.367L231.597 283.509M239.238 261.631C237.953 266.618 236.465 271.56 234.639 276.387C233.726 278.799 232.723 281.182 231.597 283.509M231.597 283.509L231.304 283.368C231.304 283.368 231.304 283.369 231.303 283.37L231.303 283.371C230.193 285.688 228.963 287.961 227.525 290.1L227.751 290.256M231.597 283.509C230.465 285.833 229.214 288.108 227.751 290.256M227.751 290.256L227.524 290.101C227.524 290.101 227.523 290.102 227.523 290.103L227.522 290.104C226.083 292.23 224.431 294.271 222.412 295.9L222.55 296.076M227.751 290.256C226.284 292.393 224.613 294.434 222.55 296.076M222.55 296.076L222.411 295.901M222.55 296.076L222.411 295.901M222.411 295.901C222.411 295.901 222.411 295.901 222.41 295.901L222.409 295.902C221.4 296.71 220.289 297.42 219.074 297.909C219.074 297.91 219.074 297.91 219.073 297.91C219.073 297.91 219.073 297.91 219.073 297.91C219.072 297.91 219.072 297.91 219.071 297.911L218.959 297.631M222.411 295.901L230.852 283.155C229.748 285.458 228.53 287.709 227.108 289.824C225.683 291.929 224.063 293.926 222.097 295.512C221.114 296.299 220.044 296.98 218.885 297.447M218.959 297.631C218.959 297.63 218.959 297.63 218.959 297.63M218.959 297.631L218.885 297.447M218.959 297.631C217.782 298.102 216.508 298.349 215.242 298.312M218.959 297.63L218.885 297.447M218.959 297.63C218.96 297.63 218.96 297.63 218.961 297.63L218.963 297.629C220.145 297.161 221.234 296.478 222.237 295.687C222.237 295.687 222.237 295.687 222.237 295.686C222.238 295.686 222.238 295.686 222.239 295.685L218.959 297.63ZM218.885 297.447C217.73 297.915 216.489 298.174 215.246 298.133C214.003 298.102 212.779 297.776 211.643 297.259L211.557 297.447C211.558 297.447 211.558 297.447 211.558 297.447C212.718 297.966 213.973 298.289 215.236 298.312L215.24 298.312M215.242 298.312L215.246 298.133L215.24 298.312M215.242 298.312L215.24 298.312M215.242 298.312L215.234 298.633C215.233 298.633 215.233 298.633 215.232 298.633L215.23 298.633M215.24 298.312L215.231 298.593L215.23 298.633C215.23 298.633 215.23 298.633 215.23 298.633M215.23 298.633C213.91 298.599 212.621 298.254 211.436 297.714L211.435 297.714C211.435 297.714 211.434 297.714 211.434 297.713L211.349 297.901L211.434 297.713L215.23 298.633ZM246.484 215.935L245.986 215.894C245.986 215.894 245.986 215.894 245.986 215.894M246.484 215.935C247.326 205.68 247.745 195.392 247.791 185.104C247.813 179.96 247.682 174.816 247.501 169.676M246.484 215.935L245.986 215.894M245.986 215.894C246.826 205.652 247.245 195.378 247.291 185.102C247.313 179.967 247.183 174.832 247.001 169.695M247.501 169.676L247.001 169.695M247.501 169.676C247.312 164.536 247.031 159.4 246.655 154.27L246.156 154.306C246.532 159.43 246.812 164.56 247.001 169.695M247.501 169.676L247.001 169.694C247.001 169.694 247.001 169.694 247.001 169.695M191.907 260.373C190.714 255.613 189.703 250.808 188.827 245.98C185.202 225.74 183.79 205.163 183.76 184.619C183.808 166.473 185.073 148.299 188.109 130.405C186.855 138.18 185.944 146.007 185.292 153.851C184.429 164.083 184.032 174.353 184.049 184.619C184.046 194.886 184.411 205.155 185.2 215.393C185.981 225.628 187.157 235.844 188.925 245.961C189.768 250.793 190.746 255.605 191.907 260.373ZM189.405 123.331C189.405 123.331 189.405 123.331 189.405 123.331Z" fill="white" stroke="url(#paint15_linear_5718_9225)"/>
<path opacity="0.68" d="M270.66 276.014C271.041 275.646 271.419 275.274 271.794 274.9C276.469 270.232 280.655 265.083 284.351 259.612C291.741 248.656 297.183 236.446 300.802 223.751C304.376 211.032 306.073 197.822 306.128 184.62C306.096 178.018 305.654 171.418 304.776 164.876M270.66 276.014L305.272 164.809M270.66 276.014C271.037 275.643 271.411 275.27 271.781 274.893L271.782 274.893C276.411 270.181 280.542 264.999 284.18 259.504C291.461 248.503 296.757 236.273 300.268 223.606L300.268 223.606C302.015 217.262 303.285 210.796 304.144 204.281C305.004 197.765 305.432 191.195 305.451 184.621V184.618C305.435 178.046 305.011 171.474 304.154 164.957C303.299 158.442 302.034 151.974 300.289 145.629L300.289 145.628C296.786 132.956 291.498 120.719 284.221 109.71C282.412 106.973 280.481 104.315 278.427 101.754C280.509 104.294 282.47 106.935 284.31 109.655M270.66 276.014L284.31 109.655M304.776 164.876L305.272 164.809M304.776 164.876C304.776 164.876 304.776 164.876 304.776 164.876L305.272 164.809M304.776 164.876C303.895 158.335 302.568 151.852 300.782 145.496M305.272 164.809C304.387 158.245 303.056 151.739 301.262 145.359M300.782 145.496L301.262 145.359M300.782 145.496C297.155 132.806 291.706 120.601 284.31 109.655M300.782 145.496C300.781 145.496 300.781 145.495 300.781 145.494L301.262 145.359M301.262 145.359L284.31 109.655M284.31 109.655L284.725 109.375M284.31 109.655C284.31 109.655 284.31 109.655 284.31 109.654L284.725 109.375M284.725 109.375C281.01 103.884 276.803 98.7153 272.105 94.0275C267.408 89.3428 262.218 85.1347 256.579 81.6179M284.725 109.375L256.474 81.7871L256.579 81.6179M256.579 81.6179L256.474 81.7869L199.154 73.4294C205.517 71.5138 212.16 70.5101 218.811 70.498C225.463 70.5061 232.108 71.5047 238.473 73.4163C244.842 75.3208 250.936 78.1131 256.579 81.6179ZM137.268 223.63L137.268 223.631C140.793 236.303 146.098 248.538 153.392 259.539L153.809 259.263L153.392 259.539C155.139 262.173 156.999 264.734 158.972 267.206C156.978 264.748 155.096 262.198 153.327 259.574C145.949 248.619 140.517 236.413 136.912 223.723C133.367 211.009 131.665 197.813 131.597 184.62C131.673 171.427 133.382 158.233 136.934 145.52C140.312 133.658 145.288 122.222 151.955 111.838C145.381 122.279 140.537 133.75 137.248 145.601L137.248 145.602C133.75 158.302 132.098 171.469 132.074 184.619L132.074 184.621C132.105 197.771 133.765 210.935 137.268 223.63ZM238.33 73.8954C244.653 75.7863 250.705 78.5591 256.312 82.0408C256.313 82.0409 256.313 82.041 256.313 82.0411C256.314 82.0416 256.315 82.0421 256.315 82.0426L238.33 73.8954Z" fill="white" fill-opacity="0.8" stroke="url(#paint16_linear_5718_9225)"/>
<g opacity="0.68">
<mask id="path-42-inside-1_5718_9225" fill="white">
<path d="M321.331 139.619L294.947 139.796L268.564 139.898L215.796 139.979L163.029 139.89L136.645 139.779L110.262 139.586C110.226 139.586 110.197 139.556 110.197 139.521C110.197 139.486 110.227 139.456 110.262 139.456L136.645 139.264L163.029 139.153L215.796 139.063L268.564 139.145L294.947 139.247L321.331 139.424C321.384 139.425 321.428 139.469 321.427 139.522C321.427 139.575 321.384 139.618 321.331 139.619Z"/>
</mask>
<path d="M321.331 139.619L294.947 139.796L268.564 139.898L215.796 139.979L163.029 139.89L136.645 139.779L110.262 139.586C110.226 139.586 110.197 139.556 110.197 139.521C110.197 139.486 110.227 139.456 110.262 139.456L136.645 139.264L163.029 139.153L215.796 139.063L268.564 139.145L294.947 139.247L321.331 139.424C321.384 139.425 321.428 139.469 321.427 139.522C321.427 139.575 321.384 139.618 321.331 139.619Z" fill="white" fill-opacity="0.8"/>
<path d="M321.331 139.619L321.337 140.619L321.349 140.619L321.331 139.619ZM294.947 139.796L294.951 140.796L294.954 140.796L294.947 139.796ZM268.564 139.898L268.566 140.898L268.568 140.898L268.564 139.898ZM215.796 139.979L215.795 140.979L215.798 140.979L215.796 139.979ZM163.029 139.89L163.025 140.89L163.027 140.89L163.029 139.89ZM136.645 139.779L136.638 140.779L136.641 140.779L136.645 139.779ZM110.262 139.586L110.269 138.586H110.262V139.586ZM110.262 139.456V140.457L110.269 140.456L110.262 139.456ZM136.645 139.264L136.641 138.264L136.638 138.264L136.645 139.264ZM163.029 139.153L163.027 138.153L163.025 138.153L163.029 139.153ZM215.796 139.063L215.798 138.063L215.795 138.063L215.796 139.063ZM268.564 139.145L268.568 138.145L268.566 138.145L268.564 139.145ZM294.947 139.247L294.954 138.247L294.951 138.247L294.947 139.247ZM321.331 139.424L321.349 138.424L321.337 138.424L321.331 139.424ZM321.427 139.522L320.427 139.503L320.427 139.512V139.522H321.427ZM321.324 138.619L294.941 138.796L294.954 140.796L321.337 140.619L321.324 138.619ZM294.943 138.796L268.56 138.898L268.568 140.898L294.951 140.796L294.943 138.796ZM268.562 138.898L215.795 138.979L215.798 140.979L268.566 140.898L268.562 138.898ZM215.798 138.979L163.03 138.89L163.027 140.89L215.795 140.979L215.798 138.979ZM163.033 138.89L136.65 138.779L136.641 140.779L163.025 140.89L163.033 138.89ZM136.653 138.779L110.269 138.586L110.255 140.586L136.638 140.779L136.653 138.779ZM110.262 138.586C110.803 138.586 111.197 139.029 111.197 139.521H109.197C109.197 140.083 109.648 140.586 110.262 140.586V138.586ZM111.197 139.521C111.197 140.043 110.774 140.456 110.262 140.456V138.456C109.68 138.456 109.197 138.928 109.197 139.521H111.197ZM110.269 140.456L136.653 140.264L136.638 138.264L110.255 138.457L110.269 140.456ZM136.65 140.264L163.033 140.153L163.025 138.153L136.641 138.264L136.65 140.264ZM163.03 140.153L215.798 140.063L215.795 138.063L163.027 138.153L163.03 140.153ZM215.795 140.063L268.562 140.145L268.566 138.145L215.798 138.063L215.795 140.063ZM268.56 140.145L294.943 140.247L294.951 138.247L268.568 138.145L268.56 140.145ZM294.941 140.247L321.324 140.424L321.337 138.424L294.954 138.247L294.941 140.247ZM321.312 140.424C320.841 140.415 320.417 140.029 320.427 139.503L322.427 139.541C322.439 138.908 321.928 138.435 321.349 138.424L321.312 140.424ZM320.427 139.522C320.427 139.015 320.837 138.628 321.312 138.619L321.349 140.619C321.932 140.608 322.427 140.136 322.427 139.522H320.427Z" fill="url(#paint17_linear_5718_9225)" mask="url(#path-42-inside-1_5718_9225)"/>
</g>
<path opacity="0.68" d="M234.529 95.1464C236.213 95.15 237.898 95.1523 239.583 95.1546C244.142 95.1607 248.701 95.1669 253.26 95.1978L271.992 95.2986M234.529 95.1464L215.797 95.1162M234.529 95.1464L234.528 95.501C234.528 95.501 234.528 95.501 234.528 95.501C234.528 95.501 234.528 95.501 234.528 95.501L215.798 95.5312L215.797 95.1162M234.529 95.1464L234.528 95.501C236.299 95.497 238.07 95.4945 239.841 95.492C244.314 95.4858 248.785 95.4796 253.257 95.4486L253.257 95.4486L253.258 95.4486L253.259 95.4486L271.987 95.3478L271.989 95.3478L271.991 95.3478L271.992 95.2986M215.797 95.1162L178.334 95.2059M215.797 95.1162L215.797 95.5312L215.796 95.5312L178.337 95.4415L178.336 95.4415L178.334 95.2059M178.334 95.2059L159.603 95.3167M178.334 95.2059L178.335 95.4415L159.608 95.3307C159.608 95.3307 159.607 95.3307 159.607 95.3307C159.606 95.3307 159.604 95.3307 159.603 95.3306L159.603 95.3167M159.603 95.3167C159.379 95.3191 159.155 95.3214 158.931 95.3237C159.155 95.326 159.379 95.3283 159.603 95.3306L159.603 95.3167ZM271.992 95.2986L271.991 95.3478L274.573 95.3232L271.992 95.2986ZM290.721 95.4769L290.722 95.5718L290.723 95.5718L290.721 95.4769ZM290.721 95.4769L290.723 95.477L290.721 95.4769ZM290.723 95.6694L290.721 95.6695L290.332 95.6732C290.324 95.6411 290.319 95.6078 290.319 95.5737H290.721L290.722 95.6055L290.723 95.6694ZM290.723 95.6694L290.722 95.5737L290.723 95.6694ZM274.573 95.8232L271.991 95.7986L271.992 95.8478M274.573 95.8232L253.26 95.9486C248.787 95.9796 244.314 95.9858 239.84 95.992C238.07 95.9945 236.299 95.997 234.529 96.001M274.573 95.8232L271.992 95.8478M274.573 95.8232L271.992 95.8478M271.992 95.8478L271.991 95.7986L271.989 95.7986L271.987 95.7986L253.259 95.6978L253.258 95.6978L253.257 95.6978L253.257 95.6978C248.7 95.6669 244.142 95.6607 239.584 95.6546C237.899 95.6523 236.214 95.65 234.528 95.6464L234.529 96.001M234.529 96.001L234.528 95.6464C234.528 95.6464 234.528 95.6464 234.528 95.6464L215.798 95.6162L215.797 96.0312M234.529 96.001L215.797 96.0312M215.797 96.0312L215.797 95.6162L215.796 95.6162L178.337 95.7059L178.336 95.7059L178.334 95.9415M215.797 96.0312L178.334 95.9415M178.334 95.9415L178.335 95.7059L159.608 95.8167C159.608 95.8167 159.607 95.8167 159.607 95.8167C159.606 95.8167 159.604 95.8168 159.603 95.8168L159.603 95.8307M178.334 95.9415L159.603 95.8307M159.603 95.8307L159.603 95.8168C159.379 95.8191 159.155 95.8214 158.931 95.8237C159.155 95.826 159.379 95.8283 159.603 95.8307ZM140.871 95.6382L140.873 95.5944L140.873 95.5727L140.875 95.5092C141.017 95.5071 141.159 95.5052 141.301 95.5032C141.305 95.5258 141.307 95.549 141.307 95.5727C141.307 95.5972 141.305 95.6211 141.301 95.6442C141.158 95.6422 141.016 95.6402 140.873 95.6382C140.873 95.6382 140.872 95.6382 140.871 95.6382ZM140.871 95.6382L140.872 95.5737L140.872 95.5727L140.873 95.5092C140.873 95.5092 140.872 95.5092 140.871 95.5092C140.836 95.5092 140.807 95.5374 140.807 95.5727C140.807 95.608 140.835 95.6372 140.871 95.6382ZM290.319 95.564C290.32 95.5326 290.324 95.5023 290.331 95.4732L290.719 95.4769L290.721 95.5718L290.319 95.564Z" fill="white" fill-opacity="0.8" stroke="url(#paint18_linear_5718_9225)"/>
<g opacity="0.68">
<mask id="path-45-inside-2_5718_9225" fill="white">
<path d="M330.499 183.568L301.823 183.745L273.147 183.847L215.795 183.929L158.444 183.839L129.767 183.728L101.091 183.536C101.055 183.536 101.026 183.505 101.026 183.47C101.026 183.435 101.056 183.406 101.091 183.406L129.767 183.213L158.444 183.102L215.795 183.013L273.147 183.094L301.823 183.196L330.499 183.373C330.553 183.373 330.596 183.418 330.595 183.47C330.595 183.525 330.553 183.567 330.499 183.568Z"/>
</mask>
<path d="M330.499 183.568L301.823 183.745L273.147 183.847L215.795 183.929L158.444 183.839L129.767 183.728L101.091 183.536C101.055 183.536 101.026 183.505 101.026 183.47C101.026 183.435 101.056 183.406 101.091 183.406L129.767 183.213L158.444 183.102L215.795 183.013L273.147 183.094L301.823 183.196L330.499 183.373C330.553 183.373 330.596 183.418 330.595 183.47C330.595 183.525 330.553 183.567 330.499 183.568Z" fill="white" fill-opacity="0.8"/>
<path d="M330.499 183.568L330.505 184.568L330.518 184.568L330.499 183.568ZM301.823 183.745L301.826 184.745L301.829 184.745L301.823 183.745ZM273.147 183.847L273.148 184.847L273.15 184.847L273.147 183.847ZM215.795 183.929L215.794 184.929L215.797 184.929L215.795 183.929ZM158.444 183.839L158.44 184.839L158.442 184.839L158.444 183.839ZM129.767 183.728L129.761 184.728L129.764 184.728L129.767 183.728ZM101.091 183.536L101.098 182.536H101.091V183.536ZM101.091 183.406V184.406L101.098 184.406L101.091 183.406ZM129.767 183.213L129.764 182.213L129.761 182.213L129.767 183.213ZM158.444 183.102L158.442 182.102L158.44 182.102L158.444 183.102ZM215.795 183.013L215.797 182.013L215.794 182.013L215.795 183.013ZM273.147 183.094L273.15 182.094L273.148 182.094L273.147 183.094ZM301.823 183.196L301.829 182.196L301.826 182.196L301.823 183.196ZM330.499 183.373L330.493 184.373H330.499V183.373ZM330.595 183.47L329.595 183.451L329.595 183.461V183.47H330.595ZM330.493 182.568L301.817 182.745L301.829 184.745L330.505 184.568L330.493 182.568ZM301.819 182.745L273.143 182.847L273.15 184.847L301.826 184.745L301.819 182.745ZM273.145 182.847L215.794 182.929L215.797 184.929L273.148 184.847L273.145 182.847ZM215.797 182.929L158.445 182.839L158.442 184.839L215.794 184.929L215.797 182.929ZM158.448 182.839L129.771 182.728L129.764 184.728L158.44 184.839L158.448 182.839ZM129.774 182.728L101.098 182.536L101.085 184.536L129.761 184.728L129.774 182.728ZM101.091 182.536C101.632 182.536 102.026 182.979 102.026 183.47H100.026C100.026 184.032 100.477 184.536 101.091 184.536V182.536ZM102.026 183.47C102.026 183.992 101.603 184.406 101.091 184.406V182.406C100.509 182.406 100.026 182.878 100.026 183.47H102.026ZM101.098 184.406L129.774 184.213L129.761 182.213L101.085 182.406L101.098 184.406ZM129.771 184.213L158.448 184.102L158.44 182.102L129.764 182.213L129.771 184.213ZM158.445 184.102L215.797 184.013L215.794 182.013L158.442 182.102L158.445 184.102ZM215.794 184.013L273.145 184.094L273.148 182.094L215.797 182.013L215.794 184.013ZM273.143 184.094L301.819 184.196L301.826 182.196L273.15 182.094L273.143 184.094ZM301.817 184.196L330.493 184.373L330.505 182.373L301.829 182.196L301.817 184.196ZM330.499 184.373C330.003 184.373 329.585 183.968 329.595 183.451L331.595 183.49C331.607 182.867 331.103 182.373 330.499 182.373V184.373ZM329.595 183.47C329.595 182.971 329.998 182.577 330.48 182.568L330.518 184.568C331.107 184.557 331.595 184.079 331.595 183.47H329.595Z" fill="url(#paint19_linear_5718_9225)" mask="url(#path-45-inside-2_5718_9225)"/>
</g>
<path opacity="0.68" d="M294.947 227.144L298.585 227.169L294.947 227.194L294.947 227.144ZM294.947 227.144L268.564 227.043M294.947 227.144L294.947 227.194L294.945 227.194L294.944 227.194L268.564 227.295L268.564 227.043M268.564 227.043L215.796 226.961M268.564 227.043L268.563 227.295L268.562 227.295L215.797 227.377L215.796 226.961M215.796 226.961L163.029 227.051M215.796 226.961L215.796 227.377L215.796 227.377L163.031 227.287L163.03 227.287L163.029 227.051M163.029 227.051L136.645 227.161M163.029 227.051L163.029 227.287L136.649 227.176L136.648 227.176L136.646 227.176L136.645 227.161M136.645 227.161L135.623 227.169L136.645 227.176L136.645 227.161ZM294.947 227.694L294.947 227.644L294.945 227.644L294.944 227.644L268.564 227.543L268.564 227.795M294.947 227.694L268.564 227.795M294.947 227.694L294.947 227.644L298.585 227.669L294.947 227.694ZM268.564 227.795L215.796 227.877M268.564 227.795L268.563 227.543L268.562 227.543L215.797 227.461L215.796 227.877M215.796 227.877L163.029 227.787M215.796 227.877L215.796 227.461L215.796 227.461L163.031 227.551L163.03 227.551L163.029 227.787M163.029 227.787L136.645 227.676M163.029 227.787L163.029 227.551L136.649 227.661L136.648 227.661L136.646 227.661L136.645 227.676M136.645 227.676L135.623 227.669L136.645 227.661L136.645 227.676ZM321.427 227.419C321.428 227.367 321.384 227.323 321.331 227.323L321.329 227.323L320.939 227.32C320.932 227.349 320.928 227.379 320.927 227.41L321.427 227.419ZM321.427 227.419C321.427 227.472 321.384 227.515 321.331 227.515L321.329 227.515L320.939 227.518M321.427 227.419L320.939 227.518M320.939 227.518C320.931 227.486 320.927 227.454 320.927 227.419L320.939 227.518Z" fill="white" fill-opacity="0.8" stroke="url(#paint20_linear_5718_9225)"/>
<g opacity="0.68">
<mask id="path-48-inside-3_5718_9225" fill="white">
<path d="M286.948 271.706H137.094C136.906 271.706 136.754 271.555 136.754 271.368C136.754 271.18 136.906 271.029 137.094 271.029H286.948C287.136 271.029 287.288 271.18 287.288 271.368C287.288 271.555 287.135 271.706 286.948 271.706Z"/>
</mask>
<path d="M286.948 271.706H137.094C136.906 271.706 136.754 271.555 136.754 271.368C136.754 271.18 136.906 271.029 137.094 271.029H286.948C287.136 271.029 287.288 271.18 287.288 271.368C287.288 271.555 287.135 271.706 286.948 271.706Z" fill="white" fill-opacity="0.8"/>
<path d="M286.948 270.706H137.094V272.706H286.948V270.706ZM137.094 270.706C137.453 270.706 137.754 270.998 137.754 271.368H135.754C135.754 272.113 136.359 272.706 137.094 272.706V270.706ZM137.754 271.368C137.754 271.738 137.453 272.029 137.094 272.029V270.029C136.359 270.029 135.754 270.623 135.754 271.368H137.754ZM137.094 272.029H286.948V270.029H137.094V272.029ZM286.948 272.029C286.589 272.029 286.288 271.738 286.288 271.368H288.288C288.288 270.623 287.683 270.029 286.948 270.029V272.029ZM286.288 271.368C286.288 270.996 286.59 270.706 286.948 270.706V272.706C287.68 272.706 288.288 272.115 288.288 271.368H286.288Z" fill="url(#paint21_linear_5718_9225)" mask="url(#path-48-inside-3_5718_9225)"/>
</g>
</g>
<path d="M275.495 191H261.509V305.3H275.495V191Z" fill="#C8E8E2"/>
<path d="M283.142 191H275.495V305.3H283.142V191Z" fill="url(#paint22_linear_5718_9225)"/>
<path d="M261.508 200.121H275.494V196.384H261.508V200.121Z" fill="#00D4BB" fill-opacity="0.8"/>
<path d="M275.497 200.121H283.144V196.384H275.497V200.121Z" fill="#00B7B2" fill-opacity="0.8"/>
<path d="M261.508 208.887H275.494V205.15H261.508V208.887Z" fill="#00D4BB" fill-opacity="0.8"/>
<path d="M275.497 208.887H283.144V205.15H275.497V208.887Z" fill="#00B7B2" fill-opacity="0.8"/>
<path d="M245.397 191H231.412V305.3H245.397V191Z" fill="#C8E8E2"/>
<path d="M253.035 191H245.388V305.3H253.035V191Z" fill="url(#paint23_linear_5718_9225)"/>
<path d="M129.788 221.851C126.296 211.202 125.248 204.719 125.248 204.719C115.687 206.21 106.048 207.061 96.3911 207.342C96.9682 213.263 97.6801 219.176 98.4592 225.079L129.788 221.851Z" fill="#42E8E0" fill-opacity="0.8"/>
<path d="M129.788 221.851L98.459 225.07C102.008 252.115 107.549 278.94 115.09 305.3H179.431C149.862 272.694 135.973 240.711 129.788 221.851Z" fill="url(#paint24_radial_5718_9225)"/>
<path d="M98.4206 225.071C82.0011 216.062 64.1965 211.623 53.1637 209.562C49.9029 223.22 37.6484 263.782 0 305.3H89.7155H115.09C107.549 278.949 102.008 252.115 98.4591 225.071H98.4206Z" fill="url(#paint25_linear_5718_9225)"/>
<path d="M98.4591 225.07C97.68 219.167 96.9682 213.254 96.391 207.333C82.2897 207.737 68.15 206.886 54.1929 204.71C54.1929 204.71 53.914 206.43 53.1733 209.561C64.2062 211.623 82.0012 216.07 98.4302 225.07H98.4591Z" fill="#00B7B2" fill-opacity="0.8"/>
<path d="M245.397 246.343H112.146V305.3H245.397V246.343Z" fill="url(#paint26_linear_5718_9225)" fill-opacity="0.9"/>
<path d="M267.29 246.343H245.388V305.3H267.29V246.343Z" fill="url(#paint27_linear_5718_9225)"/>
<path d="M123.18 278.15H171.563V256.167H123.18V278.15ZM124.853 257.694H169.879V276.615H124.853V257.694Z" fill="#EEFAFF" fill-opacity="0.8"/>
<path d="M183.865 256.167V278.15H232.248V256.167H183.865ZM230.565 276.615H185.549V257.694H230.575V276.615H230.565Z" fill="#EEFAFF" fill-opacity="0.8"/>
<path d="M239.463 233.352H228.642V246.343H239.463V233.352Z" fill="url(#paint28_linear_5718_9225)"/>
<path d="M129.403 202.693C129.008 200.596 126.854 199.202 124.526 199.544C118.61 200.465 112.685 201.14 106.741 201.596C108.28 202.053 109.636 203.07 110.204 204.465C110.838 206.009 110.434 207.798 109.367 209.114C114.907 208.649 120.438 208 125.95 207.14C128.249 206.781 129.797 204.789 129.403 202.693Z" fill="#00FFBD" fill-opacity="0.58"/>
<path d="M110.203 204.465C109.636 203.079 108.28 202.053 106.741 201.597C89.4554 202.904 72.0836 202.228 54.8947 199.544C52.5861 199.193 50.4123 200.597 50.0179 202.693C49.6235 204.79 51.1722 206.781 53.4711 207.141C65.4947 209.009 77.6049 209.948 89.7055 209.948C96.2656 209.948 102.816 209.667 109.367 209.114C110.434 207.79 110.838 206.009 110.203 204.465Z" fill="#70BEF2"/>
<g opacity="0.63">
<path d="M220.946 256.167H218.301L217.07 257.694L201.843 276.615L200.602 278.15H203.247L204.488 276.615L219.715 257.694L220.946 256.167Z" fill="white"/>
<path d="M228.122 256.167L226.89 257.694L211.654 276.615L210.423 278.15H212.443L213.684 276.615L228.91 257.694L230.142 256.167H228.122Z" fill="white"/>
<path d="M146.38 256.167H144.707L143.456 257.694L127.998 276.615L126.748 278.15H128.422L129.672 276.615L145.13 257.694L146.38 256.167Z" fill="white"/>
<path d="M153.171 256.167H151.045L149.795 257.694L134.366 276.615L133.116 278.15H135.251L136.502 276.615L151.921 257.694L153.171 256.167Z" fill="white"/>
<path d="M171.341 256.167H169.677L168.427 257.694L152.969 276.615L151.719 278.15H153.383L154.633 276.615L169.879 257.957L171.341 256.167Z" fill="white"/>
<path d="M159.337 276.615L158.086 278.151H160.212L161.463 276.615L169.879 266.291L171.563 264.238V261.624L169.879 263.685L159.337 276.615Z" fill="white"/>
</g>
<path d="M231.402 200.121H245.388V196.384H231.402V200.121Z" fill="#00D4BB" fill-opacity="0.8"/>
<path d="M245.401 200.121H253.048V196.384H245.401V200.121Z" fill="#00B7B2" fill-opacity="0.8"/>
<path d="M231.402 208.887H245.388V205.15H231.402V208.887Z" fill="#00D4BB" fill-opacity="0.8"/>
<path d="M245.401 208.887H253.048V205.15H245.401V208.887Z" fill="#00B7B2" fill-opacity="0.8"/>
<g opacity="0.8">
<path opacity="0.8" d="M43.5971 75.8594C44.9641 75.8594 46.279 76.0796 47.5111 76.4802C46.8583 75.0825 46.4905 73.5257 46.4905 71.8802C46.4905 65.8641 51.3792 60.9858 57.408 60.9858C59.6792 60.9858 61.791 61.6801 63.538 62.8637C65.8551 57.0831 71.5162 53 78.1366 53C85.7776 53 92.1436 58.4411 93.5596 65.6531C95.5182 64.9374 97.633 64.5459 99.8398 64.5459C109.927 64.5459 118.104 72.706 118.104 82.7716C118.104 92.8372 109.927 100.997 99.8398 100.997H43.5971C36.6396 100.997 31 95.3696 31 88.4268C31 81.487 36.6396 75.8594 43.5971 75.8594Z" fill="url(#paint29_linear_5718_9225)"/>
<path opacity="0.8" d="M93.0391 94.2159C103.126 94.2159 111.303 86.0558 111.303 75.9902C111.303 72.6992 110.424 69.6162 108.897 66.9492C114.396 70.0903 118.102 75.9963 118.102 82.774C118.102 92.8395 109.924 101 99.8372 101H43.5976C38.3534 101 33.8601 97.8035 31.9629 93.2555C33.4525 93.8733 35.0861 94.2159 36.7995 94.2159H93.0391Z" fill="url(#paint30_linear_5718_9225)"/>
</g>
<defs>
<filter id="filter0_b_5718_9225" x="82.0405" y="55.9541" width="273.139" height="253.305" filterUnits="userSpaceOnUse" color-interpolation-filters="sRGB">
<feFlood flood-opacity="0" result="BackgroundImageFix"/>
<feGaussianBlur in="BackgroundImage" stdDeviation="5"/>
<feComposite in2="SourceAlpha" operator="in" result="effect1_backgroundBlur_5718_9225"/>
<feBlend mode="normal" in="SourceGraphic" in2="effect1_backgroundBlur_5718_9225" result="shape"/>
</filter>
<linearGradient id="paint0_linear_5718_9225" x1="261.524" y1="35.3633" x2="261.524" y2="51.5562" gradientUnits="userSpaceOnUse">
<stop stop-color="#6B9ED4" stop-opacity="0.83"/>
<stop offset="1" stop-color="#8891DD"/>
</linearGradient>
<linearGradient id="paint1_linear_5718_9225" x1="263.628" y1="48.1382" x2="263.628" y2="97.8596" gradientUnits="userSpaceOnUse">
<stop stop-color="#6B9ED4" stop-opacity="0.83"/>
<stop offset="1" stop-color="#8891DD"/>
</linearGradient>
<linearGradient id="paint2_linear_5718_9225" x1="304.16" y1="40.4824" x2="304.16" y2="56.6753" gradientUnits="userSpaceOnUse">
<stop stop-color="#6B9ED4" stop-opacity="0.83"/>
<stop offset="1" stop-color="#8891DD"/>
</linearGradient>
<linearGradient id="paint3_linear_5718_9225" x1="306.263" y1="53.2573" x2="306.263" y2="102.979" gradientUnits="userSpaceOnUse">
<stop stop-color="#6B9ED4" stop-opacity="0.83"/>
<stop offset="1" stop-color="#8891DD"/>
</linearGradient>
<linearGradient id="paint4_linear_5718_9225" x1="419.075" y1="146.524" x2="326.44" y2="146.524" gradientUnits="userSpaceOnUse">
<stop stop-color="#89E0FE"/>
<stop offset="0.9959" stop-color="#EDF1FE" stop-opacity="0.61"/>
</linearGradient>
<linearGradient id="paint5_linear_5718_9225" x1="412.61" y1="156.892" x2="319.977" y2="156.892" gradientUnits="userSpaceOnUse">
<stop stop-color="#66CAED" stop-opacity="0.48"/>
<stop offset="0.9959" stop-color="#89E0FE" stop-opacity="0.08"/>
</linearGradient>
<linearGradient id="paint6_linear_5718_9225" x1="-34.3149" y1="193.66" x2="209.078" y2="435.593" gradientUnits="userSpaceOnUse">
<stop offset="0.202078" stop-color="#37CCC8"/>
<stop offset="0.432858" stop-color="#37CCC8" stop-opacity="0.92"/>
<stop offset="0.697917" stop-color="#37CCC8" stop-opacity="0.47"/>
<stop offset="1" stop-color="#37CCC8" stop-opacity="0.37"/>
</linearGradient>
<linearGradient id="paint7_linear_5718_9225" x1="69.869" y1="93.5891" x2="422.946" y2="271.491" gradientUnits="userSpaceOnUse">
<stop stop-color="white"/>
<stop offset="1" stop-color="white" stop-opacity="0"/>
</linearGradient>
<linearGradient id="paint8_linear_5718_9225" x1="69.869" y1="93.5891" x2="422.946" y2="271.491" gradientUnits="userSpaceOnUse">
<stop stop-color="white"/>
<stop offset="1" stop-color="white" stop-opacity="0"/>
</linearGradient>
<linearGradient id="paint9_linear_5718_9225" x1="127.5" y1="126" x2="127.5" y2="228" gradientUnits="userSpaceOnUse">
<stop stop-color="#A3BEF8"/>
<stop offset="1" stop-color="#A3BEF8" stop-opacity="0.58"/>
</linearGradient>
<linearGradient id="paint10_linear_5718_9225" x1="98.3571" y1="135.273" x2="183.933" y2="157.365" gradientUnits="userSpaceOnUse">
<stop stop-color="white"/>
<stop offset="1" stop-color="white" stop-opacity="0"/>
</linearGradient>
<linearGradient id="paint11_linear_5718_9225" x1="255.984" y1="91.2842" x2="255.984" y2="298.63" gradientUnits="userSpaceOnUse">
<stop stop-color="#A3BEF8"/>
<stop offset="1" stop-color="#A3BEF8" stop-opacity="0.58"/>
</linearGradient>
<linearGradient id="paint12_linear_5718_9225" x1="181.123" y1="110.134" x2="393.044" y2="179.269" gradientUnits="userSpaceOnUse">
<stop stop-color="white"/>
<stop offset="1" stop-color="white" stop-opacity="0"/>
</linearGradient>
<linearGradient id="paint13_linear_5718_9225" x1="222.345" y1="66.7178" x2="222.345" y2="95.0274" gradientUnits="userSpaceOnUse">
<stop stop-color="#A3BEF8"/>
<stop offset="1" stop-color="#A3BEF8" stop-opacity="0.58"/>
</linearGradient>
<linearGradient id="paint14_linear_5718_9225" x1="183.316" y1="69.2914" x2="231.221" y2="128.968" gradientUnits="userSpaceOnUse">
<stop stop-color="white"/>
<stop offset="1" stop-color="white" stop-opacity="0"/>
</linearGradient>
<linearGradient id="paint15_linear_5718_9225" x1="178.65" y1="91.8135" x2="291.731" y2="108.361" gradientUnits="userSpaceOnUse">
<stop stop-color="white"/>
<stop offset="1" stop-color="white" stop-opacity="0"/>
</linearGradient>
<linearGradient id="paint16_linear_5718_9225" x1="118.559" y1="91.2542" x2="389.959" y2="198.988" gradientUnits="userSpaceOnUse">
<stop stop-color="white"/>
<stop offset="1" stop-color="white" stop-opacity="0"/>
</linearGradient>
<linearGradient id="paint17_linear_5718_9225" x1="95.1094" y1="139.147" x2="95.1361" y2="142.322" gradientUnits="userSpaceOnUse">
<stop stop-color="white"/>
<stop offset="1" stop-color="white" stop-opacity="0"/>
</linearGradient>
<linearGradient id="paint18_linear_5718_9225" x1="130.091" y1="95.1994" x2="130.129" y2="98.3706" gradientUnits="userSpaceOnUse">
<stop stop-color="white"/>
<stop offset="1" stop-color="white" stop-opacity="0"/>
</linearGradient>
<linearGradient id="paint19_linear_5718_9225" x1="84.6286" y1="183.096" x2="84.6531" y2="186.271" gradientUnits="userSpaceOnUse">
<stop stop-color="white"/>
<stop offset="1" stop-color="white" stop-opacity="0"/>
</linearGradient>
<linearGradient id="paint20_linear_5718_9225" x1="95.1094" y1="227.044" x2="95.1361" y2="230.219" gradientUnits="userSpaceOnUse">
<stop stop-color="white"/>
<stop offset="1" stop-color="white" stop-opacity="0"/>
</linearGradient>
<linearGradient id="paint21_linear_5718_9225" x1="126.001" y1="271.091" x2="126.022" y2="273.438" gradientUnits="userSpaceOnUse">
<stop stop-color="white"/>
<stop offset="1" stop-color="white" stop-opacity="0"/>
</linearGradient>
<linearGradient id="paint22_linear_5718_9225" x1="279.319" y1="191" x2="279.319" y2="305.3" gradientUnits="userSpaceOnUse">
<stop stop-color="#6B9ED4" stop-opacity="0.83"/>
<stop offset="1" stop-color="#8891DD"/>
</linearGradient>
<linearGradient id="paint23_linear_5718_9225" x1="249.212" y1="191" x2="249.212" y2="305.3" gradientUnits="userSpaceOnUse">
<stop stop-color="#6B9ED4" stop-opacity="0.83"/>
<stop offset="1" stop-color="#8891DD"/>
</linearGradient>
<radialGradient id="paint24_radial_5718_9225" cx="0" cy="0" r="1" gradientUnits="userSpaceOnUse" gradientTransform="translate(138.945 263.575) rotate(90) scale(41.7243 40.4859)">
<stop stop-color="#42E8E0"/>
<stop offset="1" stop-color="#5DECC7" stop-opacity="0.53"/>
</radialGradient>
<linearGradient id="paint25_linear_5718_9225" x1="61.5" y1="241.5" x2="111.5" y2="311" gradientUnits="userSpaceOnUse">
<stop stop-color="#3FB3AE"/>
<stop offset="1" stop-color="#00D4BB" stop-opacity="0.5"/>
</linearGradient>
<linearGradient id="paint26_linear_5718_9225" x1="183.351" y1="266.011" x2="205.03" y2="322.666" gradientUnits="userSpaceOnUse">
<stop stop-color="#39ABA7" stop-opacity="0.89"/>
<stop offset="1" stop-color="#00D4BB" stop-opacity="0.5"/>
</linearGradient>
<linearGradient id="paint27_linear_5718_9225" x1="256.339" y1="246.343" x2="256.339" y2="305.3" gradientUnits="userSpaceOnUse">
<stop stop-color="#42E8E0"/>
<stop offset="1" stop-color="#00FFBD" stop-opacity="0.53"/>
</linearGradient>
<linearGradient id="paint28_linear_5718_9225" x1="234.052" y1="233.352" x2="234.052" y2="246.343" gradientUnits="userSpaceOnUse">
<stop stop-color="#6B9ED4" stop-opacity="0.83"/>
<stop offset="1" stop-color="#8891DD"/>
</linearGradient>
<linearGradient id="paint29_linear_5718_9225" x1="118.101" y1="76.9996" x2="31" y2="76.9996" gradientUnits="userSpaceOnUse">
<stop stop-color="#89E0FE"/>
<stop offset="0.9959" stop-color="#EDF1FE" stop-opacity="0.61"/>
</linearGradient>
<linearGradient id="paint30_linear_5718_9225" x1="118.101" y1="83.9734" x2="31.0008" y2="83.9734" gradientUnits="userSpaceOnUse">
<stop stop-color="#66CAED" stop-opacity="0.48"/>
<stop offset="0.9959" stop-color="#89E0FE" stop-opacity="0.08"/>
</linearGradient>
</defs>
</svg>
