<svg width="14" height="14" viewBox="0 0 14 14" fill="none" xmlns="http://www.w3.org/2000/svg">
    <path opacity="0.9" d="M6.60772 13.3526C5.35588 13.3515 4.13244 12.9794 3.09193 12.2834C2.05141 11.5874 1.24049 10.5987 0.761585 9.44205C0.282676 8.28544 0.157261 7.01285 0.40118 5.785C0.645099 4.55716 1.24741 3.42913 2.13204 2.5434C2.71187 1.92114 3.4111 1.42204 4.188 1.07588C4.9649 0.729714 5.80357 0.543578 6.65397 0.528574C7.50438 0.513569 8.34909 0.670004 9.13772 0.988545C9.92635 1.30709 10.6427 1.78121 11.2442 2.38263C11.8456 2.98405 12.3197 3.70044 12.6382 4.48907C12.9568 5.2777 13.1132 6.12242 13.0982 6.97282C13.0832 7.82322 12.8971 8.66189 12.5509 9.4388C12.2048 10.2157 11.7057 10.9149 11.0834 11.4948C10.4972 12.0849 9.79982 12.5529 9.03158 12.8718C8.26335 13.1907 7.43951 13.3541 6.60772 13.3526V13.3526ZM6.3434 4.98138C6.26558 4.98138 6.18901 5.00095 6.12072 5.03827C6.05243 5.07558 5.99462 5.12946 5.95258 5.19495C5.91055 5.26044 5.88564 5.33545 5.88015 5.41307C5.87466 5.4907 5.88877 5.56846 5.92117 5.63922C6.02244 5.87427 6.0838 6.12457 6.10273 6.37981C6.09822 6.5723 6.06986 6.76348 6.01828 6.94898C5.96918 7.13635 5.93891 7.32815 5.92792 7.52153C5.91791 7.90061 6.01335 8.27502 6.2036 8.60304C6.39386 8.93106 6.67145 9.19982 7.00546 9.37936C7.4958 9.6352 8.01145 9.83925 8.54408 9.98822C8.79742 10.0608 9.01529 10.1352 9.21965 10.2162C9.47612 10.3254 9.75086 10.3853 10.0295 10.3927C10.1727 10.4007 10.3158 10.3763 10.4483 10.3213C10.5808 10.2663 10.6991 10.1822 10.7946 10.0752C10.8995 9.92724 10.9707 9.7581 11.0032 9.57968C11.0357 9.40126 11.0288 9.21788 10.9829 9.04242C10.8547 7.45393 10.1347 5.97147 8.96559 4.88849C7.79644 3.80552 6.26331 3.20096 4.66967 3.19448C3.25964 3.19066 1.88954 3.66254 0.780897 4.53381C0.62749 4.89319 0.507904 5.26609 0.423688 5.64766C0.953044 5.06724 1.59565 4.60138 2.31192 4.27878C3.14618 3.90317 4.05813 3.73233 4.97179 3.78051C5.88544 3.82869 6.77436 4.09449 7.5645 4.55577C7.58159 4.56602 7.59577 4.58049 7.60568 4.59779C7.61558 4.61508 7.62089 4.63463 7.62108 4.65457C7.6211 4.66844 7.61723 4.68204 7.60992 4.69383C7.6026 4.70562 7.59214 4.71513 7.5797 4.72128C7.23119 4.89242 6.84819 4.98167 6.45994 4.98222C6.42194 4.98391 6.38225 4.98307 6.3434 4.98138ZM2.38032 4.64359C2.3664 4.64361 2.35266 4.64672 2.3401 4.65271C2.32754 4.6587 2.31647 4.66741 2.30769 4.67821C2.29878 4.68918 2.29241 4.70199 2.28905 4.71572C2.2857 4.72945 2.28543 4.74375 2.28827 4.75759C2.30516 4.84204 2.3212 4.92142 2.33641 5.00249C2.37669 5.64331 2.64162 6.24942 3.0846 6.71422C3.45778 6.96879 3.88619 7.13089 4.33441 7.18712C4.60276 7.23874 4.86738 7.30814 5.12652 7.39486C5.13599 7.3983 5.146 7.40002 5.15608 7.39993C5.17119 7.40005 5.18605 7.39612 5.19912 7.38855C5.21219 7.38097 5.22299 7.37003 5.23039 7.35686C5.23846 7.3444 5.24309 7.33003 5.24383 7.31521C5.24458 7.30038 5.2414 7.28562 5.23462 7.27242C4.85535 6.61212 4.27811 6.08776 3.58453 5.77349C3.57961 5.77096 3.57573 5.76678 3.57357 5.76169C3.57141 5.7566 3.5711 5.75091 3.5727 5.74562C3.57398 5.74047 3.57689 5.73588 3.58101 5.73253C3.58512 5.72918 3.59021 5.72725 3.59551 5.72704H3.60142C4.35604 5.9418 5.00788 6.42154 5.43729 7.07819C5.445 7.08763 5.45517 7.09475 5.46669 7.09876C5.4782 7.10276 5.4906 7.10349 5.50251 7.10086C5.51441 7.09824 5.52535 7.09236 5.53412 7.08388C5.54288 7.07541 5.54912 7.06466 5.55214 7.05285C5.62453 6.78257 5.63626 6.49962 5.58648 6.22428C5.53669 5.94893 5.42663 5.68801 5.26417 5.46019C5.12156 5.27271 4.93859 5.11972 4.72882 5.01257C4.51905 4.90542 4.28785 4.84685 4.05236 4.84119C3.49762 4.83068 2.94524 4.76591 2.40312 4.64781C2.39565 4.64606 2.38799 4.64521 2.38032 4.64528V4.64359Z" fill="#49596B"/>
</svg>
