<svg width="60" height="60" viewBox="0 0 60 60" fill="none" xmlns="http://www.w3.org/2000/svg">
    <path d="M29.7546 0.62262C17.499 0.62262 6.96373 8.06118 2.44161 18.6619C7.47165 14.7297 13.8124 12.3867 20.6775 12.3867C36.2756 12.3867 49.1046 24.4784 50.2843 39.7979C51.2182 44.7788 47.8922 47.6461 42.0265 45.3031C40.9943 44.8935 39.9293 44.5494 38.8643 44.2381C36.4558 43.55 33.8343 42.5833 31.6552 41.3872C28.4766 39.6505 26.5104 36.308 26.6087 32.6707C26.6579 30.7537 27.4607 29.0333 27.4116 27.3293C27.2969 26.0841 27.0347 24.9044 26.5596 23.8558C25.9042 22.414 26.9528 20.7755 28.5421 20.7755C30.5574 20.8738 32.5563 20.4479 34.3422 19.5631C34.4569 19.4976 34.5388 19.3829 34.5388 19.2518C34.5388 19.0552 34.4405 18.8749 34.2767 18.7766C30.2952 16.45 25.6584 15.1065 20.7103 15.1065C12.8294 15.1065 5.7349 18.4981 0.803166 23.8886C0.3444 25.953 0.0986328 28.1158 0.0986328 30.3113C0.0986328 46.7122 13.3865 60 29.7873 60C46.1882 60 59.4432 46.7122 59.4432 30.3113C59.4432 13.9104 46.139 0.62262 29.7546 0.62262ZM24.8064 30.4752C24.7409 30.7209 24.4296 30.8029 24.2658 30.6062C20.8905 26.6084 18.5312 24.8225 15.6639 24.2654C15.5328 24.2491 15.4673 24.4129 15.582 24.4784C18.8097 26.2971 21.6934 28.1486 23.3155 31.5238C23.4793 31.8515 23.1516 32.2119 22.8075 32.0808C19.4651 30.8848 15.6967 30.9175 13.239 28.8859C10.6339 26.7395 10.2242 23.2496 9.50333 19.7106C9.43779 19.3992 9.71633 19.1043 10.044 19.1862C12.6655 19.8089 15.2051 19.9891 17.7775 20.0874C22.9222 20.3168 26.0844 25.0847 24.8064 30.4752Z" fill="#49596B"/>
</svg>
