<svg width="9" height="8" viewBox="0 0 9 8" fill="none" xmlns="http://www.w3.org/2000/svg">
<path d="M7.53129 0.723174C7.68331 0.578446 7.8856 0.498435 8.09549 0.500023C8.30538 0.501611 8.50644 0.584675 8.65626 0.731686C8.80607 0.878698 8.89291 1.07816 8.89846 1.28798C8.904 1.4978 8.82782 1.70157 8.68599 1.8563L4.38013 7.24132C4.30609 7.32107 4.21673 7.38507 4.11739 7.42949C4.01805 7.47391 3.91077 7.49785 3.80197 7.49986C3.69317 7.50188 3.58508 7.48193 3.48416 7.44122C3.38325 7.4005 3.29158 7.33985 3.21463 7.2629L0.359168 4.40744C0.279648 4.33334 0.215867 4.24398 0.17163 4.1447C0.127393 4.04542 0.103606 3.93824 0.101688 3.82957C0.099771 3.72089 0.119762 3.61295 0.16047 3.51217C0.201177 3.41138 0.261766 3.31984 0.338622 3.24298C0.415479 3.16612 0.507029 3.10553 0.60781 3.06483C0.708591 3.02412 0.816539 3.00413 0.925213 3.00604C1.03389 3.00796 1.14106 3.03175 1.24035 3.07599C1.33963 3.12022 1.42898 3.184 1.50308 3.26352L3.76285 5.52221L7.51078 0.746916C7.51753 0.738607 7.52473 0.730681 7.53236 0.723174H7.53129Z" fill="#54B1CE"/>
</svg>
